%TF.GenerationSoftware,KiCad,Pcbnew,(6.0.1-0)*%
%TF.CreationDate,2022-01-31T23:33:37+08:00*%
%TF.ProjectId,Phalanx,5068616c-616e-4782-9e6b-696361645f70,rev?*%
%TF.SameCoordinates,Original*%
%TF.FileFunction,Legend,Top*%
%TF.FilePolarity,Positive*%
%FSLAX46Y46*%
G04 Gerber Fmt 4.6, Leading zero omitted, Abs format (unit mm)*
G04 Created by KiCad (PCBNEW (6.0.1-0)) date 2022-01-31 23:33:37*
%MOMM*%
%LPD*%
G01*
G04 APERTURE LIST*
%ADD10C,0.150000*%
%ADD11C,0.120000*%
G04 APERTURE END LIST*
D10*
X97576190Y-68397380D02*
X97576190Y-67397380D01*
X97957142Y-67397380D01*
X98052380Y-67445000D01*
X98100000Y-67492619D01*
X98147619Y-67587857D01*
X98147619Y-67730714D01*
X98100000Y-67825952D01*
X98052380Y-67873571D01*
X97957142Y-67921190D01*
X97576190Y-67921190D01*
X98576190Y-68397380D02*
X98576190Y-67397380D01*
X99004761Y-68397380D02*
X99004761Y-67873571D01*
X98957142Y-67778333D01*
X98861904Y-67730714D01*
X98719047Y-67730714D01*
X98623809Y-67778333D01*
X98576190Y-67825952D01*
X99909523Y-68397380D02*
X99909523Y-67873571D01*
X99861904Y-67778333D01*
X99766666Y-67730714D01*
X99576190Y-67730714D01*
X99480952Y-67778333D01*
X99909523Y-68349761D02*
X99814285Y-68397380D01*
X99576190Y-68397380D01*
X99480952Y-68349761D01*
X99433333Y-68254523D01*
X99433333Y-68159285D01*
X99480952Y-68064047D01*
X99576190Y-68016428D01*
X99814285Y-68016428D01*
X99909523Y-67968809D01*
X100528571Y-68397380D02*
X100433333Y-68349761D01*
X100385714Y-68254523D01*
X100385714Y-67397380D01*
X101338095Y-68397380D02*
X101338095Y-67873571D01*
X101290476Y-67778333D01*
X101195238Y-67730714D01*
X101004761Y-67730714D01*
X100909523Y-67778333D01*
X101338095Y-68349761D02*
X101242857Y-68397380D01*
X101004761Y-68397380D01*
X100909523Y-68349761D01*
X100861904Y-68254523D01*
X100861904Y-68159285D01*
X100909523Y-68064047D01*
X101004761Y-68016428D01*
X101242857Y-68016428D01*
X101338095Y-67968809D01*
X101814285Y-67730714D02*
X101814285Y-68397380D01*
X101814285Y-67825952D02*
X101861904Y-67778333D01*
X101957142Y-67730714D01*
X102100000Y-67730714D01*
X102195238Y-67778333D01*
X102242857Y-67873571D01*
X102242857Y-68397380D01*
X102623809Y-68397380D02*
X103147619Y-67730714D01*
X102623809Y-67730714D02*
X103147619Y-68397380D01*
X104147619Y-67397380D02*
X104480952Y-68397380D01*
X104814285Y-67397380D01*
X105671428Y-68397380D02*
X105100000Y-68397380D01*
X105385714Y-68397380D02*
X105385714Y-67397380D01*
X105290476Y-67540238D01*
X105195238Y-67635476D01*
X105100000Y-67683095D01*
X101433333Y-57602380D02*
X101100000Y-57126190D01*
X100861904Y-57602380D02*
X100861904Y-56602380D01*
X101242857Y-56602380D01*
X101338095Y-56650000D01*
X101385714Y-56697619D01*
X101433333Y-56792857D01*
X101433333Y-56935714D01*
X101385714Y-57030952D01*
X101338095Y-57078571D01*
X101242857Y-57126190D01*
X100861904Y-57126190D01*
X102385714Y-57602380D02*
X101814285Y-57602380D01*
X102100000Y-57602380D02*
X102100000Y-56602380D01*
X102004761Y-56745238D01*
X101909523Y-56840476D01*
X101814285Y-56888095D01*
X101433333Y-60142380D02*
X101100000Y-59666190D01*
X100861904Y-60142380D02*
X100861904Y-59142380D01*
X101242857Y-59142380D01*
X101338095Y-59190000D01*
X101385714Y-59237619D01*
X101433333Y-59332857D01*
X101433333Y-59475714D01*
X101385714Y-59570952D01*
X101338095Y-59618571D01*
X101242857Y-59666190D01*
X100861904Y-59666190D01*
X101814285Y-59237619D02*
X101861904Y-59190000D01*
X101957142Y-59142380D01*
X102195238Y-59142380D01*
X102290476Y-59190000D01*
X102338095Y-59237619D01*
X102385714Y-59332857D01*
X102385714Y-59428095D01*
X102338095Y-59570952D01*
X101766666Y-60142380D01*
X102385714Y-60142380D01*
X101433333Y-62682380D02*
X101100000Y-62206190D01*
X100861904Y-62682380D02*
X100861904Y-61682380D01*
X101242857Y-61682380D01*
X101338095Y-61730000D01*
X101385714Y-61777619D01*
X101433333Y-61872857D01*
X101433333Y-62015714D01*
X101385714Y-62110952D01*
X101338095Y-62158571D01*
X101242857Y-62206190D01*
X100861904Y-62206190D01*
X101766666Y-61682380D02*
X102385714Y-61682380D01*
X102052380Y-62063333D01*
X102195238Y-62063333D01*
X102290476Y-62110952D01*
X102338095Y-62158571D01*
X102385714Y-62253809D01*
X102385714Y-62491904D01*
X102338095Y-62587142D01*
X102290476Y-62634761D01*
X102195238Y-62682380D01*
X101909523Y-62682380D01*
X101814285Y-62634761D01*
X101766666Y-62587142D01*
X101195238Y-54967142D02*
X101147619Y-55014761D01*
X101004761Y-55062380D01*
X100909523Y-55062380D01*
X100766666Y-55014761D01*
X100671428Y-54919523D01*
X100623809Y-54824285D01*
X100576190Y-54633809D01*
X100576190Y-54490952D01*
X100623809Y-54300476D01*
X100671428Y-54205238D01*
X100766666Y-54110000D01*
X100909523Y-54062380D01*
X101004761Y-54062380D01*
X101147619Y-54110000D01*
X101195238Y-54157619D01*
X101766666Y-55062380D02*
X101671428Y-55014761D01*
X101623809Y-54967142D01*
X101576190Y-54871904D01*
X101576190Y-54586190D01*
X101623809Y-54490952D01*
X101671428Y-54443333D01*
X101766666Y-54395714D01*
X101909523Y-54395714D01*
X102004761Y-54443333D01*
X102052380Y-54490952D01*
X102100000Y-54586190D01*
X102100000Y-54871904D01*
X102052380Y-54967142D01*
X102004761Y-55014761D01*
X101909523Y-55062380D01*
X101766666Y-55062380D01*
X102671428Y-55062380D02*
X102576190Y-55014761D01*
X102528571Y-54919523D01*
X102528571Y-54062380D01*
X101433333Y-142057380D02*
X101100000Y-141581190D01*
X100861904Y-142057380D02*
X100861904Y-141057380D01*
X101242857Y-141057380D01*
X101338095Y-141105000D01*
X101385714Y-141152619D01*
X101433333Y-141247857D01*
X101433333Y-141390714D01*
X101385714Y-141485952D01*
X101338095Y-141533571D01*
X101242857Y-141581190D01*
X100861904Y-141581190D01*
X101814285Y-141152619D02*
X101861904Y-141105000D01*
X101957142Y-141057380D01*
X102195238Y-141057380D01*
X102290476Y-141105000D01*
X102338095Y-141152619D01*
X102385714Y-141247857D01*
X102385714Y-141343095D01*
X102338095Y-141485952D01*
X101766666Y-142057380D01*
X102385714Y-142057380D01*
X101433333Y-65222380D02*
X101100000Y-64746190D01*
X100861904Y-65222380D02*
X100861904Y-64222380D01*
X101242857Y-64222380D01*
X101338095Y-64270000D01*
X101385714Y-64317619D01*
X101433333Y-64412857D01*
X101433333Y-64555714D01*
X101385714Y-64650952D01*
X101338095Y-64698571D01*
X101242857Y-64746190D01*
X100861904Y-64746190D01*
X102290476Y-64555714D02*
X102290476Y-65222380D01*
X102052380Y-64174761D02*
X101814285Y-64889047D01*
X102433333Y-64889047D01*
X96115238Y-141962142D02*
X96067619Y-142009761D01*
X95924761Y-142057380D01*
X95829523Y-142057380D01*
X95686666Y-142009761D01*
X95591428Y-141914523D01*
X95543809Y-141819285D01*
X95496190Y-141628809D01*
X95496190Y-141485952D01*
X95543809Y-141295476D01*
X95591428Y-141200238D01*
X95686666Y-141105000D01*
X95829523Y-141057380D01*
X95924761Y-141057380D01*
X96067619Y-141105000D01*
X96115238Y-141152619D01*
X96686666Y-142057380D02*
X96591428Y-142009761D01*
X96543809Y-141962142D01*
X96496190Y-141866904D01*
X96496190Y-141581190D01*
X96543809Y-141485952D01*
X96591428Y-141438333D01*
X96686666Y-141390714D01*
X96829523Y-141390714D01*
X96924761Y-141438333D01*
X96972380Y-141485952D01*
X97020000Y-141581190D01*
X97020000Y-141866904D01*
X96972380Y-141962142D01*
X96924761Y-142009761D01*
X96829523Y-142057380D01*
X96686666Y-142057380D01*
X97591428Y-142057380D02*
X97496190Y-142009761D01*
X97448571Y-141914523D01*
X97448571Y-141057380D01*
X103973333Y-142057380D02*
X103640000Y-141581190D01*
X103401904Y-142057380D02*
X103401904Y-141057380D01*
X103782857Y-141057380D01*
X103878095Y-141105000D01*
X103925714Y-141152619D01*
X103973333Y-141247857D01*
X103973333Y-141390714D01*
X103925714Y-141485952D01*
X103878095Y-141533571D01*
X103782857Y-141581190D01*
X103401904Y-141581190D01*
X104306666Y-141057380D02*
X104925714Y-141057380D01*
X104592380Y-141438333D01*
X104735238Y-141438333D01*
X104830476Y-141485952D01*
X104878095Y-141533571D01*
X104925714Y-141628809D01*
X104925714Y-141866904D01*
X104878095Y-141962142D01*
X104830476Y-142009761D01*
X104735238Y-142057380D01*
X104449523Y-142057380D01*
X104354285Y-142009761D01*
X104306666Y-141962142D01*
X106513333Y-142057380D02*
X106180000Y-141581190D01*
X105941904Y-142057380D02*
X105941904Y-141057380D01*
X106322857Y-141057380D01*
X106418095Y-141105000D01*
X106465714Y-141152619D01*
X106513333Y-141247857D01*
X106513333Y-141390714D01*
X106465714Y-141485952D01*
X106418095Y-141533571D01*
X106322857Y-141581190D01*
X105941904Y-141581190D01*
X107370476Y-141390714D02*
X107370476Y-142057380D01*
X107132380Y-141009761D02*
X106894285Y-141724047D01*
X107513333Y-141724047D01*
D11*
%TO.C,J3*%
X97790000Y-142815000D02*
X108010000Y-142815000D01*
X95190000Y-145475000D02*
X95190000Y-144145000D01*
X97790000Y-145475000D02*
X108010000Y-145475000D01*
X108010000Y-145475000D02*
X108010000Y-142815000D01*
X97790000Y-145475000D02*
X97790000Y-142815000D01*
X96520000Y-145475000D02*
X95190000Y-145475000D01*
%TO.C,J1*%
X105470000Y-55880000D02*
X105470000Y-66100000D01*
X102810000Y-53280000D02*
X104140000Y-53280000D01*
X102810000Y-55880000D02*
X102810000Y-66100000D01*
X102810000Y-66100000D02*
X105470000Y-66100000D01*
X102810000Y-55880000D02*
X105470000Y-55880000D01*
X102810000Y-54610000D02*
X102810000Y-53280000D01*
%TO.C,J2*%
X100390000Y-55880000D02*
X100390000Y-66100000D01*
X97730000Y-53280000D02*
X99060000Y-53280000D01*
X97730000Y-55880000D02*
X97730000Y-66100000D01*
X97730000Y-66100000D02*
X100390000Y-66100000D01*
X97730000Y-55880000D02*
X100390000Y-55880000D01*
X97730000Y-54610000D02*
X97730000Y-53280000D01*
%TD*%
M02*
