%TF.GenerationSoftware,KiCad,Pcbnew,(6.0.1-0)*%
%TF.CreationDate,2022-02-06T12:01:47+08:00*%
%TF.ProjectId,Phalanx,5068616c-616e-4782-9e6b-696361645f70,rev?*%
%TF.SameCoordinates,Original*%
%TF.FileFunction,Copper,L1,Top*%
%TF.FilePolarity,Positive*%
%FSLAX46Y46*%
G04 Gerber Fmt 4.6, Leading zero omitted, Abs format (unit mm)*
G04 Created by KiCad (PCBNEW (6.0.1-0)) date 2022-02-06 12:01:47*
%MOMM*%
%LPD*%
G01*
G04 APERTURE LIST*
%TA.AperFunction,ComponentPad*%
%ADD10R,1.700000X1.700000*%
%TD*%
%TA.AperFunction,ComponentPad*%
%ADD11O,1.700000X1.700000*%
%TD*%
%TA.AperFunction,ComponentPad*%
%ADD12O,2.500000X2.000000*%
%TD*%
%TA.AperFunction,Conductor*%
%ADD13C,0.250000*%
%TD*%
G04 APERTURE END LIST*
D10*
%TO.P,J1,1,Pin_1*%
%TO.N,Col1*%
X104140000Y-54610000D03*
D11*
%TO.P,J1,2,Pin_2*%
%TO.N,Row1*%
X104140000Y-57150000D03*
%TO.P,J1,3,Pin_3*%
%TO.N,Row2*%
X104140000Y-59690000D03*
%TO.P,J1,4,Pin_4*%
%TO.N,Row3*%
X104140000Y-62230000D03*
%TO.P,J1,5,Pin_5*%
%TO.N,Row4*%
X104140000Y-64770000D03*
%TD*%
D12*
%TO.P,SW3,1,1*%
%TO.N,Col1*%
X99060000Y-121920000D03*
%TO.P,SW3,2,2*%
%TO.N,Row3*%
X105410000Y-119380000D03*
%TD*%
%TO.P,SW4,1,1*%
%TO.N,Col1*%
X99060000Y-140970000D03*
%TO.P,SW4,2,2*%
%TO.N,Row4*%
X105410000Y-138430000D03*
%TD*%
%TO.P,SW2,1,1*%
%TO.N,Col1*%
X99060000Y-102870000D03*
%TO.P,SW2,2,2*%
%TO.N,Row2*%
X105410000Y-100330000D03*
%TD*%
D10*
%TO.P,J2,1,Pin_1*%
%TO.N,Col1*%
X99060000Y-54610000D03*
D11*
%TO.P,J2,2,Pin_2*%
%TO.N,Row1*%
X99060000Y-57150000D03*
%TO.P,J2,3,Pin_3*%
%TO.N,Row2*%
X99060000Y-59690000D03*
%TO.P,J2,4,Pin_4*%
%TO.N,Row3*%
X99060000Y-62230000D03*
%TO.P,J2,5,Pin_5*%
%TO.N,Row4*%
X99060000Y-64770000D03*
%TD*%
D10*
%TO.P,J3,1,Pin_1*%
%TO.N,Col1*%
X96520000Y-144145000D03*
D11*
%TO.P,J3,2,Pin_2*%
%TO.N,Row1*%
X99060000Y-144145000D03*
%TO.P,J3,3,Pin_3*%
%TO.N,Row2*%
X101600000Y-144145000D03*
%TO.P,J3,4,Pin_4*%
%TO.N,Row3*%
X104140000Y-144145000D03*
%TO.P,J3,5,Pin_5*%
%TO.N,Row4*%
X106680000Y-144145000D03*
%TD*%
D12*
%TO.P,SW1,1,1*%
%TO.N,Col1*%
X99060000Y-83820000D03*
%TO.P,SW1,2,2*%
%TO.N,Row1*%
X105410000Y-81280000D03*
%TD*%
D13*
%TO.N,Row1*%
X98298000Y-97536000D02*
X98298000Y-101092000D01*
X97485480Y-138988520D02*
X97485480Y-142570480D01*
X99822000Y-134309919D02*
X98806000Y-135325919D01*
X105410000Y-88138000D02*
X100711000Y-92837000D01*
X100711000Y-92837000D02*
X100711000Y-95123000D01*
X99664521Y-115346479D02*
X97917000Y-117094000D01*
X99664521Y-113523547D02*
X99664521Y-115346479D01*
X97917000Y-117094000D02*
X97917000Y-120939846D01*
X100711000Y-95123000D02*
X98298000Y-97536000D01*
X98806000Y-135325919D02*
X98806000Y-137668000D01*
X97282000Y-111141026D02*
X99664521Y-113523547D01*
X97485480Y-129997480D02*
X99822000Y-132334000D01*
X98806000Y-137668000D02*
X97485480Y-138988520D01*
X98298000Y-101092000D02*
X97282000Y-102108000D01*
X105410000Y-81280000D02*
X105410000Y-88138000D01*
X97485480Y-142570480D02*
X99060000Y-144145000D01*
X104140000Y-57150000D02*
X99060000Y-57150000D01*
X99822000Y-132334000D02*
X99822000Y-134309919D01*
X97485480Y-121371366D02*
X97485480Y-129997480D01*
X97917000Y-120939846D02*
X97485480Y-121371366D01*
X97282000Y-102108000D02*
X97282000Y-111141026D01*
%TO.N,Col1*%
X99060000Y-54610000D02*
X104140000Y-54610000D01*
%TO.N,Row2*%
X103974521Y-118275479D02*
X102108000Y-120142000D01*
X103974521Y-134906440D02*
X103974521Y-136873560D01*
X103974521Y-136873560D02*
X101600000Y-139248081D01*
X101600000Y-139248081D02*
X101600000Y-144145000D01*
X99060000Y-59690000D02*
X104140000Y-59690000D01*
X102265479Y-114147398D02*
X103974521Y-115856440D01*
X103974521Y-115856440D02*
X103974521Y-118275479D01*
X105410000Y-100330000D02*
X102265479Y-103474521D01*
X102108000Y-133039919D02*
X103974521Y-134906440D01*
X102108000Y-120142000D02*
X102108000Y-133039919D01*
X102265479Y-103474521D02*
X102265479Y-114147398D01*
%TO.N,Row3*%
X106014521Y-119984521D02*
X106014521Y-133253479D01*
X105410000Y-119380000D02*
X106014521Y-119984521D01*
X104424031Y-134843969D02*
X104424031Y-137059754D01*
X103290000Y-138193785D02*
X103290000Y-143295000D01*
X106014521Y-133253479D02*
X104424031Y-134843969D01*
X103290000Y-143295000D02*
X104140000Y-144145000D01*
X104424031Y-137059754D02*
X103290000Y-138193785D01*
X104140000Y-62230000D02*
X99060000Y-62230000D01*
%TO.N,Row4*%
X105410000Y-142875000D02*
X106680000Y-144145000D01*
X99060000Y-64770000D02*
X104140000Y-64770000D01*
X105410000Y-138430000D02*
X105410000Y-142875000D01*
%TD*%
M02*
