M48
; DRILL file {KiCad (6.0.1-0)} date 2022 January 31, Monday 23:33:03
; FORMAT={-:-/ absolute / inch / decimal}
; #@! TF.CreationDate,2022-01-31T23:33:03+08:00
; #@! TF.GenerationSoftware,Kicad,Pcbnew,(6.0.1-0)
; #@! TF.FileFunction,Plated,1,2,PTH
FMAT,2
INCH
; #@! TA.AperFunction,Plated,PTH,ComponentDrill
T1C0.0315
; #@! TA.AperFunction,Plated,PTH,ComponentDrill
T2C0.0394
%
G90
G05
T2
X3.8Y-5.675
X3.9Y-2.15
X3.9Y-2.25
X3.9Y-2.35
X3.9Y-2.45
X3.9Y-2.55
X3.9Y-5.675
X4.0Y-5.675
X4.1Y-2.15
X4.1Y-2.25
X4.1Y-2.35
X4.1Y-2.45
X4.1Y-2.55
X4.1Y-5.675
X4.2Y-5.675
T1
G00X3.9079Y-3.3
M15
G01X3.8921Y-3.3
M16
G05
G00X3.9079Y-4.05
M15
G01X3.8921Y-4.05
M16
G05
G00X3.9079Y-4.8
M15
G01X3.8921Y-4.8
M16
G05
G00X3.9079Y-5.55
M15
G01X3.8921Y-5.55
M16
G05
G00X4.1579Y-3.2
M15
G01X4.1421Y-3.2
M16
G05
G00X4.1579Y-3.95
M15
G01X4.1421Y-3.95
M16
G05
G00X4.1579Y-4.7
M15
G01X4.1421Y-4.7
M16
G05
G00X4.1579Y-5.45
M15
G01X4.1421Y-5.45
M16
G05
T0
M30
