%TF.GenerationSoftware,KiCad,Pcbnew,(6.0.1-0)*%
%TF.CreationDate,2022-02-06T12:01:47+08:00*%
%TF.ProjectId,Phalanx,5068616c-616e-4782-9e6b-696361645f70,rev?*%
%TF.SameCoordinates,Original*%
%TF.FileFunction,Legend,Bot*%
%TF.FilePolarity,Positive*%
%FSLAX46Y46*%
G04 Gerber Fmt 4.6, Leading zero omitted, Abs format (unit mm)*
G04 Created by KiCad (PCBNEW (6.0.1-0)) date 2022-02-06 12:01:47*
%MOMM*%
%LPD*%
G01*
G04 APERTURE LIST*
%ADD10C,0.150000*%
%ADD11C,0.120000*%
%ADD12R,1.700000X1.700000*%
%ADD13O,1.700000X1.700000*%
%ADD14C,1.900000*%
%ADD15C,4.000000*%
%ADD16C,3.000000*%
%ADD17R,2.550000X2.500000*%
%ADD18O,2.500000X2.000000*%
G04 APERTURE END LIST*
D10*
X106219047Y-51522380D02*
X106219047Y-52236666D01*
X106266666Y-52379523D01*
X106361904Y-52474761D01*
X106504761Y-52522380D01*
X106600000Y-52522380D01*
X105266666Y-52522380D02*
X105742857Y-52522380D01*
X105742857Y-51522380D01*
X104361904Y-52427142D02*
X104409523Y-52474761D01*
X104552380Y-52522380D01*
X104647619Y-52522380D01*
X104790476Y-52474761D01*
X104885714Y-52379523D01*
X104933333Y-52284285D01*
X104980952Y-52093809D01*
X104980952Y-51950952D01*
X104933333Y-51760476D01*
X104885714Y-51665238D01*
X104790476Y-51570000D01*
X104647619Y-51522380D01*
X104552380Y-51522380D01*
X104409523Y-51570000D01*
X104361904Y-51617619D01*
X103647619Y-51522380D02*
X103647619Y-52236666D01*
X103695238Y-52379523D01*
X103790476Y-52474761D01*
X103933333Y-52522380D01*
X104028571Y-52522380D01*
X102695238Y-52522380D02*
X103171428Y-52522380D01*
X103171428Y-51522380D01*
X101790476Y-52427142D02*
X101838095Y-52474761D01*
X101980952Y-52522380D01*
X102076190Y-52522380D01*
X102219047Y-52474761D01*
X102314285Y-52379523D01*
X102361904Y-52284285D01*
X102409523Y-52093809D01*
X102409523Y-51950952D01*
X102361904Y-51760476D01*
X102314285Y-51665238D01*
X102219047Y-51570000D01*
X102076190Y-51522380D01*
X101980952Y-51522380D01*
X101838095Y-51570000D01*
X101790476Y-51617619D01*
X101076190Y-51522380D02*
X101076190Y-52236666D01*
X101123809Y-52379523D01*
X101219047Y-52474761D01*
X101361904Y-52522380D01*
X101457142Y-52522380D01*
X100123809Y-52522380D02*
X100600000Y-52522380D01*
X100600000Y-51522380D01*
X99219047Y-52427142D02*
X99266666Y-52474761D01*
X99409523Y-52522380D01*
X99504761Y-52522380D01*
X99647619Y-52474761D01*
X99742857Y-52379523D01*
X99790476Y-52284285D01*
X99838095Y-52093809D01*
X99838095Y-51950952D01*
X99790476Y-51760476D01*
X99742857Y-51665238D01*
X99647619Y-51570000D01*
X99504761Y-51522380D01*
X99409523Y-51522380D01*
X99266666Y-51570000D01*
X99219047Y-51617619D01*
X98504761Y-51522380D02*
X98504761Y-52236666D01*
X98552380Y-52379523D01*
X98647619Y-52474761D01*
X98790476Y-52522380D01*
X98885714Y-52522380D01*
X97552380Y-52522380D02*
X98028571Y-52522380D01*
X98028571Y-51522380D01*
X96647619Y-52427142D02*
X96695238Y-52474761D01*
X96838095Y-52522380D01*
X96933333Y-52522380D01*
X97076190Y-52474761D01*
X97171428Y-52379523D01*
X97219047Y-52284285D01*
X97266666Y-52093809D01*
X97266666Y-51950952D01*
X97219047Y-51760476D01*
X97171428Y-51665238D01*
X97076190Y-51570000D01*
X96933333Y-51522380D01*
X96838095Y-51522380D01*
X96695238Y-51570000D01*
X96647619Y-51617619D01*
X105623809Y-68397380D02*
X105623809Y-67397380D01*
X105242857Y-67397380D01*
X105147619Y-67445000D01*
X105100000Y-67492619D01*
X105052380Y-67587857D01*
X105052380Y-67730714D01*
X105100000Y-67825952D01*
X105147619Y-67873571D01*
X105242857Y-67921190D01*
X105623809Y-67921190D01*
X104623809Y-68397380D02*
X104623809Y-67397380D01*
X104195238Y-68397380D02*
X104195238Y-67873571D01*
X104242857Y-67778333D01*
X104338095Y-67730714D01*
X104480952Y-67730714D01*
X104576190Y-67778333D01*
X104623809Y-67825952D01*
X103290476Y-68397380D02*
X103290476Y-67873571D01*
X103338095Y-67778333D01*
X103433333Y-67730714D01*
X103623809Y-67730714D01*
X103719047Y-67778333D01*
X103290476Y-68349761D02*
X103385714Y-68397380D01*
X103623809Y-68397380D01*
X103719047Y-68349761D01*
X103766666Y-68254523D01*
X103766666Y-68159285D01*
X103719047Y-68064047D01*
X103623809Y-68016428D01*
X103385714Y-68016428D01*
X103290476Y-67968809D01*
X102671428Y-68397380D02*
X102766666Y-68349761D01*
X102814285Y-68254523D01*
X102814285Y-67397380D01*
X101861904Y-68397380D02*
X101861904Y-67873571D01*
X101909523Y-67778333D01*
X102004761Y-67730714D01*
X102195238Y-67730714D01*
X102290476Y-67778333D01*
X101861904Y-68349761D02*
X101957142Y-68397380D01*
X102195238Y-68397380D01*
X102290476Y-68349761D01*
X102338095Y-68254523D01*
X102338095Y-68159285D01*
X102290476Y-68064047D01*
X102195238Y-68016428D01*
X101957142Y-68016428D01*
X101861904Y-67968809D01*
X101385714Y-67730714D02*
X101385714Y-68397380D01*
X101385714Y-67825952D02*
X101338095Y-67778333D01*
X101242857Y-67730714D01*
X101100000Y-67730714D01*
X101004761Y-67778333D01*
X100957142Y-67873571D01*
X100957142Y-68397380D01*
X100576190Y-68397380D02*
X100052380Y-67730714D01*
X100576190Y-67730714D02*
X100052380Y-68397380D01*
X99052380Y-67397380D02*
X98719047Y-68397380D01*
X98385714Y-67397380D01*
X97528571Y-68397380D02*
X98100000Y-68397380D01*
X97814285Y-68397380D02*
X97814285Y-67397380D01*
X97909523Y-67540238D01*
X98004761Y-67635476D01*
X98100000Y-67683095D01*
D11*
%TO.C,SW3*%
X97790000Y-110490000D02*
X102870000Y-110490000D01*
X101600000Y-113665000D02*
X105410000Y-113665000D01*
X97790000Y-110490000D02*
G75*
G03*
X95885000Y-112395000I1J-1905001D01*
G01*
X101600000Y-113665000D02*
G75*
G03*
X99695000Y-114300000I3J-3175009D01*
G01*
%TO.C,SW4*%
X101600000Y-132715000D02*
X105410000Y-132715000D01*
X97790000Y-129540000D02*
X102870000Y-129540000D01*
X97790000Y-129540000D02*
G75*
G03*
X95885000Y-131445000I1J-1905001D01*
G01*
X101600000Y-132715000D02*
G75*
G03*
X99695000Y-133350000I3J-3175009D01*
G01*
%TO.C,SW2*%
X101600000Y-94615000D02*
X105410000Y-94615000D01*
X97790000Y-91440000D02*
X102870000Y-91440000D01*
X97790000Y-91440000D02*
G75*
G03*
X95885000Y-93345000I1J-1905001D01*
G01*
X101600000Y-94615000D02*
G75*
G03*
X99695000Y-95250000I3J-3175009D01*
G01*
%TO.C,SW1*%
X97790000Y-72390000D02*
X102870000Y-72390000D01*
X101600000Y-75565000D02*
X105410000Y-75565000D01*
X101600000Y-75565000D02*
G75*
G03*
X99695000Y-76200000I3J-3175009D01*
G01*
X97790000Y-72390000D02*
G75*
G03*
X95885000Y-74295000I1J-1905001D01*
G01*
%TD*%
%LPC*%
D12*
%TO.C,J1*%
X104140000Y-54610000D03*
D13*
X104140000Y-57150000D03*
X104140000Y-59690000D03*
X104140000Y-62230000D03*
X104140000Y-64770000D03*
%TD*%
D14*
%TO.C,SW3*%
X106680000Y-116840000D03*
D15*
X101600000Y-116840000D03*
D14*
X96520000Y-116840000D03*
D16*
X104140000Y-111760000D03*
X97790000Y-114300000D03*
D17*
X94515000Y-114300000D03*
D18*
X99060000Y-121920000D03*
D17*
X107442000Y-111760000D03*
D18*
X105410000Y-119380000D03*
%TD*%
D14*
%TO.C,SW4*%
X96520000Y-135890000D03*
D15*
X101600000Y-135890000D03*
D16*
X104140000Y-130810000D03*
D14*
X106680000Y-135890000D03*
D16*
X97790000Y-133350000D03*
D17*
X94515000Y-133350000D03*
D18*
X99060000Y-140970000D03*
X105410000Y-138430000D03*
D17*
X107442000Y-130810000D03*
%TD*%
D14*
%TO.C,SW2*%
X96520000Y-97790000D03*
X106680000Y-97790000D03*
D15*
X101600000Y-97790000D03*
D16*
X104140000Y-92710000D03*
X97790000Y-95250000D03*
D17*
X94515000Y-95250000D03*
D18*
X99060000Y-102870000D03*
X105410000Y-100330000D03*
D17*
X107442000Y-92710000D03*
%TD*%
D12*
%TO.C,J2*%
X99060000Y-54610000D03*
D13*
X99060000Y-57150000D03*
X99060000Y-59690000D03*
X99060000Y-62230000D03*
X99060000Y-64770000D03*
%TD*%
D12*
%TO.C,J3*%
X96520000Y-144145000D03*
D13*
X99060000Y-144145000D03*
X101600000Y-144145000D03*
X104140000Y-144145000D03*
X106680000Y-144145000D03*
%TD*%
D14*
%TO.C,SW1*%
X96520000Y-78740000D03*
D16*
X97790000Y-76200000D03*
D15*
X101600000Y-78740000D03*
D16*
X104140000Y-73660000D03*
D14*
X106680000Y-78740000D03*
D18*
X99060000Y-83820000D03*
D17*
X94515000Y-76200000D03*
D18*
X105410000Y-81280000D03*
D17*
X107442000Y-73660000D03*
%TD*%
M02*
