%TF.GenerationSoftware,KiCad,Pcbnew,(6.0.1-0)*%
%TF.CreationDate,2022-02-06T12:01:48+08:00*%
%TF.ProjectId,Phalanx,5068616c-616e-4782-9e6b-696361645f70,rev?*%
%TF.SameCoordinates,Original*%
%TF.FileFunction,Profile,NP*%
%FSLAX46Y46*%
G04 Gerber Fmt 4.6, Leading zero omitted, Abs format (unit mm)*
G04 Created by KiCad (PCBNEW (6.0.1-0)) date 2022-02-06 12:01:48*
%MOMM*%
%LPD*%
G01*
G04 APERTURE LIST*
%TA.AperFunction,Profile*%
%ADD10C,0.100000*%
%TD*%
G04 APERTURE END LIST*
D10*
X111125000Y-109855000D02*
G75*
G03*
X109855000Y-108585000I-1269999J1D01*
G01*
X93345000Y-127635000D02*
G75*
G03*
X93345000Y-125095000I0J1270000D01*
G01*
X111125000Y-104775000D02*
X111125000Y-90805000D01*
X92075000Y-144145000D02*
G75*
G03*
X93345000Y-145415000I1269999J-1D01*
G01*
X111125000Y-85725000D02*
X111125000Y-70485000D01*
X109855000Y-106045000D02*
G75*
G03*
X109855000Y-108585000I0J-1270000D01*
G01*
X111125000Y-70485000D02*
G75*
G03*
X109855000Y-69215000I-1269999J1D01*
G01*
X93345000Y-108585000D02*
G75*
G03*
X92075000Y-109855000I-1J-1269999D01*
G01*
X93345000Y-89535000D02*
G75*
G03*
X92075000Y-90805000I-1J-1269999D01*
G01*
X108585000Y-67945000D02*
G75*
G03*
X109855000Y-69215000I1269999J-1D01*
G01*
X107315000Y-50165000D02*
X95885000Y-50165000D01*
X92075000Y-85725000D02*
G75*
G03*
X93345000Y-86995000I1269999J-1D01*
G01*
X109855000Y-86995000D02*
G75*
G03*
X111125000Y-85725000I1J1269999D01*
G01*
X92075000Y-123825000D02*
G75*
G03*
X93345000Y-125095000I1269999J-1D01*
G01*
X109855000Y-106045000D02*
G75*
G03*
X111125000Y-104775000I1J1269999D01*
G01*
X111125000Y-123825000D02*
X111125000Y-109855000D01*
X109855000Y-125095000D02*
G75*
G03*
X109855000Y-127635000I0J-1270000D01*
G01*
X93345000Y-108585000D02*
G75*
G03*
X93345000Y-106045000I0J1270000D01*
G01*
X111125000Y-90805000D02*
G75*
G03*
X109855000Y-89535000I-1269999J1D01*
G01*
X108585000Y-51435000D02*
G75*
G03*
X107315000Y-50165000I-1269999J1D01*
G01*
X95885000Y-50165000D02*
G75*
G03*
X94615000Y-51435000I-1J-1269999D01*
G01*
X92075000Y-90805000D02*
X92075000Y-104775000D01*
X93345000Y-69215000D02*
G75*
G03*
X92075000Y-70485000I-1J-1269999D01*
G01*
X93345000Y-127635000D02*
G75*
G03*
X92075000Y-128905000I-1J-1269999D01*
G01*
X92075000Y-109855000D02*
X92075000Y-123825000D01*
X109855000Y-145415000D02*
G75*
G03*
X111125000Y-144145000I1J1269999D01*
G01*
X93345000Y-69215000D02*
G75*
G03*
X94615000Y-67945000I1J1269999D01*
G01*
X92075000Y-128905000D02*
X92075000Y-144145000D01*
X111125000Y-128905000D02*
G75*
G03*
X109855000Y-127635000I-1269999J1D01*
G01*
X93345000Y-145415000D02*
X109855000Y-145415000D01*
X92075000Y-104775000D02*
G75*
G03*
X93345000Y-106045000I1269999J-1D01*
G01*
X109855000Y-125095000D02*
G75*
G03*
X111125000Y-123825000I1J1269999D01*
G01*
X109855000Y-86995000D02*
G75*
G03*
X109855000Y-89535000I0J-1270000D01*
G01*
X94615000Y-51435000D02*
X94615000Y-67945000D01*
X93345000Y-89535000D02*
G75*
G03*
X93345000Y-86995000I0J1270000D01*
G01*
X111125000Y-144145000D02*
X111125000Y-128905000D01*
X108585000Y-67945000D02*
X108585000Y-51435000D01*
X92075000Y-70485000D02*
X92075000Y-85725000D01*
M02*
