M48
; DRILL file {KiCad (6.0.4-0)} date 2022 March 28, Monday 13:48:53
; FORMAT={-:-/ absolute / metric / decimal}
; #@! TF.CreationDate,2022-03-28T13:48:53+08:00
; #@! TF.GenerationSoftware,Kicad,Pcbnew,(6.0.4-0)
; #@! TF.FileFunction,NonPlated,1,2,NPTH
FMAT,2
METRIC
; #@! TA.AperFunction,NonPlated,NPTH,ComponentDrill
T1C0.800
; #@! TA.AperFunction,NonPlated,NPTH,ComponentDrill
T2C1.900
; #@! TA.AperFunction,NonPlated,NPTH,ComponentDrill
T3C3.000
; #@! TA.AperFunction,NonPlated,NPTH,ComponentDrill
T4C4.000
%
G90
G05
T1
X96.52Y-126.365
X99.06Y-126.365
X101.6Y-126.365
X104.14Y-126.365
X106.68Y-126.365
T2
X96.52Y-78.74
X96.52Y-97.79
X96.52Y-116.84
X96.52Y-135.89
X106.68Y-78.74
X106.68Y-97.79
X106.68Y-116.84
X106.68Y-135.89
T3
X97.79Y-76.2
X97.79Y-95.25
X97.79Y-114.3
X97.79Y-133.35
X104.14Y-73.66
X104.14Y-92.71
X104.14Y-111.76
X104.14Y-130.81
T4
X101.6Y-78.74
X101.6Y-97.79
X101.6Y-116.84
X101.6Y-135.89
T0
M30
