%FSLAX45Y45*%
G04 Gerber Fmt 4.5, Leading zero omitted, Abs format (unit mm)*
G04 Created by KiCad (PCBNEW (6.0.4-0)) date 2022-03-28 13:48:54*
%MOMM*%
%LPD*%
G01*
G04 APERTURE LIST*
%TA.AperFunction,Profile*%
%ADD10C,0.100000*%
%TD*%
%ADD11C,0.200000*%
%ADD12C,0.080000*%
%ADD13C,0.100000*%
G04 APERTURE END LIST*
D10*
X11099795Y-10985499D02*
G75*
G03*
X10985500Y-10858500I-114295J12069D01*
G01*
X9334500Y-12763500D02*
G75*
G03*
X9334500Y-12509500I0J127000D01*
G01*
X11099800Y-10490200D02*
X11099800Y-9067800D01*
X9220200Y-14414500D02*
G75*
G03*
X9347200Y-14541500I127000J0D01*
G01*
X11099800Y-8585200D02*
X11098897Y-7048500D01*
X10985500Y-10604500D02*
G75*
G03*
X10985500Y-10858500I0J-127000D01*
G01*
X9220200Y-8585200D02*
G75*
G03*
X9334500Y-8699500I114300J0D01*
G01*
X11098900Y-7048500D02*
G75*
G03*
X10971897Y-6921500I-127000J0D01*
G01*
X9334500Y-10858500D02*
G75*
G03*
X9220200Y-10972800I0J-114300D01*
G01*
X9334500Y-8953500D02*
G75*
G03*
X9220200Y-9067800I0J-114300D01*
G01*
X10858504Y-6794500D02*
G75*
G03*
X10971897Y-6921500I127816J0D01*
G01*
X10731500Y-5016500D02*
X9588500Y-5016500D01*
X10985500Y-8699500D02*
G75*
G03*
X11099800Y-8585200I0J114300D01*
G01*
X9220200Y-12395200D02*
G75*
G03*
X9334500Y-12509500I103390J-10910D01*
G01*
X10985500Y-10604500D02*
G75*
G03*
X11099800Y-10490200I0J114300D01*
G01*
X11099800Y-12395200D02*
X11099800Y-10985500D01*
X10985500Y-12509500D02*
G75*
G03*
X10985500Y-12763500I0J-127000D01*
G01*
X9334500Y-10858500D02*
G75*
G03*
X9334500Y-10604500I0J127000D01*
G01*
X11099800Y-9067800D02*
G75*
G03*
X10985500Y-8953500I-114300J0D01*
G01*
X10858500Y-5143500D02*
G75*
G03*
X10731500Y-5016500I-127000J0D01*
G01*
X9588500Y-5016500D02*
G75*
G03*
X9461500Y-5143500I0J-127000D01*
G01*
X9220200Y-9067800D02*
X9220200Y-10490200D01*
X9348103Y-6922407D02*
G75*
G03*
X9220200Y-7048500I-3J-127913D01*
G01*
X9334500Y-12763500D02*
G75*
G03*
X9220200Y-12877800I0J-114300D01*
G01*
X9220200Y-10972800D02*
X9220200Y-12395200D01*
X10971897Y-14541493D02*
G75*
G03*
X11099800Y-14414500I3J127903D01*
G01*
X9348103Y-6922402D02*
G75*
G03*
X9461500Y-6794500I-15433J127902D01*
G01*
X9220200Y-12877800D02*
X9220200Y-14414500D01*
X11099800Y-12877800D02*
G75*
G03*
X10985500Y-12763500I-114300J0D01*
G01*
X9347200Y-14541500D02*
X10971897Y-14541500D01*
X9220200Y-10490200D02*
G75*
G03*
X9334500Y-10604500I114350J50D01*
G01*
X10985500Y-12509500D02*
G75*
G03*
X11099800Y-12395200I0J114300D01*
G01*
X10985500Y-8699500D02*
G75*
G03*
X10985500Y-8953500I0J-127000D01*
G01*
X9461500Y-5143500D02*
X9461500Y-6794500D01*
X9334500Y-8953500D02*
G75*
G03*
X9334500Y-8699500I0J127000D01*
G01*
X11099800Y-14414500D02*
X11099800Y-12877800D01*
X10858500Y-6794500D02*
X10858500Y-5143500D01*
X9220200Y-7048500D02*
X9220200Y-8585200D01*
D11*
D12*
X9866000Y-8342000D02*
X9946000Y-8422000D01*
X9946000Y-8342000D02*
X9866000Y-8422000D01*
D11*
X9926000Y-8352000D02*
X9886000Y-8352000D01*
X9926000Y-8412000D02*
X9886000Y-8412000D01*
X9886000Y-8352000D02*
G75*
G03*
X9886000Y-8412000I0J-30000D01*
G01*
X9926000Y-8412000D02*
G75*
G03*
X9926000Y-8352000I0J30000D01*
G01*
D12*
X9866000Y-10247000D02*
X9946000Y-10327000D01*
X9946000Y-10247000D02*
X9866000Y-10327000D01*
D11*
X9926000Y-10257000D02*
X9886000Y-10257000D01*
X9926000Y-10317000D02*
X9886000Y-10317000D01*
X9886000Y-10257000D02*
G75*
G03*
X9886000Y-10317000I0J-30000D01*
G01*
X9926000Y-10317000D02*
G75*
G03*
X9926000Y-10257000I0J30000D01*
G01*
D12*
X9866000Y-12152000D02*
X9946000Y-12232000D01*
X9946000Y-12152000D02*
X9866000Y-12232000D01*
D11*
X9926000Y-12162000D02*
X9886000Y-12162000D01*
X9926000Y-12222000D02*
X9886000Y-12222000D01*
X9886000Y-12162000D02*
G75*
G03*
X9886000Y-12222000I0J-30000D01*
G01*
X9926000Y-12222000D02*
G75*
G03*
X9926000Y-12162000I0J30000D01*
G01*
D12*
X9866000Y-14057000D02*
X9946000Y-14137000D01*
X9946000Y-14057000D02*
X9866000Y-14137000D01*
D11*
X9926000Y-14067000D02*
X9886000Y-14067000D01*
X9926000Y-14127000D02*
X9886000Y-14127000D01*
X9886000Y-14067000D02*
G75*
G03*
X9886000Y-14127000I0J-30000D01*
G01*
X9926000Y-14127000D02*
G75*
G03*
X9926000Y-14067000I0J30000D01*
G01*
D12*
X10501000Y-8088000D02*
X10581000Y-8168000D01*
X10581000Y-8088000D02*
X10501000Y-8168000D01*
D11*
X10561000Y-8098000D02*
X10521000Y-8098000D01*
X10561000Y-8158000D02*
X10521000Y-8158000D01*
X10521000Y-8098000D02*
G75*
G03*
X10521000Y-8158000I0J-30000D01*
G01*
X10561000Y-8158000D02*
G75*
G03*
X10561000Y-8098000I0J30000D01*
G01*
D12*
X10501000Y-9993000D02*
X10581000Y-10073000D01*
X10581000Y-9993000D02*
X10501000Y-10073000D01*
D11*
X10561000Y-10003000D02*
X10521000Y-10003000D01*
X10561000Y-10063000D02*
X10521000Y-10063000D01*
X10521000Y-10003000D02*
G75*
G03*
X10521000Y-10063000I0J-30000D01*
G01*
X10561000Y-10063000D02*
G75*
G03*
X10561000Y-10003000I0J30000D01*
G01*
D12*
X10501000Y-11898000D02*
X10581000Y-11978000D01*
X10581000Y-11898000D02*
X10501000Y-11978000D01*
D11*
X10561000Y-11908000D02*
X10521000Y-11908000D01*
X10561000Y-11968000D02*
X10521000Y-11968000D01*
X10521000Y-11908000D02*
G75*
G03*
X10521000Y-11968000I0J-30000D01*
G01*
X10561000Y-11968000D02*
G75*
G03*
X10561000Y-11908000I0J30000D01*
G01*
D12*
X10501000Y-13803000D02*
X10581000Y-13883000D01*
X10581000Y-13803000D02*
X10501000Y-13883000D01*
D11*
X10561000Y-13813000D02*
X10521000Y-13813000D01*
X10561000Y-13873000D02*
X10521000Y-13873000D01*
X10521000Y-13813000D02*
G75*
G03*
X10521000Y-13873000I0J-30000D01*
G01*
X10561000Y-13873000D02*
G75*
G03*
X10561000Y-13813000I0J30000D01*
G01*
D13*
X9702000Y-14414500D02*
G75*
G03*
X9702000Y-14414500I-50000J0D01*
G01*
X9956000Y-5461000D02*
G75*
G03*
X9956000Y-5461000I-50000J0D01*
G01*
X9956000Y-5715000D02*
G75*
G03*
X9956000Y-5715000I-50000J0D01*
G01*
X9956000Y-5969000D02*
G75*
G03*
X9956000Y-5969000I-50000J0D01*
G01*
X9956000Y-6223000D02*
G75*
G03*
X9956000Y-6223000I-50000J0D01*
G01*
X9956000Y-6477000D02*
G75*
G03*
X9956000Y-6477000I-50000J0D01*
G01*
X9956000Y-14414500D02*
G75*
G03*
X9956000Y-14414500I-50000J0D01*
G01*
X10210000Y-14414500D02*
G75*
G03*
X10210000Y-14414500I-50000J0D01*
G01*
X10464000Y-5461000D02*
G75*
G03*
X10464000Y-5461000I-50000J0D01*
G01*
X10464000Y-5715000D02*
G75*
G03*
X10464000Y-5715000I-50000J0D01*
G01*
X10464000Y-5969000D02*
G75*
G03*
X10464000Y-5969000I-50000J0D01*
G01*
X10464000Y-6223000D02*
G75*
G03*
X10464000Y-6223000I-50000J0D01*
G01*
X10464000Y-6477000D02*
G75*
G03*
X10464000Y-6477000I-50000J0D01*
G01*
X10464000Y-14414500D02*
G75*
G03*
X10464000Y-14414500I-50000J0D01*
G01*
X10718000Y-14414500D02*
G75*
G03*
X10718000Y-14414500I-50000J0D01*
G01*
D11*
X9472245Y-14856976D02*
X9472245Y-14656976D01*
X9519864Y-14656976D01*
X9548436Y-14666500D01*
X9567483Y-14685548D01*
X9577007Y-14704595D01*
X9586531Y-14742690D01*
X9586531Y-14771262D01*
X9577007Y-14809357D01*
X9567483Y-14828405D01*
X9548436Y-14847452D01*
X9519864Y-14856976D01*
X9472245Y-14856976D01*
X9672245Y-14856976D02*
X9672245Y-14723643D01*
X9672245Y-14761738D02*
X9681769Y-14742690D01*
X9691293Y-14733167D01*
X9710340Y-14723643D01*
X9729388Y-14723643D01*
X9796055Y-14856976D02*
X9796055Y-14723643D01*
X9796055Y-14656976D02*
X9786531Y-14666500D01*
X9796055Y-14676024D01*
X9805578Y-14666500D01*
X9796055Y-14656976D01*
X9796055Y-14676024D01*
X9919864Y-14856976D02*
X9900816Y-14847452D01*
X9891293Y-14828405D01*
X9891293Y-14656976D01*
X10024626Y-14856976D02*
X10005578Y-14847452D01*
X9996055Y-14828405D01*
X9996055Y-14656976D01*
X10253197Y-14856976D02*
X10253197Y-14656976D01*
X10319864Y-14799833D01*
X10386531Y-14656976D01*
X10386531Y-14856976D01*
X10567483Y-14856976D02*
X10567483Y-14752214D01*
X10557959Y-14733167D01*
X10538912Y-14723643D01*
X10500816Y-14723643D01*
X10481769Y-14733167D01*
X10567483Y-14847452D02*
X10548436Y-14856976D01*
X10500816Y-14856976D01*
X10481769Y-14847452D01*
X10472245Y-14828405D01*
X10472245Y-14809357D01*
X10481769Y-14790309D01*
X10500816Y-14780786D01*
X10548436Y-14780786D01*
X10567483Y-14771262D01*
X10662721Y-14723643D02*
X10662721Y-14923643D01*
X10662721Y-14733167D02*
X10681769Y-14723643D01*
X10719864Y-14723643D01*
X10738912Y-14733167D01*
X10748436Y-14742690D01*
X10757959Y-14761738D01*
X10757959Y-14818881D01*
X10748436Y-14837928D01*
X10738912Y-14847452D01*
X10719864Y-14856976D01*
X10681769Y-14856976D01*
X10662721Y-14847452D01*
X10843674Y-14837928D02*
X10853197Y-14847452D01*
X10843674Y-14856976D01*
X10834150Y-14847452D01*
X10843674Y-14837928D01*
X10843674Y-14856976D01*
X10843674Y-14733167D02*
X10853197Y-14742690D01*
X10843674Y-14752214D01*
X10834150Y-14742690D01*
X10843674Y-14733167D01*
X10843674Y-14752214D01*
D12*
X9134626Y-15146500D02*
X9214626Y-15226500D01*
X9214626Y-15146500D02*
X9134626Y-15226500D01*
D11*
X9510340Y-15076976D02*
X9529388Y-15076976D01*
X9548436Y-15086500D01*
X9557959Y-15096024D01*
X9567483Y-15115071D01*
X9577007Y-15153167D01*
X9577007Y-15200786D01*
X9567483Y-15238881D01*
X9557959Y-15257928D01*
X9548436Y-15267452D01*
X9529388Y-15276976D01*
X9510340Y-15276976D01*
X9491293Y-15267452D01*
X9481769Y-15257928D01*
X9472245Y-15238881D01*
X9462721Y-15200786D01*
X9462721Y-15153167D01*
X9472245Y-15115071D01*
X9481769Y-15096024D01*
X9491293Y-15086500D01*
X9510340Y-15076976D01*
X9662721Y-15257928D02*
X9672245Y-15267452D01*
X9662721Y-15276976D01*
X9653197Y-15267452D01*
X9662721Y-15257928D01*
X9662721Y-15276976D01*
X9786531Y-15162690D02*
X9767483Y-15153167D01*
X9757959Y-15143643D01*
X9748436Y-15124595D01*
X9748436Y-15115071D01*
X9757959Y-15096024D01*
X9767483Y-15086500D01*
X9786531Y-15076976D01*
X9824626Y-15076976D01*
X9843674Y-15086500D01*
X9853197Y-15096024D01*
X9862721Y-15115071D01*
X9862721Y-15124595D01*
X9853197Y-15143643D01*
X9843674Y-15153167D01*
X9824626Y-15162690D01*
X9786531Y-15162690D01*
X9767483Y-15172214D01*
X9757959Y-15181738D01*
X9748436Y-15200786D01*
X9748436Y-15238881D01*
X9757959Y-15257928D01*
X9767483Y-15267452D01*
X9786531Y-15276976D01*
X9824626Y-15276976D01*
X9843674Y-15267452D01*
X9853197Y-15257928D01*
X9862721Y-15238881D01*
X9862721Y-15200786D01*
X9853197Y-15181738D01*
X9843674Y-15172214D01*
X9824626Y-15162690D01*
X9986531Y-15076976D02*
X10005578Y-15076976D01*
X10024626Y-15086500D01*
X10034150Y-15096024D01*
X10043674Y-15115071D01*
X10053197Y-15153167D01*
X10053197Y-15200786D01*
X10043674Y-15238881D01*
X10034150Y-15257928D01*
X10024626Y-15267452D01*
X10005578Y-15276976D01*
X9986531Y-15276976D01*
X9967483Y-15267452D01*
X9957959Y-15257928D01*
X9948436Y-15238881D01*
X9938912Y-15200786D01*
X9938912Y-15153167D01*
X9948436Y-15115071D01*
X9957959Y-15096024D01*
X9967483Y-15086500D01*
X9986531Y-15076976D01*
X10177007Y-15076976D02*
X10196055Y-15076976D01*
X10215102Y-15086500D01*
X10224626Y-15096024D01*
X10234150Y-15115071D01*
X10243674Y-15153167D01*
X10243674Y-15200786D01*
X10234150Y-15238881D01*
X10224626Y-15257928D01*
X10215102Y-15267452D01*
X10196055Y-15276976D01*
X10177007Y-15276976D01*
X10157959Y-15267452D01*
X10148436Y-15257928D01*
X10138912Y-15238881D01*
X10129388Y-15200786D01*
X10129388Y-15153167D01*
X10138912Y-15115071D01*
X10148436Y-15096024D01*
X10157959Y-15086500D01*
X10177007Y-15076976D01*
X10329388Y-15276976D02*
X10329388Y-15143643D01*
X10329388Y-15162690D02*
X10338912Y-15153167D01*
X10357959Y-15143643D01*
X10386531Y-15143643D01*
X10405578Y-15153167D01*
X10415102Y-15172214D01*
X10415102Y-15276976D01*
X10415102Y-15172214D02*
X10424626Y-15153167D01*
X10443674Y-15143643D01*
X10472245Y-15143643D01*
X10491293Y-15153167D01*
X10500816Y-15172214D01*
X10500816Y-15276976D01*
X10596055Y-15276976D02*
X10596055Y-15143643D01*
X10596055Y-15162690D02*
X10605578Y-15153167D01*
X10624626Y-15143643D01*
X10653197Y-15143643D01*
X10672245Y-15153167D01*
X10681769Y-15172214D01*
X10681769Y-15276976D01*
X10681769Y-15172214D02*
X10691293Y-15153167D01*
X10710340Y-15143643D01*
X10738912Y-15143643D01*
X10757959Y-15153167D01*
X10767483Y-15172214D01*
X10767483Y-15276976D01*
X11157959Y-15067452D02*
X10986531Y-15324595D01*
X11415102Y-15076976D02*
X11434150Y-15076976D01*
X11453197Y-15086500D01*
X11462721Y-15096024D01*
X11472245Y-15115071D01*
X11481769Y-15153167D01*
X11481769Y-15200786D01*
X11472245Y-15238881D01*
X11462721Y-15257928D01*
X11453197Y-15267452D01*
X11434150Y-15276976D01*
X11415102Y-15276976D01*
X11396054Y-15267452D01*
X11386531Y-15257928D01*
X11377007Y-15238881D01*
X11367483Y-15200786D01*
X11367483Y-15153167D01*
X11377007Y-15115071D01*
X11386531Y-15096024D01*
X11396054Y-15086500D01*
X11415102Y-15076976D01*
X11567483Y-15257928D02*
X11577007Y-15267452D01*
X11567483Y-15276976D01*
X11557959Y-15267452D01*
X11567483Y-15257928D01*
X11567483Y-15276976D01*
X11700816Y-15076976D02*
X11719864Y-15076976D01*
X11738912Y-15086500D01*
X11748435Y-15096024D01*
X11757959Y-15115071D01*
X11767483Y-15153167D01*
X11767483Y-15200786D01*
X11757959Y-15238881D01*
X11748435Y-15257928D01*
X11738912Y-15267452D01*
X11719864Y-15276976D01*
X11700816Y-15276976D01*
X11681769Y-15267452D01*
X11672245Y-15257928D01*
X11662721Y-15238881D01*
X11653197Y-15200786D01*
X11653197Y-15153167D01*
X11662721Y-15115071D01*
X11672245Y-15096024D01*
X11681769Y-15086500D01*
X11700816Y-15076976D01*
X11834150Y-15076976D02*
X11957959Y-15076976D01*
X11891293Y-15153167D01*
X11919864Y-15153167D01*
X11938912Y-15162690D01*
X11948435Y-15172214D01*
X11957959Y-15191262D01*
X11957959Y-15238881D01*
X11948435Y-15257928D01*
X11938912Y-15267452D01*
X11919864Y-15276976D01*
X11862721Y-15276976D01*
X11843674Y-15267452D01*
X11834150Y-15257928D01*
X12148435Y-15276976D02*
X12034150Y-15276976D01*
X12091293Y-15276976D02*
X12091293Y-15076976D01*
X12072245Y-15105548D01*
X12053197Y-15124595D01*
X12034150Y-15134119D01*
X12329388Y-15076976D02*
X12234150Y-15076976D01*
X12224626Y-15172214D01*
X12234150Y-15162690D01*
X12253197Y-15153167D01*
X12300816Y-15153167D01*
X12319864Y-15162690D01*
X12329388Y-15172214D01*
X12338912Y-15191262D01*
X12338912Y-15238881D01*
X12329388Y-15257928D01*
X12319864Y-15267452D01*
X12300816Y-15276976D01*
X12253197Y-15276976D01*
X12234150Y-15267452D01*
X12224626Y-15257928D01*
X12415102Y-15076976D02*
X12415102Y-15115071D01*
X12491293Y-15076976D02*
X12491293Y-15115071D01*
X12786531Y-15353167D02*
X12777007Y-15343643D01*
X12757959Y-15315071D01*
X12748435Y-15296024D01*
X12738912Y-15267452D01*
X12729388Y-15219833D01*
X12729388Y-15181738D01*
X12738912Y-15134119D01*
X12748435Y-15105548D01*
X12757959Y-15086500D01*
X12777007Y-15057928D01*
X12786531Y-15048405D01*
X12900816Y-15076976D02*
X12919864Y-15076976D01*
X12938912Y-15086500D01*
X12948435Y-15096024D01*
X12957959Y-15115071D01*
X12967483Y-15153167D01*
X12967483Y-15200786D01*
X12957959Y-15238881D01*
X12948435Y-15257928D01*
X12938912Y-15267452D01*
X12919864Y-15276976D01*
X12900816Y-15276976D01*
X12881769Y-15267452D01*
X12872245Y-15257928D01*
X12862721Y-15238881D01*
X12853197Y-15200786D01*
X12853197Y-15153167D01*
X12862721Y-15115071D01*
X12872245Y-15096024D01*
X12881769Y-15086500D01*
X12900816Y-15076976D01*
X13205578Y-15276976D02*
X13205578Y-15076976D01*
X13291293Y-15276976D02*
X13291293Y-15172214D01*
X13281769Y-15153167D01*
X13262721Y-15143643D01*
X13234150Y-15143643D01*
X13215102Y-15153167D01*
X13205578Y-15162690D01*
X13415102Y-15276976D02*
X13396054Y-15267452D01*
X13386531Y-15257928D01*
X13377007Y-15238881D01*
X13377007Y-15181738D01*
X13386531Y-15162690D01*
X13396054Y-15153167D01*
X13415102Y-15143643D01*
X13443674Y-15143643D01*
X13462721Y-15153167D01*
X13472245Y-15162690D01*
X13481769Y-15181738D01*
X13481769Y-15238881D01*
X13472245Y-15257928D01*
X13462721Y-15267452D01*
X13443674Y-15276976D01*
X13415102Y-15276976D01*
X13596054Y-15276976D02*
X13577007Y-15267452D01*
X13567483Y-15248405D01*
X13567483Y-15076976D01*
X13748435Y-15267452D02*
X13729388Y-15276976D01*
X13691293Y-15276976D01*
X13672245Y-15267452D01*
X13662721Y-15248405D01*
X13662721Y-15172214D01*
X13672245Y-15153167D01*
X13691293Y-15143643D01*
X13729388Y-15143643D01*
X13748435Y-15153167D01*
X13757959Y-15172214D01*
X13757959Y-15191262D01*
X13662721Y-15210309D01*
X13834150Y-15267452D02*
X13853197Y-15276976D01*
X13891293Y-15276976D01*
X13910340Y-15267452D01*
X13919864Y-15248405D01*
X13919864Y-15238881D01*
X13910340Y-15219833D01*
X13891293Y-15210309D01*
X13862721Y-15210309D01*
X13843674Y-15200786D01*
X13834150Y-15181738D01*
X13834150Y-15172214D01*
X13843674Y-15153167D01*
X13862721Y-15143643D01*
X13891293Y-15143643D01*
X13910340Y-15153167D01*
X14157959Y-15200786D02*
X14310340Y-15200786D01*
X14234150Y-15276976D02*
X14234150Y-15124595D01*
X14586531Y-15162690D02*
X14567483Y-15153167D01*
X14557959Y-15143643D01*
X14548435Y-15124595D01*
X14548435Y-15115071D01*
X14557959Y-15096024D01*
X14567483Y-15086500D01*
X14586531Y-15076976D01*
X14624626Y-15076976D01*
X14643674Y-15086500D01*
X14653197Y-15096024D01*
X14662721Y-15115071D01*
X14662721Y-15124595D01*
X14653197Y-15143643D01*
X14643674Y-15153167D01*
X14624626Y-15162690D01*
X14586531Y-15162690D01*
X14567483Y-15172214D01*
X14557959Y-15181738D01*
X14548435Y-15200786D01*
X14548435Y-15238881D01*
X14557959Y-15257928D01*
X14567483Y-15267452D01*
X14586531Y-15276976D01*
X14624626Y-15276976D01*
X14643674Y-15267452D01*
X14653197Y-15257928D01*
X14662721Y-15238881D01*
X14662721Y-15200786D01*
X14653197Y-15181738D01*
X14643674Y-15172214D01*
X14624626Y-15162690D01*
X14891293Y-15267452D02*
X14910340Y-15276976D01*
X14948435Y-15276976D01*
X14967483Y-15267452D01*
X14977007Y-15248405D01*
X14977007Y-15238881D01*
X14967483Y-15219833D01*
X14948435Y-15210309D01*
X14919864Y-15210309D01*
X14900816Y-15200786D01*
X14891293Y-15181738D01*
X14891293Y-15172214D01*
X14900816Y-15153167D01*
X14919864Y-15143643D01*
X14948435Y-15143643D01*
X14967483Y-15153167D01*
X15091293Y-15276976D02*
X15072245Y-15267452D01*
X15062721Y-15248405D01*
X15062721Y-15076976D01*
X15196054Y-15276976D02*
X15177007Y-15267452D01*
X15167483Y-15257928D01*
X15157959Y-15238881D01*
X15157959Y-15181738D01*
X15167483Y-15162690D01*
X15177007Y-15153167D01*
X15196054Y-15143643D01*
X15224626Y-15143643D01*
X15243674Y-15153167D01*
X15253197Y-15162690D01*
X15262721Y-15181738D01*
X15262721Y-15238881D01*
X15253197Y-15257928D01*
X15243674Y-15267452D01*
X15224626Y-15276976D01*
X15196054Y-15276976D01*
X15319864Y-15143643D02*
X15396054Y-15143643D01*
X15348435Y-15076976D02*
X15348435Y-15248405D01*
X15357959Y-15267452D01*
X15377007Y-15276976D01*
X15396054Y-15276976D01*
X15453197Y-15267452D02*
X15472245Y-15276976D01*
X15510340Y-15276976D01*
X15529388Y-15267452D01*
X15538912Y-15248405D01*
X15538912Y-15238881D01*
X15529388Y-15219833D01*
X15510340Y-15210309D01*
X15481769Y-15210309D01*
X15462721Y-15200786D01*
X15453197Y-15181738D01*
X15453197Y-15172214D01*
X15462721Y-15153167D01*
X15481769Y-15143643D01*
X15510340Y-15143643D01*
X15529388Y-15153167D01*
X15605578Y-15353167D02*
X15615102Y-15343643D01*
X15634150Y-15315071D01*
X15643674Y-15296024D01*
X15653197Y-15267452D01*
X15662721Y-15219833D01*
X15662721Y-15181738D01*
X15653197Y-15134119D01*
X15643674Y-15105548D01*
X15634150Y-15086500D01*
X15615102Y-15057928D01*
X15605578Y-15048405D01*
D13*
X9214626Y-15450500D02*
G75*
G03*
X9214626Y-15450500I-50000J0D01*
G01*
D11*
X9577007Y-15540976D02*
X9462721Y-15540976D01*
X9519864Y-15540976D02*
X9519864Y-15340976D01*
X9500816Y-15369548D01*
X9481769Y-15388595D01*
X9462721Y-15398119D01*
X9662721Y-15521928D02*
X9672245Y-15531452D01*
X9662721Y-15540976D01*
X9653197Y-15531452D01*
X9662721Y-15521928D01*
X9662721Y-15540976D01*
X9796055Y-15340976D02*
X9815102Y-15340976D01*
X9834150Y-15350500D01*
X9843674Y-15360024D01*
X9853197Y-15379071D01*
X9862721Y-15417167D01*
X9862721Y-15464786D01*
X9853197Y-15502881D01*
X9843674Y-15521928D01*
X9834150Y-15531452D01*
X9815102Y-15540976D01*
X9796055Y-15540976D01*
X9777007Y-15531452D01*
X9767483Y-15521928D01*
X9757959Y-15502881D01*
X9748436Y-15464786D01*
X9748436Y-15417167D01*
X9757959Y-15379071D01*
X9767483Y-15360024D01*
X9777007Y-15350500D01*
X9796055Y-15340976D01*
X9986531Y-15340976D02*
X10005578Y-15340976D01*
X10024626Y-15350500D01*
X10034150Y-15360024D01*
X10043674Y-15379071D01*
X10053197Y-15417167D01*
X10053197Y-15464786D01*
X10043674Y-15502881D01*
X10034150Y-15521928D01*
X10024626Y-15531452D01*
X10005578Y-15540976D01*
X9986531Y-15540976D01*
X9967483Y-15531452D01*
X9957959Y-15521928D01*
X9948436Y-15502881D01*
X9938912Y-15464786D01*
X9938912Y-15417167D01*
X9948436Y-15379071D01*
X9957959Y-15360024D01*
X9967483Y-15350500D01*
X9986531Y-15340976D01*
X10177007Y-15340976D02*
X10196055Y-15340976D01*
X10215102Y-15350500D01*
X10224626Y-15360024D01*
X10234150Y-15379071D01*
X10243674Y-15417167D01*
X10243674Y-15464786D01*
X10234150Y-15502881D01*
X10224626Y-15521928D01*
X10215102Y-15531452D01*
X10196055Y-15540976D01*
X10177007Y-15540976D01*
X10157959Y-15531452D01*
X10148436Y-15521928D01*
X10138912Y-15502881D01*
X10129388Y-15464786D01*
X10129388Y-15417167D01*
X10138912Y-15379071D01*
X10148436Y-15360024D01*
X10157959Y-15350500D01*
X10177007Y-15340976D01*
X10329388Y-15540976D02*
X10329388Y-15407643D01*
X10329388Y-15426690D02*
X10338912Y-15417167D01*
X10357959Y-15407643D01*
X10386531Y-15407643D01*
X10405578Y-15417167D01*
X10415102Y-15436214D01*
X10415102Y-15540976D01*
X10415102Y-15436214D02*
X10424626Y-15417167D01*
X10443674Y-15407643D01*
X10472245Y-15407643D01*
X10491293Y-15417167D01*
X10500816Y-15436214D01*
X10500816Y-15540976D01*
X10596055Y-15540976D02*
X10596055Y-15407643D01*
X10596055Y-15426690D02*
X10605578Y-15417167D01*
X10624626Y-15407643D01*
X10653197Y-15407643D01*
X10672245Y-15417167D01*
X10681769Y-15436214D01*
X10681769Y-15540976D01*
X10681769Y-15436214D02*
X10691293Y-15417167D01*
X10710340Y-15407643D01*
X10738912Y-15407643D01*
X10757959Y-15417167D01*
X10767483Y-15436214D01*
X10767483Y-15540976D01*
X11157959Y-15331452D02*
X10986531Y-15588595D01*
X11415102Y-15340976D02*
X11434150Y-15340976D01*
X11453197Y-15350500D01*
X11462721Y-15360024D01*
X11472245Y-15379071D01*
X11481769Y-15417167D01*
X11481769Y-15464786D01*
X11472245Y-15502881D01*
X11462721Y-15521928D01*
X11453197Y-15531452D01*
X11434150Y-15540976D01*
X11415102Y-15540976D01*
X11396054Y-15531452D01*
X11386531Y-15521928D01*
X11377007Y-15502881D01*
X11367483Y-15464786D01*
X11367483Y-15417167D01*
X11377007Y-15379071D01*
X11386531Y-15360024D01*
X11396054Y-15350500D01*
X11415102Y-15340976D01*
X11567483Y-15521928D02*
X11577007Y-15531452D01*
X11567483Y-15540976D01*
X11557959Y-15531452D01*
X11567483Y-15521928D01*
X11567483Y-15540976D01*
X11700816Y-15340976D02*
X11719864Y-15340976D01*
X11738912Y-15350500D01*
X11748435Y-15360024D01*
X11757959Y-15379071D01*
X11767483Y-15417167D01*
X11767483Y-15464786D01*
X11757959Y-15502881D01*
X11748435Y-15521928D01*
X11738912Y-15531452D01*
X11719864Y-15540976D01*
X11700816Y-15540976D01*
X11681769Y-15531452D01*
X11672245Y-15521928D01*
X11662721Y-15502881D01*
X11653197Y-15464786D01*
X11653197Y-15417167D01*
X11662721Y-15379071D01*
X11672245Y-15360024D01*
X11681769Y-15350500D01*
X11700816Y-15340976D01*
X11834150Y-15340976D02*
X11957959Y-15340976D01*
X11891293Y-15417167D01*
X11919864Y-15417167D01*
X11938912Y-15426690D01*
X11948435Y-15436214D01*
X11957959Y-15455262D01*
X11957959Y-15502881D01*
X11948435Y-15521928D01*
X11938912Y-15531452D01*
X11919864Y-15540976D01*
X11862721Y-15540976D01*
X11843674Y-15531452D01*
X11834150Y-15521928D01*
X12053197Y-15540976D02*
X12091293Y-15540976D01*
X12110340Y-15531452D01*
X12119864Y-15521928D01*
X12138912Y-15493357D01*
X12148435Y-15455262D01*
X12148435Y-15379071D01*
X12138912Y-15360024D01*
X12129388Y-15350500D01*
X12110340Y-15340976D01*
X12072245Y-15340976D01*
X12053197Y-15350500D01*
X12043674Y-15360024D01*
X12034150Y-15379071D01*
X12034150Y-15426690D01*
X12043674Y-15445738D01*
X12053197Y-15455262D01*
X12072245Y-15464786D01*
X12110340Y-15464786D01*
X12129388Y-15455262D01*
X12138912Y-15445738D01*
X12148435Y-15426690D01*
X12319864Y-15407643D02*
X12319864Y-15540976D01*
X12272245Y-15331452D02*
X12224626Y-15474309D01*
X12348435Y-15474309D01*
X12415102Y-15340976D02*
X12415102Y-15379071D01*
X12491293Y-15340976D02*
X12491293Y-15379071D01*
X12786531Y-15617167D02*
X12777007Y-15607643D01*
X12757959Y-15579071D01*
X12748435Y-15560024D01*
X12738912Y-15531452D01*
X12729388Y-15483833D01*
X12729388Y-15445738D01*
X12738912Y-15398119D01*
X12748435Y-15369548D01*
X12757959Y-15350500D01*
X12777007Y-15321928D01*
X12786531Y-15312405D01*
X12967483Y-15540976D02*
X12853197Y-15540976D01*
X12910340Y-15540976D02*
X12910340Y-15340976D01*
X12891293Y-15369548D01*
X12872245Y-15388595D01*
X12853197Y-15398119D01*
X13148435Y-15340976D02*
X13053197Y-15340976D01*
X13043674Y-15436214D01*
X13053197Y-15426690D01*
X13072245Y-15417167D01*
X13119864Y-15417167D01*
X13138912Y-15426690D01*
X13148435Y-15436214D01*
X13157959Y-15455262D01*
X13157959Y-15502881D01*
X13148435Y-15521928D01*
X13138912Y-15531452D01*
X13119864Y-15540976D01*
X13072245Y-15540976D01*
X13053197Y-15531452D01*
X13043674Y-15521928D01*
X13396054Y-15540976D02*
X13396054Y-15340976D01*
X13481769Y-15540976D02*
X13481769Y-15436214D01*
X13472245Y-15417167D01*
X13453197Y-15407643D01*
X13424626Y-15407643D01*
X13405578Y-15417167D01*
X13396054Y-15426690D01*
X13605578Y-15540976D02*
X13586531Y-15531452D01*
X13577007Y-15521928D01*
X13567483Y-15502881D01*
X13567483Y-15445738D01*
X13577007Y-15426690D01*
X13586531Y-15417167D01*
X13605578Y-15407643D01*
X13634150Y-15407643D01*
X13653197Y-15417167D01*
X13662721Y-15426690D01*
X13672245Y-15445738D01*
X13672245Y-15502881D01*
X13662721Y-15521928D01*
X13653197Y-15531452D01*
X13634150Y-15540976D01*
X13605578Y-15540976D01*
X13786531Y-15540976D02*
X13767483Y-15531452D01*
X13757959Y-15512405D01*
X13757959Y-15340976D01*
X13938912Y-15531452D02*
X13919864Y-15540976D01*
X13881769Y-15540976D01*
X13862721Y-15531452D01*
X13853197Y-15512405D01*
X13853197Y-15436214D01*
X13862721Y-15417167D01*
X13881769Y-15407643D01*
X13919864Y-15407643D01*
X13938912Y-15417167D01*
X13948435Y-15436214D01*
X13948435Y-15455262D01*
X13853197Y-15474309D01*
X14024626Y-15531452D02*
X14043674Y-15540976D01*
X14081769Y-15540976D01*
X14100816Y-15531452D01*
X14110340Y-15512405D01*
X14110340Y-15502881D01*
X14100816Y-15483833D01*
X14081769Y-15474309D01*
X14053197Y-15474309D01*
X14034150Y-15464786D01*
X14024626Y-15445738D01*
X14024626Y-15436214D01*
X14034150Y-15417167D01*
X14053197Y-15407643D01*
X14081769Y-15407643D01*
X14100816Y-15417167D01*
X14177007Y-15617167D02*
X14186531Y-15607643D01*
X14205578Y-15579071D01*
X14215102Y-15560024D01*
X14224626Y-15531452D01*
X14234150Y-15483833D01*
X14234150Y-15445738D01*
X14224626Y-15398119D01*
X14215102Y-15369548D01*
X14205578Y-15350500D01*
X14186531Y-15321928D01*
X14177007Y-15312405D01*
M02*
