%TF.GenerationSoftware,KiCad,Pcbnew,(6.0.4-0)*%
%TF.CreationDate,2022-03-28T13:48:44+08:00*%
%TF.ProjectId,Phalanx,5068616c-616e-4782-9e6b-696361645f70,rev?*%
%TF.SameCoordinates,Original*%
%TF.FileFunction,Legend,Bot*%
%TF.FilePolarity,Positive*%
%FSLAX46Y46*%
G04 Gerber Fmt 4.6, Leading zero omitted, Abs format (unit mm)*
G04 Created by KiCad (PCBNEW (6.0.4-0)) date 2022-03-28 13:48:44*
%MOMM*%
%LPD*%
G01*
G04 APERTURE LIST*
%ADD10C,0.150000*%
%ADD11C,0.120000*%
%ADD12R,1.700000X1.700000*%
%ADD13O,1.700000X1.700000*%
%ADD14C,1.900000*%
%ADD15C,4.000000*%
%ADD16C,3.000000*%
%ADD17R,2.550000X2.500000*%
%ADD18O,2.500000X2.000000*%
%ADD19C,0.800000*%
G04 APERTURE END LIST*
D10*
X106219047Y-67397380D02*
X106219047Y-68111666D01*
X106266666Y-68254523D01*
X106361904Y-68349761D01*
X106504761Y-68397380D01*
X106600000Y-68397380D01*
X105266666Y-68397380D02*
X105742857Y-68397380D01*
X105742857Y-67397380D01*
X104361904Y-68302142D02*
X104409523Y-68349761D01*
X104552380Y-68397380D01*
X104647619Y-68397380D01*
X104790476Y-68349761D01*
X104885714Y-68254523D01*
X104933333Y-68159285D01*
X104980952Y-67968809D01*
X104980952Y-67825952D01*
X104933333Y-67635476D01*
X104885714Y-67540238D01*
X104790476Y-67445000D01*
X104647619Y-67397380D01*
X104552380Y-67397380D01*
X104409523Y-67445000D01*
X104361904Y-67492619D01*
X103647619Y-67397380D02*
X103647619Y-68111666D01*
X103695238Y-68254523D01*
X103790476Y-68349761D01*
X103933333Y-68397380D01*
X104028571Y-68397380D01*
X102695238Y-68397380D02*
X103171428Y-68397380D01*
X103171428Y-67397380D01*
X101790476Y-68302142D02*
X101838095Y-68349761D01*
X101980952Y-68397380D01*
X102076190Y-68397380D01*
X102219047Y-68349761D01*
X102314285Y-68254523D01*
X102361904Y-68159285D01*
X102409523Y-67968809D01*
X102409523Y-67825952D01*
X102361904Y-67635476D01*
X102314285Y-67540238D01*
X102219047Y-67445000D01*
X102076190Y-67397380D01*
X101980952Y-67397380D01*
X101838095Y-67445000D01*
X101790476Y-67492619D01*
X101076190Y-67397380D02*
X101076190Y-68111666D01*
X101123809Y-68254523D01*
X101219047Y-68349761D01*
X101361904Y-68397380D01*
X101457142Y-68397380D01*
X100123809Y-68397380D02*
X100600000Y-68397380D01*
X100600000Y-67397380D01*
X99219047Y-68302142D02*
X99266666Y-68349761D01*
X99409523Y-68397380D01*
X99504761Y-68397380D01*
X99647619Y-68349761D01*
X99742857Y-68254523D01*
X99790476Y-68159285D01*
X99838095Y-67968809D01*
X99838095Y-67825952D01*
X99790476Y-67635476D01*
X99742857Y-67540238D01*
X99647619Y-67445000D01*
X99504761Y-67397380D01*
X99409523Y-67397380D01*
X99266666Y-67445000D01*
X99219047Y-67492619D01*
X98504761Y-67397380D02*
X98504761Y-68111666D01*
X98552380Y-68254523D01*
X98647619Y-68349761D01*
X98790476Y-68397380D01*
X98885714Y-68397380D01*
X97552380Y-68397380D02*
X98028571Y-68397380D01*
X98028571Y-67397380D01*
X96647619Y-68302142D02*
X96695238Y-68349761D01*
X96838095Y-68397380D01*
X96933333Y-68397380D01*
X97076190Y-68349761D01*
X97171428Y-68254523D01*
X97219047Y-68159285D01*
X97266666Y-67968809D01*
X97266666Y-67825952D01*
X97219047Y-67635476D01*
X97171428Y-67540238D01*
X97076190Y-67445000D01*
X96933333Y-67397380D01*
X96838095Y-67397380D01*
X96695238Y-67445000D01*
X96647619Y-67492619D01*
D11*
%TO.C,SW3*%
X97790000Y-110490000D02*
X102870000Y-110490000D01*
X101600000Y-113665000D02*
X105410000Y-113665000D01*
X97790000Y-110490000D02*
G75*
G03*
X95885000Y-112395000I1J-1905001D01*
G01*
X101600000Y-113665000D02*
G75*
G03*
X99695000Y-114300000I3J-3175009D01*
G01*
%TO.C,SW4*%
X101600000Y-132715000D02*
X105410000Y-132715000D01*
X97790000Y-129540000D02*
X102870000Y-129540000D01*
X97790000Y-129540000D02*
G75*
G03*
X95885000Y-131445000I1J-1905001D01*
G01*
X101600000Y-132715000D02*
G75*
G03*
X99695000Y-133350000I3J-3175009D01*
G01*
%TO.C,SW2*%
X101600000Y-94615000D02*
X105410000Y-94615000D01*
X97790000Y-91440000D02*
X102870000Y-91440000D01*
X97790000Y-91440000D02*
G75*
G03*
X95885000Y-93345000I1J-1905001D01*
G01*
X101600000Y-94615000D02*
G75*
G03*
X99695000Y-95250000I3J-3175009D01*
G01*
%TO.C,SW1*%
X97790000Y-72390000D02*
X102870000Y-72390000D01*
X101600000Y-75565000D02*
X105410000Y-75565000D01*
X101600000Y-75565000D02*
G75*
G03*
X99695000Y-76200000I3J-3175009D01*
G01*
X97790000Y-72390000D02*
G75*
G03*
X95885000Y-74295000I1J-1905001D01*
G01*
%TD*%
%LPC*%
D12*
%TO.C,J1*%
X104140000Y-54610000D03*
D13*
X104140000Y-57150000D03*
X104140000Y-59690000D03*
X104140000Y-62230000D03*
X104140000Y-64770000D03*
%TD*%
D14*
%TO.C,SW3*%
X106680000Y-116840000D03*
D15*
X101600000Y-116840000D03*
D14*
X96520000Y-116840000D03*
D16*
X104140000Y-111760000D03*
X97790000Y-114300000D03*
D17*
X94515000Y-114300000D03*
D18*
X99060000Y-121920000D03*
D17*
X107442000Y-111760000D03*
D18*
X105410000Y-119380000D03*
%TD*%
D19*
%TO.C,REF\u002A\u002A*%
X104140000Y-126365000D03*
X96520000Y-126365000D03*
X106680000Y-126365000D03*
X101600000Y-126365000D03*
X99060000Y-126365000D03*
%TD*%
D14*
%TO.C,SW4*%
X96520000Y-135890000D03*
D15*
X101600000Y-135890000D03*
D16*
X104140000Y-130810000D03*
D14*
X106680000Y-135890000D03*
D16*
X97790000Y-133350000D03*
D17*
X94515000Y-133350000D03*
D18*
X99060000Y-140970000D03*
X105410000Y-138430000D03*
D17*
X107442000Y-130810000D03*
%TD*%
D14*
%TO.C,SW2*%
X96520000Y-97790000D03*
X106680000Y-97790000D03*
D15*
X101600000Y-97790000D03*
D16*
X104140000Y-92710000D03*
X97790000Y-95250000D03*
D17*
X94515000Y-95250000D03*
D18*
X99060000Y-102870000D03*
X105410000Y-100330000D03*
D17*
X107442000Y-92710000D03*
%TD*%
D12*
%TO.C,J2*%
X99060000Y-54610000D03*
D13*
X99060000Y-57150000D03*
X99060000Y-59690000D03*
X99060000Y-62230000D03*
X99060000Y-64770000D03*
%TD*%
D12*
%TO.C,J3*%
X96520000Y-144145000D03*
D13*
X99060000Y-144145000D03*
X101600000Y-144145000D03*
X104140000Y-144145000D03*
X106680000Y-144145000D03*
%TD*%
D14*
%TO.C,SW1*%
X96520000Y-78740000D03*
D16*
X97790000Y-76200000D03*
D15*
X101600000Y-78740000D03*
D16*
X104140000Y-73660000D03*
D14*
X106680000Y-78740000D03*
D18*
X99060000Y-83820000D03*
D17*
X94515000Y-76200000D03*
D18*
X105410000Y-81280000D03*
D17*
X107442000Y-73660000D03*
%TD*%
M02*
