%FSLAX45Y45*%
G04 Gerber Fmt 4.5, Leading zero omitted, Abs format (unit mm)*
G04 Created by KiCad (PCBNEW (6.0.1-0)) date 2022-02-06 13:56:44*
%MOMM*%
%LPD*%
G01*
G04 APERTURE LIST*
%TA.AperFunction,Profile*%
%ADD10C,0.100000*%
%TD*%
%ADD11C,0.200000*%
%ADD12C,0.080000*%
%ADD13C,0.100000*%
G04 APERTURE END LIST*
D10*
X11112500Y-10985500D02*
G75*
G03*
X10985500Y-10858500I-127000J0D01*
G01*
X9334500Y-12763500D02*
G75*
G03*
X9334500Y-12509500I0J127000D01*
G01*
X11112500Y-10477500D02*
X11112500Y-9080500D01*
X9207500Y-14414500D02*
G75*
G03*
X9334500Y-14541500I127000J0D01*
G01*
X11112500Y-8572500D02*
X11112500Y-7048500D01*
X10985500Y-10604500D02*
G75*
G03*
X10985500Y-10858500I0J-127000D01*
G01*
X11112500Y-7048500D02*
G75*
G03*
X10985500Y-6921500I-127000J0D01*
G01*
X9334500Y-10858500D02*
G75*
G03*
X9207500Y-10985500I0J-127000D01*
G01*
X9334500Y-8953500D02*
G75*
G03*
X9207500Y-9080500I0J-127000D01*
G01*
X10858500Y-6794500D02*
G75*
G03*
X10985500Y-6921500I127000J0D01*
G01*
X10731500Y-5016500D02*
X9588500Y-5016500D01*
X9207500Y-8572500D02*
G75*
G03*
X9334500Y-8699500I127000J0D01*
G01*
X10985500Y-8699500D02*
G75*
G03*
X11112500Y-8572500I0J127000D01*
G01*
X9207500Y-12382500D02*
G75*
G03*
X9334500Y-12509500I127000J0D01*
G01*
X10985500Y-10604500D02*
G75*
G03*
X11112500Y-10477500I0J127000D01*
G01*
X11112500Y-12382500D02*
X11112500Y-10985500D01*
X10985500Y-12509500D02*
G75*
G03*
X10985500Y-12763500I0J-127000D01*
G01*
X9334500Y-10858500D02*
G75*
G03*
X9334500Y-10604500I0J127000D01*
G01*
X11112500Y-9080500D02*
G75*
G03*
X10985500Y-8953500I-127000J0D01*
G01*
X10858500Y-5143500D02*
G75*
G03*
X10731500Y-5016500I-127000J0D01*
G01*
X9588500Y-5016500D02*
G75*
G03*
X9461500Y-5143500I0J-127000D01*
G01*
X9207500Y-9080500D02*
X9207500Y-10477500D01*
X9334500Y-6921500D02*
G75*
G03*
X9207500Y-7048500I0J-127000D01*
G01*
X9334500Y-12763500D02*
G75*
G03*
X9207500Y-12890500I0J-127000D01*
G01*
X9207500Y-10985500D02*
X9207500Y-12382500D01*
X10985500Y-14541500D02*
G75*
G03*
X11112500Y-14414500I0J127000D01*
G01*
X9334500Y-6921500D02*
G75*
G03*
X9461500Y-6794500I0J127000D01*
G01*
X9207500Y-12890500D02*
X9207500Y-14414500D01*
X11112500Y-12890500D02*
G75*
G03*
X10985500Y-12763500I-127000J0D01*
G01*
X9334500Y-14541500D02*
X10985500Y-14541500D01*
X9207500Y-10477500D02*
G75*
G03*
X9334500Y-10604500I127000J0D01*
G01*
X10985500Y-12509500D02*
G75*
G03*
X11112500Y-12382500I0J127000D01*
G01*
X10985500Y-8699500D02*
G75*
G03*
X10985500Y-8953500I0J-127000D01*
G01*
X9461500Y-5143500D02*
X9461500Y-6794500D01*
X9334500Y-8953500D02*
G75*
G03*
X9334500Y-8699500I0J127000D01*
G01*
X11112500Y-14414500D02*
X11112500Y-12890500D01*
X10858500Y-6794500D02*
X10858500Y-5143500D01*
X9207500Y-7048500D02*
X9207500Y-8572500D01*
D11*
D12*
X9866000Y-8342000D02*
X9946000Y-8422000D01*
X9946000Y-8342000D02*
X9866000Y-8422000D01*
D11*
X9926000Y-8352000D02*
X9886000Y-8352000D01*
X9926000Y-8412000D02*
X9886000Y-8412000D01*
X9886000Y-8352000D02*
G75*
G03*
X9886000Y-8412000I0J-30000D01*
G01*
X9926000Y-8412000D02*
G75*
G03*
X9926000Y-8352000I0J30000D01*
G01*
D12*
X9866000Y-10247000D02*
X9946000Y-10327000D01*
X9946000Y-10247000D02*
X9866000Y-10327000D01*
D11*
X9926000Y-10257000D02*
X9886000Y-10257000D01*
X9926000Y-10317000D02*
X9886000Y-10317000D01*
X9886000Y-10257000D02*
G75*
G03*
X9886000Y-10317000I0J-30000D01*
G01*
X9926000Y-10317000D02*
G75*
G03*
X9926000Y-10257000I0J30000D01*
G01*
D12*
X9866000Y-12152000D02*
X9946000Y-12232000D01*
X9946000Y-12152000D02*
X9866000Y-12232000D01*
D11*
X9926000Y-12162000D02*
X9886000Y-12162000D01*
X9926000Y-12222000D02*
X9886000Y-12222000D01*
X9886000Y-12162000D02*
G75*
G03*
X9886000Y-12222000I0J-30000D01*
G01*
X9926000Y-12222000D02*
G75*
G03*
X9926000Y-12162000I0J30000D01*
G01*
D12*
X9866000Y-14057000D02*
X9946000Y-14137000D01*
X9946000Y-14057000D02*
X9866000Y-14137000D01*
D11*
X9926000Y-14067000D02*
X9886000Y-14067000D01*
X9926000Y-14127000D02*
X9886000Y-14127000D01*
X9886000Y-14067000D02*
G75*
G03*
X9886000Y-14127000I0J-30000D01*
G01*
X9926000Y-14127000D02*
G75*
G03*
X9926000Y-14067000I0J30000D01*
G01*
D12*
X10501000Y-8088000D02*
X10581000Y-8168000D01*
X10581000Y-8088000D02*
X10501000Y-8168000D01*
D11*
X10561000Y-8098000D02*
X10521000Y-8098000D01*
X10561000Y-8158000D02*
X10521000Y-8158000D01*
X10521000Y-8098000D02*
G75*
G03*
X10521000Y-8158000I0J-30000D01*
G01*
X10561000Y-8158000D02*
G75*
G03*
X10561000Y-8098000I0J30000D01*
G01*
D12*
X10501000Y-9993000D02*
X10581000Y-10073000D01*
X10581000Y-9993000D02*
X10501000Y-10073000D01*
D11*
X10561000Y-10003000D02*
X10521000Y-10003000D01*
X10561000Y-10063000D02*
X10521000Y-10063000D01*
X10521000Y-10003000D02*
G75*
G03*
X10521000Y-10063000I0J-30000D01*
G01*
X10561000Y-10063000D02*
G75*
G03*
X10561000Y-10003000I0J30000D01*
G01*
D12*
X10501000Y-11898000D02*
X10581000Y-11978000D01*
X10581000Y-11898000D02*
X10501000Y-11978000D01*
D11*
X10561000Y-11908000D02*
X10521000Y-11908000D01*
X10561000Y-11968000D02*
X10521000Y-11968000D01*
X10521000Y-11908000D02*
G75*
G03*
X10521000Y-11968000I0J-30000D01*
G01*
X10561000Y-11968000D02*
G75*
G03*
X10561000Y-11908000I0J30000D01*
G01*
D12*
X10501000Y-13803000D02*
X10581000Y-13883000D01*
X10581000Y-13803000D02*
X10501000Y-13883000D01*
D11*
X10561000Y-13813000D02*
X10521000Y-13813000D01*
X10561000Y-13873000D02*
X10521000Y-13873000D01*
X10521000Y-13813000D02*
G75*
G03*
X10521000Y-13873000I0J-30000D01*
G01*
X10561000Y-13873000D02*
G75*
G03*
X10561000Y-13813000I0J30000D01*
G01*
D13*
X9702000Y-14414500D02*
G75*
G03*
X9702000Y-14414500I-50000J0D01*
G01*
X9956000Y-5461000D02*
G75*
G03*
X9956000Y-5461000I-50000J0D01*
G01*
X9956000Y-5715000D02*
G75*
G03*
X9956000Y-5715000I-50000J0D01*
G01*
X9956000Y-5969000D02*
G75*
G03*
X9956000Y-5969000I-50000J0D01*
G01*
X9956000Y-6223000D02*
G75*
G03*
X9956000Y-6223000I-50000J0D01*
G01*
X9956000Y-6477000D02*
G75*
G03*
X9956000Y-6477000I-50000J0D01*
G01*
X9956000Y-14414500D02*
G75*
G03*
X9956000Y-14414500I-50000J0D01*
G01*
X10210000Y-14414500D02*
G75*
G03*
X10210000Y-14414500I-50000J0D01*
G01*
X10464000Y-5461000D02*
G75*
G03*
X10464000Y-5461000I-50000J0D01*
G01*
X10464000Y-5715000D02*
G75*
G03*
X10464000Y-5715000I-50000J0D01*
G01*
X10464000Y-5969000D02*
G75*
G03*
X10464000Y-5969000I-50000J0D01*
G01*
X10464000Y-6223000D02*
G75*
G03*
X10464000Y-6223000I-50000J0D01*
G01*
X10464000Y-6477000D02*
G75*
G03*
X10464000Y-6477000I-50000J0D01*
G01*
X10464000Y-14414500D02*
G75*
G03*
X10464000Y-14414500I-50000J0D01*
G01*
X10718000Y-14414500D02*
G75*
G03*
X10718000Y-14414500I-50000J0D01*
G01*
D11*
X9460119Y-14856976D02*
X9460119Y-14656976D01*
X9507738Y-14656976D01*
X9536310Y-14666500D01*
X9555357Y-14685548D01*
X9564881Y-14704595D01*
X9574405Y-14742690D01*
X9574405Y-14771262D01*
X9564881Y-14809357D01*
X9555357Y-14828405D01*
X9536310Y-14847452D01*
X9507738Y-14856976D01*
X9460119Y-14856976D01*
X9660119Y-14856976D02*
X9660119Y-14723643D01*
X9660119Y-14761738D02*
X9669643Y-14742690D01*
X9679167Y-14733167D01*
X9698214Y-14723643D01*
X9717262Y-14723643D01*
X9783929Y-14856976D02*
X9783929Y-14723643D01*
X9783929Y-14656976D02*
X9774405Y-14666500D01*
X9783929Y-14676024D01*
X9793452Y-14666500D01*
X9783929Y-14656976D01*
X9783929Y-14676024D01*
X9907738Y-14856976D02*
X9888690Y-14847452D01*
X9879167Y-14828405D01*
X9879167Y-14656976D01*
X10012500Y-14856976D02*
X9993452Y-14847452D01*
X9983929Y-14828405D01*
X9983929Y-14656976D01*
X10241071Y-14856976D02*
X10241071Y-14656976D01*
X10307738Y-14799833D01*
X10374405Y-14656976D01*
X10374405Y-14856976D01*
X10555357Y-14856976D02*
X10555357Y-14752214D01*
X10545833Y-14733167D01*
X10526786Y-14723643D01*
X10488690Y-14723643D01*
X10469643Y-14733167D01*
X10555357Y-14847452D02*
X10536310Y-14856976D01*
X10488690Y-14856976D01*
X10469643Y-14847452D01*
X10460119Y-14828405D01*
X10460119Y-14809357D01*
X10469643Y-14790309D01*
X10488690Y-14780786D01*
X10536310Y-14780786D01*
X10555357Y-14771262D01*
X10650595Y-14723643D02*
X10650595Y-14923643D01*
X10650595Y-14733167D02*
X10669643Y-14723643D01*
X10707738Y-14723643D01*
X10726786Y-14733167D01*
X10736310Y-14742690D01*
X10745833Y-14761738D01*
X10745833Y-14818881D01*
X10736310Y-14837928D01*
X10726786Y-14847452D01*
X10707738Y-14856976D01*
X10669643Y-14856976D01*
X10650595Y-14847452D01*
X10831548Y-14837928D02*
X10841071Y-14847452D01*
X10831548Y-14856976D01*
X10822024Y-14847452D01*
X10831548Y-14837928D01*
X10831548Y-14856976D01*
X10831548Y-14733167D02*
X10841071Y-14742690D01*
X10831548Y-14752214D01*
X10822024Y-14742690D01*
X10831548Y-14733167D01*
X10831548Y-14752214D01*
D12*
X9122500Y-15146500D02*
X9202500Y-15226500D01*
X9202500Y-15146500D02*
X9122500Y-15226500D01*
D11*
X9498214Y-15076976D02*
X9517262Y-15076976D01*
X9536310Y-15086500D01*
X9545833Y-15096024D01*
X9555357Y-15115071D01*
X9564881Y-15153167D01*
X9564881Y-15200786D01*
X9555357Y-15238881D01*
X9545833Y-15257928D01*
X9536310Y-15267452D01*
X9517262Y-15276976D01*
X9498214Y-15276976D01*
X9479167Y-15267452D01*
X9469643Y-15257928D01*
X9460119Y-15238881D01*
X9450595Y-15200786D01*
X9450595Y-15153167D01*
X9460119Y-15115071D01*
X9469643Y-15096024D01*
X9479167Y-15086500D01*
X9498214Y-15076976D01*
X9650595Y-15257928D02*
X9660119Y-15267452D01*
X9650595Y-15276976D01*
X9641071Y-15267452D01*
X9650595Y-15257928D01*
X9650595Y-15276976D01*
X9774405Y-15162690D02*
X9755357Y-15153167D01*
X9745833Y-15143643D01*
X9736310Y-15124595D01*
X9736310Y-15115071D01*
X9745833Y-15096024D01*
X9755357Y-15086500D01*
X9774405Y-15076976D01*
X9812500Y-15076976D01*
X9831548Y-15086500D01*
X9841071Y-15096024D01*
X9850595Y-15115071D01*
X9850595Y-15124595D01*
X9841071Y-15143643D01*
X9831548Y-15153167D01*
X9812500Y-15162690D01*
X9774405Y-15162690D01*
X9755357Y-15172214D01*
X9745833Y-15181738D01*
X9736310Y-15200786D01*
X9736310Y-15238881D01*
X9745833Y-15257928D01*
X9755357Y-15267452D01*
X9774405Y-15276976D01*
X9812500Y-15276976D01*
X9831548Y-15267452D01*
X9841071Y-15257928D01*
X9850595Y-15238881D01*
X9850595Y-15200786D01*
X9841071Y-15181738D01*
X9831548Y-15172214D01*
X9812500Y-15162690D01*
X9974405Y-15076976D02*
X9993452Y-15076976D01*
X10012500Y-15086500D01*
X10022024Y-15096024D01*
X10031548Y-15115071D01*
X10041071Y-15153167D01*
X10041071Y-15200786D01*
X10031548Y-15238881D01*
X10022024Y-15257928D01*
X10012500Y-15267452D01*
X9993452Y-15276976D01*
X9974405Y-15276976D01*
X9955357Y-15267452D01*
X9945833Y-15257928D01*
X9936310Y-15238881D01*
X9926786Y-15200786D01*
X9926786Y-15153167D01*
X9936310Y-15115071D01*
X9945833Y-15096024D01*
X9955357Y-15086500D01*
X9974405Y-15076976D01*
X10164881Y-15076976D02*
X10183929Y-15076976D01*
X10202976Y-15086500D01*
X10212500Y-15096024D01*
X10222024Y-15115071D01*
X10231548Y-15153167D01*
X10231548Y-15200786D01*
X10222024Y-15238881D01*
X10212500Y-15257928D01*
X10202976Y-15267452D01*
X10183929Y-15276976D01*
X10164881Y-15276976D01*
X10145833Y-15267452D01*
X10136310Y-15257928D01*
X10126786Y-15238881D01*
X10117262Y-15200786D01*
X10117262Y-15153167D01*
X10126786Y-15115071D01*
X10136310Y-15096024D01*
X10145833Y-15086500D01*
X10164881Y-15076976D01*
X10317262Y-15276976D02*
X10317262Y-15143643D01*
X10317262Y-15162690D02*
X10326786Y-15153167D01*
X10345833Y-15143643D01*
X10374405Y-15143643D01*
X10393452Y-15153167D01*
X10402976Y-15172214D01*
X10402976Y-15276976D01*
X10402976Y-15172214D02*
X10412500Y-15153167D01*
X10431548Y-15143643D01*
X10460119Y-15143643D01*
X10479167Y-15153167D01*
X10488690Y-15172214D01*
X10488690Y-15276976D01*
X10583929Y-15276976D02*
X10583929Y-15143643D01*
X10583929Y-15162690D02*
X10593452Y-15153167D01*
X10612500Y-15143643D01*
X10641071Y-15143643D01*
X10660119Y-15153167D01*
X10669643Y-15172214D01*
X10669643Y-15276976D01*
X10669643Y-15172214D02*
X10679167Y-15153167D01*
X10698214Y-15143643D01*
X10726786Y-15143643D01*
X10745833Y-15153167D01*
X10755357Y-15172214D01*
X10755357Y-15276976D01*
X11145833Y-15067452D02*
X10974405Y-15324595D01*
X11402976Y-15076976D02*
X11422024Y-15076976D01*
X11441071Y-15086500D01*
X11450595Y-15096024D01*
X11460119Y-15115071D01*
X11469643Y-15153167D01*
X11469643Y-15200786D01*
X11460119Y-15238881D01*
X11450595Y-15257928D01*
X11441071Y-15267452D01*
X11422024Y-15276976D01*
X11402976Y-15276976D01*
X11383928Y-15267452D01*
X11374405Y-15257928D01*
X11364881Y-15238881D01*
X11355357Y-15200786D01*
X11355357Y-15153167D01*
X11364881Y-15115071D01*
X11374405Y-15096024D01*
X11383928Y-15086500D01*
X11402976Y-15076976D01*
X11555357Y-15257928D02*
X11564881Y-15267452D01*
X11555357Y-15276976D01*
X11545833Y-15267452D01*
X11555357Y-15257928D01*
X11555357Y-15276976D01*
X11688690Y-15076976D02*
X11707738Y-15076976D01*
X11726786Y-15086500D01*
X11736309Y-15096024D01*
X11745833Y-15115071D01*
X11755357Y-15153167D01*
X11755357Y-15200786D01*
X11745833Y-15238881D01*
X11736309Y-15257928D01*
X11726786Y-15267452D01*
X11707738Y-15276976D01*
X11688690Y-15276976D01*
X11669643Y-15267452D01*
X11660119Y-15257928D01*
X11650595Y-15238881D01*
X11641071Y-15200786D01*
X11641071Y-15153167D01*
X11650595Y-15115071D01*
X11660119Y-15096024D01*
X11669643Y-15086500D01*
X11688690Y-15076976D01*
X11822024Y-15076976D02*
X11945833Y-15076976D01*
X11879167Y-15153167D01*
X11907738Y-15153167D01*
X11926786Y-15162690D01*
X11936309Y-15172214D01*
X11945833Y-15191262D01*
X11945833Y-15238881D01*
X11936309Y-15257928D01*
X11926786Y-15267452D01*
X11907738Y-15276976D01*
X11850595Y-15276976D01*
X11831548Y-15267452D01*
X11822024Y-15257928D01*
X12136309Y-15276976D02*
X12022024Y-15276976D01*
X12079167Y-15276976D02*
X12079167Y-15076976D01*
X12060119Y-15105548D01*
X12041071Y-15124595D01*
X12022024Y-15134119D01*
X12317262Y-15076976D02*
X12222024Y-15076976D01*
X12212500Y-15172214D01*
X12222024Y-15162690D01*
X12241071Y-15153167D01*
X12288690Y-15153167D01*
X12307738Y-15162690D01*
X12317262Y-15172214D01*
X12326786Y-15191262D01*
X12326786Y-15238881D01*
X12317262Y-15257928D01*
X12307738Y-15267452D01*
X12288690Y-15276976D01*
X12241071Y-15276976D01*
X12222024Y-15267452D01*
X12212500Y-15257928D01*
X12402976Y-15076976D02*
X12402976Y-15115071D01*
X12479167Y-15076976D02*
X12479167Y-15115071D01*
X12774405Y-15353167D02*
X12764881Y-15343643D01*
X12745833Y-15315071D01*
X12736309Y-15296024D01*
X12726786Y-15267452D01*
X12717262Y-15219833D01*
X12717262Y-15181738D01*
X12726786Y-15134119D01*
X12736309Y-15105548D01*
X12745833Y-15086500D01*
X12764881Y-15057928D01*
X12774405Y-15048405D01*
X12888690Y-15076976D02*
X12907738Y-15076976D01*
X12926786Y-15086500D01*
X12936309Y-15096024D01*
X12945833Y-15115071D01*
X12955357Y-15153167D01*
X12955357Y-15200786D01*
X12945833Y-15238881D01*
X12936309Y-15257928D01*
X12926786Y-15267452D01*
X12907738Y-15276976D01*
X12888690Y-15276976D01*
X12869643Y-15267452D01*
X12860119Y-15257928D01*
X12850595Y-15238881D01*
X12841071Y-15200786D01*
X12841071Y-15153167D01*
X12850595Y-15115071D01*
X12860119Y-15096024D01*
X12869643Y-15086500D01*
X12888690Y-15076976D01*
X13193452Y-15276976D02*
X13193452Y-15076976D01*
X13279167Y-15276976D02*
X13279167Y-15172214D01*
X13269643Y-15153167D01*
X13250595Y-15143643D01*
X13222024Y-15143643D01*
X13202976Y-15153167D01*
X13193452Y-15162690D01*
X13402976Y-15276976D02*
X13383928Y-15267452D01*
X13374405Y-15257928D01*
X13364881Y-15238881D01*
X13364881Y-15181738D01*
X13374405Y-15162690D01*
X13383928Y-15153167D01*
X13402976Y-15143643D01*
X13431548Y-15143643D01*
X13450595Y-15153167D01*
X13460119Y-15162690D01*
X13469643Y-15181738D01*
X13469643Y-15238881D01*
X13460119Y-15257928D01*
X13450595Y-15267452D01*
X13431548Y-15276976D01*
X13402976Y-15276976D01*
X13583928Y-15276976D02*
X13564881Y-15267452D01*
X13555357Y-15248405D01*
X13555357Y-15076976D01*
X13736309Y-15267452D02*
X13717262Y-15276976D01*
X13679167Y-15276976D01*
X13660119Y-15267452D01*
X13650595Y-15248405D01*
X13650595Y-15172214D01*
X13660119Y-15153167D01*
X13679167Y-15143643D01*
X13717262Y-15143643D01*
X13736309Y-15153167D01*
X13745833Y-15172214D01*
X13745833Y-15191262D01*
X13650595Y-15210309D01*
X13822024Y-15267452D02*
X13841071Y-15276976D01*
X13879167Y-15276976D01*
X13898214Y-15267452D01*
X13907738Y-15248405D01*
X13907738Y-15238881D01*
X13898214Y-15219833D01*
X13879167Y-15210309D01*
X13850595Y-15210309D01*
X13831548Y-15200786D01*
X13822024Y-15181738D01*
X13822024Y-15172214D01*
X13831548Y-15153167D01*
X13850595Y-15143643D01*
X13879167Y-15143643D01*
X13898214Y-15153167D01*
X14145833Y-15200786D02*
X14298214Y-15200786D01*
X14222024Y-15276976D02*
X14222024Y-15124595D01*
X14574405Y-15162690D02*
X14555357Y-15153167D01*
X14545833Y-15143643D01*
X14536309Y-15124595D01*
X14536309Y-15115071D01*
X14545833Y-15096024D01*
X14555357Y-15086500D01*
X14574405Y-15076976D01*
X14612500Y-15076976D01*
X14631548Y-15086500D01*
X14641071Y-15096024D01*
X14650595Y-15115071D01*
X14650595Y-15124595D01*
X14641071Y-15143643D01*
X14631548Y-15153167D01*
X14612500Y-15162690D01*
X14574405Y-15162690D01*
X14555357Y-15172214D01*
X14545833Y-15181738D01*
X14536309Y-15200786D01*
X14536309Y-15238881D01*
X14545833Y-15257928D01*
X14555357Y-15267452D01*
X14574405Y-15276976D01*
X14612500Y-15276976D01*
X14631548Y-15267452D01*
X14641071Y-15257928D01*
X14650595Y-15238881D01*
X14650595Y-15200786D01*
X14641071Y-15181738D01*
X14631548Y-15172214D01*
X14612500Y-15162690D01*
X14879167Y-15267452D02*
X14898214Y-15276976D01*
X14936309Y-15276976D01*
X14955357Y-15267452D01*
X14964881Y-15248405D01*
X14964881Y-15238881D01*
X14955357Y-15219833D01*
X14936309Y-15210309D01*
X14907738Y-15210309D01*
X14888690Y-15200786D01*
X14879167Y-15181738D01*
X14879167Y-15172214D01*
X14888690Y-15153167D01*
X14907738Y-15143643D01*
X14936309Y-15143643D01*
X14955357Y-15153167D01*
X15079167Y-15276976D02*
X15060119Y-15267452D01*
X15050595Y-15248405D01*
X15050595Y-15076976D01*
X15183928Y-15276976D02*
X15164881Y-15267452D01*
X15155357Y-15257928D01*
X15145833Y-15238881D01*
X15145833Y-15181738D01*
X15155357Y-15162690D01*
X15164881Y-15153167D01*
X15183928Y-15143643D01*
X15212500Y-15143643D01*
X15231548Y-15153167D01*
X15241071Y-15162690D01*
X15250595Y-15181738D01*
X15250595Y-15238881D01*
X15241071Y-15257928D01*
X15231548Y-15267452D01*
X15212500Y-15276976D01*
X15183928Y-15276976D01*
X15307738Y-15143643D02*
X15383928Y-15143643D01*
X15336309Y-15076976D02*
X15336309Y-15248405D01*
X15345833Y-15267452D01*
X15364881Y-15276976D01*
X15383928Y-15276976D01*
X15441071Y-15267452D02*
X15460119Y-15276976D01*
X15498214Y-15276976D01*
X15517262Y-15267452D01*
X15526786Y-15248405D01*
X15526786Y-15238881D01*
X15517262Y-15219833D01*
X15498214Y-15210309D01*
X15469643Y-15210309D01*
X15450595Y-15200786D01*
X15441071Y-15181738D01*
X15441071Y-15172214D01*
X15450595Y-15153167D01*
X15469643Y-15143643D01*
X15498214Y-15143643D01*
X15517262Y-15153167D01*
X15593452Y-15353167D02*
X15602976Y-15343643D01*
X15622024Y-15315071D01*
X15631548Y-15296024D01*
X15641071Y-15267452D01*
X15650595Y-15219833D01*
X15650595Y-15181738D01*
X15641071Y-15134119D01*
X15631548Y-15105548D01*
X15622024Y-15086500D01*
X15602976Y-15057928D01*
X15593452Y-15048405D01*
D13*
X9202500Y-15450500D02*
G75*
G03*
X9202500Y-15450500I-50000J0D01*
G01*
D11*
X9564881Y-15540976D02*
X9450595Y-15540976D01*
X9507738Y-15540976D02*
X9507738Y-15340976D01*
X9488690Y-15369548D01*
X9469643Y-15388595D01*
X9450595Y-15398119D01*
X9650595Y-15521928D02*
X9660119Y-15531452D01*
X9650595Y-15540976D01*
X9641071Y-15531452D01*
X9650595Y-15521928D01*
X9650595Y-15540976D01*
X9783929Y-15340976D02*
X9802976Y-15340976D01*
X9822024Y-15350500D01*
X9831548Y-15360024D01*
X9841071Y-15379071D01*
X9850595Y-15417167D01*
X9850595Y-15464786D01*
X9841071Y-15502881D01*
X9831548Y-15521928D01*
X9822024Y-15531452D01*
X9802976Y-15540976D01*
X9783929Y-15540976D01*
X9764881Y-15531452D01*
X9755357Y-15521928D01*
X9745833Y-15502881D01*
X9736310Y-15464786D01*
X9736310Y-15417167D01*
X9745833Y-15379071D01*
X9755357Y-15360024D01*
X9764881Y-15350500D01*
X9783929Y-15340976D01*
X9974405Y-15340976D02*
X9993452Y-15340976D01*
X10012500Y-15350500D01*
X10022024Y-15360024D01*
X10031548Y-15379071D01*
X10041071Y-15417167D01*
X10041071Y-15464786D01*
X10031548Y-15502881D01*
X10022024Y-15521928D01*
X10012500Y-15531452D01*
X9993452Y-15540976D01*
X9974405Y-15540976D01*
X9955357Y-15531452D01*
X9945833Y-15521928D01*
X9936310Y-15502881D01*
X9926786Y-15464786D01*
X9926786Y-15417167D01*
X9936310Y-15379071D01*
X9945833Y-15360024D01*
X9955357Y-15350500D01*
X9974405Y-15340976D01*
X10164881Y-15340976D02*
X10183929Y-15340976D01*
X10202976Y-15350500D01*
X10212500Y-15360024D01*
X10222024Y-15379071D01*
X10231548Y-15417167D01*
X10231548Y-15464786D01*
X10222024Y-15502881D01*
X10212500Y-15521928D01*
X10202976Y-15531452D01*
X10183929Y-15540976D01*
X10164881Y-15540976D01*
X10145833Y-15531452D01*
X10136310Y-15521928D01*
X10126786Y-15502881D01*
X10117262Y-15464786D01*
X10117262Y-15417167D01*
X10126786Y-15379071D01*
X10136310Y-15360024D01*
X10145833Y-15350500D01*
X10164881Y-15340976D01*
X10317262Y-15540976D02*
X10317262Y-15407643D01*
X10317262Y-15426690D02*
X10326786Y-15417167D01*
X10345833Y-15407643D01*
X10374405Y-15407643D01*
X10393452Y-15417167D01*
X10402976Y-15436214D01*
X10402976Y-15540976D01*
X10402976Y-15436214D02*
X10412500Y-15417167D01*
X10431548Y-15407643D01*
X10460119Y-15407643D01*
X10479167Y-15417167D01*
X10488690Y-15436214D01*
X10488690Y-15540976D01*
X10583929Y-15540976D02*
X10583929Y-15407643D01*
X10583929Y-15426690D02*
X10593452Y-15417167D01*
X10612500Y-15407643D01*
X10641071Y-15407643D01*
X10660119Y-15417167D01*
X10669643Y-15436214D01*
X10669643Y-15540976D01*
X10669643Y-15436214D02*
X10679167Y-15417167D01*
X10698214Y-15407643D01*
X10726786Y-15407643D01*
X10745833Y-15417167D01*
X10755357Y-15436214D01*
X10755357Y-15540976D01*
X11145833Y-15331452D02*
X10974405Y-15588595D01*
X11402976Y-15340976D02*
X11422024Y-15340976D01*
X11441071Y-15350500D01*
X11450595Y-15360024D01*
X11460119Y-15379071D01*
X11469643Y-15417167D01*
X11469643Y-15464786D01*
X11460119Y-15502881D01*
X11450595Y-15521928D01*
X11441071Y-15531452D01*
X11422024Y-15540976D01*
X11402976Y-15540976D01*
X11383928Y-15531452D01*
X11374405Y-15521928D01*
X11364881Y-15502881D01*
X11355357Y-15464786D01*
X11355357Y-15417167D01*
X11364881Y-15379071D01*
X11374405Y-15360024D01*
X11383928Y-15350500D01*
X11402976Y-15340976D01*
X11555357Y-15521928D02*
X11564881Y-15531452D01*
X11555357Y-15540976D01*
X11545833Y-15531452D01*
X11555357Y-15521928D01*
X11555357Y-15540976D01*
X11688690Y-15340976D02*
X11707738Y-15340976D01*
X11726786Y-15350500D01*
X11736309Y-15360024D01*
X11745833Y-15379071D01*
X11755357Y-15417167D01*
X11755357Y-15464786D01*
X11745833Y-15502881D01*
X11736309Y-15521928D01*
X11726786Y-15531452D01*
X11707738Y-15540976D01*
X11688690Y-15540976D01*
X11669643Y-15531452D01*
X11660119Y-15521928D01*
X11650595Y-15502881D01*
X11641071Y-15464786D01*
X11641071Y-15417167D01*
X11650595Y-15379071D01*
X11660119Y-15360024D01*
X11669643Y-15350500D01*
X11688690Y-15340976D01*
X11822024Y-15340976D02*
X11945833Y-15340976D01*
X11879167Y-15417167D01*
X11907738Y-15417167D01*
X11926786Y-15426690D01*
X11936309Y-15436214D01*
X11945833Y-15455262D01*
X11945833Y-15502881D01*
X11936309Y-15521928D01*
X11926786Y-15531452D01*
X11907738Y-15540976D01*
X11850595Y-15540976D01*
X11831548Y-15531452D01*
X11822024Y-15521928D01*
X12041071Y-15540976D02*
X12079167Y-15540976D01*
X12098214Y-15531452D01*
X12107738Y-15521928D01*
X12126786Y-15493357D01*
X12136309Y-15455262D01*
X12136309Y-15379071D01*
X12126786Y-15360024D01*
X12117262Y-15350500D01*
X12098214Y-15340976D01*
X12060119Y-15340976D01*
X12041071Y-15350500D01*
X12031548Y-15360024D01*
X12022024Y-15379071D01*
X12022024Y-15426690D01*
X12031548Y-15445738D01*
X12041071Y-15455262D01*
X12060119Y-15464786D01*
X12098214Y-15464786D01*
X12117262Y-15455262D01*
X12126786Y-15445738D01*
X12136309Y-15426690D01*
X12307738Y-15407643D02*
X12307738Y-15540976D01*
X12260119Y-15331452D02*
X12212500Y-15474309D01*
X12336309Y-15474309D01*
X12402976Y-15340976D02*
X12402976Y-15379071D01*
X12479167Y-15340976D02*
X12479167Y-15379071D01*
X12774405Y-15617167D02*
X12764881Y-15607643D01*
X12745833Y-15579071D01*
X12736309Y-15560024D01*
X12726786Y-15531452D01*
X12717262Y-15483833D01*
X12717262Y-15445738D01*
X12726786Y-15398119D01*
X12736309Y-15369548D01*
X12745833Y-15350500D01*
X12764881Y-15321928D01*
X12774405Y-15312405D01*
X12955357Y-15540976D02*
X12841071Y-15540976D01*
X12898214Y-15540976D02*
X12898214Y-15340976D01*
X12879167Y-15369548D01*
X12860119Y-15388595D01*
X12841071Y-15398119D01*
X13136309Y-15340976D02*
X13041071Y-15340976D01*
X13031548Y-15436214D01*
X13041071Y-15426690D01*
X13060119Y-15417167D01*
X13107738Y-15417167D01*
X13126786Y-15426690D01*
X13136309Y-15436214D01*
X13145833Y-15455262D01*
X13145833Y-15502881D01*
X13136309Y-15521928D01*
X13126786Y-15531452D01*
X13107738Y-15540976D01*
X13060119Y-15540976D01*
X13041071Y-15531452D01*
X13031548Y-15521928D01*
X13383928Y-15540976D02*
X13383928Y-15340976D01*
X13469643Y-15540976D02*
X13469643Y-15436214D01*
X13460119Y-15417167D01*
X13441071Y-15407643D01*
X13412500Y-15407643D01*
X13393452Y-15417167D01*
X13383928Y-15426690D01*
X13593452Y-15540976D02*
X13574405Y-15531452D01*
X13564881Y-15521928D01*
X13555357Y-15502881D01*
X13555357Y-15445738D01*
X13564881Y-15426690D01*
X13574405Y-15417167D01*
X13593452Y-15407643D01*
X13622024Y-15407643D01*
X13641071Y-15417167D01*
X13650595Y-15426690D01*
X13660119Y-15445738D01*
X13660119Y-15502881D01*
X13650595Y-15521928D01*
X13641071Y-15531452D01*
X13622024Y-15540976D01*
X13593452Y-15540976D01*
X13774405Y-15540976D02*
X13755357Y-15531452D01*
X13745833Y-15512405D01*
X13745833Y-15340976D01*
X13926786Y-15531452D02*
X13907738Y-15540976D01*
X13869643Y-15540976D01*
X13850595Y-15531452D01*
X13841071Y-15512405D01*
X13841071Y-15436214D01*
X13850595Y-15417167D01*
X13869643Y-15407643D01*
X13907738Y-15407643D01*
X13926786Y-15417167D01*
X13936309Y-15436214D01*
X13936309Y-15455262D01*
X13841071Y-15474309D01*
X14012500Y-15531452D02*
X14031548Y-15540976D01*
X14069643Y-15540976D01*
X14088690Y-15531452D01*
X14098214Y-15512405D01*
X14098214Y-15502881D01*
X14088690Y-15483833D01*
X14069643Y-15474309D01*
X14041071Y-15474309D01*
X14022024Y-15464786D01*
X14012500Y-15445738D01*
X14012500Y-15436214D01*
X14022024Y-15417167D01*
X14041071Y-15407643D01*
X14069643Y-15407643D01*
X14088690Y-15417167D01*
X14164881Y-15617167D02*
X14174405Y-15607643D01*
X14193452Y-15579071D01*
X14202976Y-15560024D01*
X14212500Y-15531452D01*
X14222024Y-15483833D01*
X14222024Y-15445738D01*
X14212500Y-15398119D01*
X14202976Y-15369548D01*
X14193452Y-15350500D01*
X14174405Y-15321928D01*
X14164881Y-15312405D01*
M02*
