%TF.GenerationSoftware,KiCad,Pcbnew,(6.0.1-0)*%
%TF.CreationDate,2022-02-06T12:01:47+08:00*%
%TF.ProjectId,Phalanx,5068616c-616e-4782-9e6b-696361645f70,rev?*%
%TF.SameCoordinates,Original*%
%TF.FileFunction,Copper,L2,Bot*%
%TF.FilePolarity,Positive*%
%FSLAX46Y46*%
G04 Gerber Fmt 4.6, Leading zero omitted, Abs format (unit mm)*
G04 Created by KiCad (PCBNEW (6.0.1-0)) date 2022-02-06 12:01:47*
%MOMM*%
%LPD*%
G01*
G04 APERTURE LIST*
%TA.AperFunction,ComponentPad*%
%ADD10R,1.700000X1.700000*%
%TD*%
%TA.AperFunction,ComponentPad*%
%ADD11O,1.700000X1.700000*%
%TD*%
%TA.AperFunction,SMDPad,CuDef*%
%ADD12R,2.550000X2.500000*%
%TD*%
%TA.AperFunction,ComponentPad*%
%ADD13O,2.500000X2.000000*%
%TD*%
%TA.AperFunction,Conductor*%
%ADD14C,0.250000*%
%TD*%
G04 APERTURE END LIST*
D10*
%TO.P,J1,1,Pin_1*%
%TO.N,Col1*%
X104140000Y-54610000D03*
D11*
%TO.P,J1,2,Pin_2*%
%TO.N,Row1*%
X104140000Y-57150000D03*
%TO.P,J1,3,Pin_3*%
%TO.N,Row2*%
X104140000Y-59690000D03*
%TO.P,J1,4,Pin_4*%
%TO.N,Row3*%
X104140000Y-62230000D03*
%TO.P,J1,5,Pin_5*%
%TO.N,Row4*%
X104140000Y-64770000D03*
%TD*%
D12*
%TO.P,SW3,1,1*%
%TO.N,Col1*%
X94515000Y-114300000D03*
D13*
X99060000Y-121920000D03*
D12*
%TO.P,SW3,2,2*%
%TO.N,Row3*%
X107442000Y-111760000D03*
D13*
X105410000Y-119380000D03*
%TD*%
D12*
%TO.P,SW4,1,1*%
%TO.N,Col1*%
X94515000Y-133350000D03*
D13*
X99060000Y-140970000D03*
%TO.P,SW4,2,2*%
%TO.N,Row4*%
X105410000Y-138430000D03*
D12*
X107442000Y-130810000D03*
%TD*%
%TO.P,SW2,1,1*%
%TO.N,Col1*%
X94515000Y-95250000D03*
D13*
X99060000Y-102870000D03*
%TO.P,SW2,2,2*%
%TO.N,Row2*%
X105410000Y-100330000D03*
D12*
X107442000Y-92710000D03*
%TD*%
D10*
%TO.P,J2,1,Pin_1*%
%TO.N,Col1*%
X99060000Y-54610000D03*
D11*
%TO.P,J2,2,Pin_2*%
%TO.N,Row1*%
X99060000Y-57150000D03*
%TO.P,J2,3,Pin_3*%
%TO.N,Row2*%
X99060000Y-59690000D03*
%TO.P,J2,4,Pin_4*%
%TO.N,Row3*%
X99060000Y-62230000D03*
%TO.P,J2,5,Pin_5*%
%TO.N,Row4*%
X99060000Y-64770000D03*
%TD*%
D10*
%TO.P,J3,1,Pin_1*%
%TO.N,Col1*%
X96520000Y-144145000D03*
D11*
%TO.P,J3,2,Pin_2*%
%TO.N,Row1*%
X99060000Y-144145000D03*
%TO.P,J3,3,Pin_3*%
%TO.N,Row2*%
X101600000Y-144145000D03*
%TO.P,J3,4,Pin_4*%
%TO.N,Row3*%
X104140000Y-144145000D03*
%TO.P,J3,5,Pin_5*%
%TO.N,Row4*%
X106680000Y-144145000D03*
%TD*%
D13*
%TO.P,SW1,1,1*%
%TO.N,Col1*%
X99060000Y-83820000D03*
D12*
X94515000Y-76200000D03*
D13*
%TO.P,SW1,2,2*%
%TO.N,Row1*%
X105410000Y-81280000D03*
D12*
X107442000Y-73660000D03*
%TD*%
D14*
%TO.N,Row1*%
X107442000Y-73660000D02*
X108004521Y-74222521D01*
X106410000Y-81280000D02*
X105410000Y-81280000D01*
X108004521Y-74222521D02*
X108004521Y-79685479D01*
X108004521Y-79685479D02*
X106410000Y-81280000D01*
X102694532Y-60784532D02*
X102694532Y-68912532D01*
X99060000Y-57150000D02*
X102694532Y-60784532D01*
X102694532Y-68912532D02*
X107442000Y-73660000D01*
%TO.N,Col1*%
X99060000Y-104120000D02*
X94515000Y-108665000D01*
X99060000Y-140970000D02*
X96520000Y-143510000D01*
X96774000Y-56896000D02*
X96774000Y-73966000D01*
X94515000Y-114300000D02*
X94515000Y-117375000D01*
X94515000Y-76200000D02*
X94515000Y-79275000D01*
X94515000Y-79275000D02*
X99060000Y-83820000D01*
X94515000Y-136425000D02*
X99060000Y-140970000D01*
X96520000Y-143510000D02*
X96520000Y-144145000D01*
X99060000Y-90705000D02*
X94515000Y-95250000D01*
X99060000Y-121920000D02*
X99060000Y-128805000D01*
X94515000Y-133350000D02*
X94515000Y-136425000D01*
X94515000Y-95250000D02*
X94515000Y-98325000D01*
X96774000Y-73966000D02*
X94540000Y-76200000D01*
X94515000Y-117375000D02*
X99060000Y-121920000D01*
X99060000Y-128805000D02*
X94515000Y-133350000D01*
X99060000Y-83820000D02*
X99060000Y-90705000D01*
X94540000Y-76200000D02*
X94515000Y-76200000D01*
X99060000Y-102870000D02*
X99060000Y-104120000D01*
X94515000Y-98325000D02*
X99060000Y-102870000D01*
X99060000Y-54610000D02*
X96774000Y-56896000D01*
X94515000Y-108665000D02*
X94515000Y-114300000D01*
%TO.N,Row2*%
X102245022Y-62875022D02*
X102245022Y-75194022D01*
X107442000Y-93853000D02*
X104775000Y-96520000D01*
X99060000Y-59690000D02*
X102245022Y-62875022D01*
X104424031Y-77373031D02*
X104424031Y-79909754D01*
X102499021Y-81834764D02*
X102499021Y-87767021D01*
X102245022Y-75194022D02*
X104424031Y-77373031D01*
X104775000Y-99695000D02*
X105410000Y-100330000D01*
X104424031Y-79909754D02*
X102499021Y-81834764D01*
X102499021Y-87767021D02*
X107442000Y-92710000D01*
X107442000Y-92710000D02*
X107442000Y-93853000D01*
X104775000Y-96520000D02*
X104775000Y-99695000D01*
%TO.N,Row3*%
X107442000Y-111760000D02*
X105355479Y-113846521D01*
X101795511Y-64965511D02*
X101795511Y-75577430D01*
X105355479Y-113846521D02*
X105355479Y-119325479D01*
X101854000Y-81844081D02*
X101854000Y-94685919D01*
X101795511Y-75577430D02*
X103974521Y-77756440D01*
X103974521Y-96806440D02*
X103974521Y-98971479D01*
X103974521Y-77756440D02*
X103974521Y-79723560D01*
X103974521Y-79723560D02*
X101854000Y-81844081D01*
X103974521Y-98971479D02*
X101854000Y-101092000D01*
X107417000Y-111760000D02*
X107442000Y-111760000D01*
X101854000Y-94685919D02*
X103974521Y-96806440D01*
X101854000Y-101092000D02*
X101854000Y-106197000D01*
X105355479Y-119325479D02*
X105410000Y-119380000D01*
X99060000Y-62230000D02*
X101795511Y-64965511D01*
X101854000Y-106197000D02*
X107417000Y-111760000D01*
%TO.N,Row4*%
X101346000Y-124714000D02*
X107442000Y-130810000D01*
X99225479Y-77558521D02*
X99225479Y-79723560D01*
X101346000Y-101092000D02*
X101346000Y-113735919D01*
X101346000Y-67056000D02*
X101346000Y-75438000D01*
X101289919Y-94599568D02*
X99225479Y-96664008D01*
X99225479Y-98971479D02*
X101346000Y-101092000D01*
X99225479Y-96664008D02*
X99225479Y-98971479D01*
X101289919Y-81788000D02*
X101289919Y-94599568D01*
X105355479Y-132896521D02*
X105355479Y-138375479D01*
X99225479Y-79723560D02*
X101289919Y-81788000D01*
X99225479Y-115856440D02*
X99225479Y-118021479D01*
X107442000Y-130810000D02*
X105355479Y-132896521D01*
X99225479Y-118021479D02*
X101346000Y-120142000D01*
X101346000Y-75438000D02*
X99225479Y-77558521D01*
X99060000Y-64770000D02*
X101346000Y-67056000D01*
X101346000Y-113735919D02*
X99225479Y-115856440D01*
X101346000Y-120142000D02*
X101346000Y-124714000D01*
X105355479Y-138375479D02*
X105410000Y-138430000D01*
%TD*%
M02*
