M48
; DRILL file {KiCad (6.0.4-0)} date 2022 March 28, Monday 13:48:53
; FORMAT={-:-/ absolute / metric / decimal}
; #@! TF.CreationDate,2022-03-28T13:48:53+08:00
; #@! TF.GenerationSoftware,Kicad,Pcbnew,(6.0.4-0)
; #@! TF.FileFunction,Plated,1,2,PTH
FMAT,2
METRIC
; #@! TA.AperFunction,Plated,PTH,ComponentDrill
T1C0.800
; #@! TA.AperFunction,Plated,PTH,ComponentDrill
T2C1.000
%
G90
G05
T2
X96.52Y-144.145
X99.06Y-54.61
X99.06Y-57.15
X99.06Y-59.69
X99.06Y-62.23
X99.06Y-64.77
X99.06Y-144.145
X101.6Y-144.145
X104.14Y-54.61
X104.14Y-57.15
X104.14Y-59.69
X104.14Y-62.23
X104.14Y-64.77
X104.14Y-144.145
X106.68Y-144.145
T1
X99.26Y-83.82G85X98.86Y-83.82
G05
X99.26Y-102.87G85X98.86Y-102.87
G05
X99.26Y-121.92G85X98.86Y-121.92
G05
X99.26Y-140.97G85X98.86Y-140.97
G05
X105.61Y-81.28G85X105.21Y-81.28
G05
X105.61Y-100.33G85X105.21Y-100.33
G05
X105.61Y-119.38G85X105.21Y-119.38
G05
X105.61Y-138.43G85X105.21Y-138.43
G05
T0
M30
