M48
; DRILL file {KiCad (6.0.1-0)} date 2022 February 06, Sunday 13:56:43
; FORMAT={-:-/ absolute / metric / decimal}
; #@! TF.CreationDate,2022-02-06T13:56:43+08:00
; #@! TF.GenerationSoftware,Kicad,Pcbnew,(6.0.1-0)
; #@! TF.FileFunction,NonPlated,1,2,NPTH
FMAT,2
METRIC
; #@! TA.AperFunction,NonPlated,NPTH,ComponentDrill
T1C1.900
; #@! TA.AperFunction,NonPlated,NPTH,ComponentDrill
T2C3.000
; #@! TA.AperFunction,NonPlated,NPTH,ComponentDrill
T3C4.000
%
G90
G05
T1
X96.52Y-78.74
X96.52Y-97.79
X96.52Y-116.84
X96.52Y-135.89
X106.68Y-78.74
X106.68Y-97.79
X106.68Y-116.84
X106.68Y-135.89
T2
X97.79Y-76.2
X97.79Y-95.25
X97.79Y-114.3
X97.79Y-133.35
X104.14Y-73.66
X104.14Y-92.71
X104.14Y-111.76
X104.14Y-130.81
T3
X101.6Y-78.74
X101.6Y-97.79
X101.6Y-116.84
X101.6Y-135.89
T0
M30
