%FSLAX45Y45*%
G04 Gerber Fmt 4.5, Leading zero omitted, Abs format (unit mm)*
G04 Created by KiCad (PCBNEW (6.0.4-0)) date 2022-03-28 13:48:54*
%MOMM*%
%LPD*%
G01*
G04 APERTURE LIST*
%TA.AperFunction,Profile*%
%ADD10C,0.100000*%
%TD*%
%ADD11C,0.200000*%
%ADD12C,0.080000*%
%ADD13C,0.190000*%
%ADD14C,0.300000*%
%ADD15C,0.400000*%
G04 APERTURE END LIST*
D10*
X11099795Y-10985499D02*
G75*
G03*
X10985500Y-10858500I-114295J12069D01*
G01*
X9334500Y-12763500D02*
G75*
G03*
X9334500Y-12509500I0J127000D01*
G01*
X11099800Y-10490200D02*
X11099800Y-9067800D01*
X9220200Y-14414500D02*
G75*
G03*
X9347200Y-14541500I127000J0D01*
G01*
X11099800Y-8585200D02*
X11098897Y-7048500D01*
X10985500Y-10604500D02*
G75*
G03*
X10985500Y-10858500I0J-127000D01*
G01*
X9220200Y-8585200D02*
G75*
G03*
X9334500Y-8699500I114300J0D01*
G01*
X11098900Y-7048500D02*
G75*
G03*
X10971897Y-6921500I-127000J0D01*
G01*
X9334500Y-10858500D02*
G75*
G03*
X9220200Y-10972800I0J-114300D01*
G01*
X9334500Y-8953500D02*
G75*
G03*
X9220200Y-9067800I0J-114300D01*
G01*
X10858504Y-6794500D02*
G75*
G03*
X10971897Y-6921500I127816J0D01*
G01*
X10731500Y-5016500D02*
X9588500Y-5016500D01*
X10985500Y-8699500D02*
G75*
G03*
X11099800Y-8585200I0J114300D01*
G01*
X9220200Y-12395200D02*
G75*
G03*
X9334500Y-12509500I103390J-10910D01*
G01*
X10985500Y-10604500D02*
G75*
G03*
X11099800Y-10490200I0J114300D01*
G01*
X11099800Y-12395200D02*
X11099800Y-10985500D01*
X10985500Y-12509500D02*
G75*
G03*
X10985500Y-12763500I0J-127000D01*
G01*
X9334500Y-10858500D02*
G75*
G03*
X9334500Y-10604500I0J127000D01*
G01*
X11099800Y-9067800D02*
G75*
G03*
X10985500Y-8953500I-114300J0D01*
G01*
X10858500Y-5143500D02*
G75*
G03*
X10731500Y-5016500I-127000J0D01*
G01*
X9588500Y-5016500D02*
G75*
G03*
X9461500Y-5143500I0J-127000D01*
G01*
X9220200Y-9067800D02*
X9220200Y-10490200D01*
X9348103Y-6922407D02*
G75*
G03*
X9220200Y-7048500I-3J-127913D01*
G01*
X9334500Y-12763500D02*
G75*
G03*
X9220200Y-12877800I0J-114300D01*
G01*
X9220200Y-10972800D02*
X9220200Y-12395200D01*
X10971897Y-14541493D02*
G75*
G03*
X11099800Y-14414500I3J127903D01*
G01*
X9348103Y-6922402D02*
G75*
G03*
X9461500Y-6794500I-15433J127902D01*
G01*
X9220200Y-12877800D02*
X9220200Y-14414500D01*
X11099800Y-12877800D02*
G75*
G03*
X10985500Y-12763500I-114300J0D01*
G01*
X9347200Y-14541500D02*
X10971897Y-14541500D01*
X9220200Y-10490200D02*
G75*
G03*
X9334500Y-10604500I114350J50D01*
G01*
X10985500Y-12509500D02*
G75*
G03*
X11099800Y-12395200I0J114300D01*
G01*
X10985500Y-8699500D02*
G75*
G03*
X10985500Y-8953500I0J-127000D01*
G01*
X9461500Y-5143500D02*
X9461500Y-6794500D01*
X9334500Y-8953500D02*
G75*
G03*
X9334500Y-8699500I0J127000D01*
G01*
X11099800Y-14414500D02*
X11099800Y-12877800D01*
X10858500Y-6794500D02*
X10858500Y-5143500D01*
X9220200Y-7048500D02*
X9220200Y-8585200D01*
D11*
D12*
X9612000Y-12596500D02*
X9692000Y-12676500D01*
X9692000Y-12596500D02*
X9612000Y-12676500D01*
X9866000Y-12596500D02*
X9946000Y-12676500D01*
X9946000Y-12596500D02*
X9866000Y-12676500D01*
X10120000Y-12596500D02*
X10200000Y-12676500D01*
X10200000Y-12596500D02*
X10120000Y-12676500D01*
X10374000Y-12596500D02*
X10454000Y-12676500D01*
X10454000Y-12596500D02*
X10374000Y-12676500D01*
X10628000Y-12596500D02*
X10708000Y-12676500D01*
X10708000Y-12596500D02*
X10628000Y-12676500D01*
D13*
X9747000Y-7874000D02*
G75*
G03*
X9747000Y-7874000I-95000J0D01*
G01*
X9747000Y-9779000D02*
G75*
G03*
X9747000Y-9779000I-95000J0D01*
G01*
X9747000Y-11684000D02*
G75*
G03*
X9747000Y-11684000I-95000J0D01*
G01*
X9747000Y-13589000D02*
G75*
G03*
X9747000Y-13589000I-95000J0D01*
G01*
X10763000Y-7874000D02*
G75*
G03*
X10763000Y-7874000I-95000J0D01*
G01*
X10763000Y-9779000D02*
G75*
G03*
X10763000Y-9779000I-95000J0D01*
G01*
X10763000Y-11684000D02*
G75*
G03*
X10763000Y-11684000I-95000J0D01*
G01*
X10763000Y-13589000D02*
G75*
G03*
X10763000Y-13589000I-95000J0D01*
G01*
D14*
X9779000Y-7470000D02*
X9779000Y-7770000D01*
X9629000Y-7620000D02*
X9929000Y-7620000D01*
X9779000Y-9375000D02*
X9779000Y-9675000D01*
X9629000Y-9525000D02*
X9929000Y-9525000D01*
X9779000Y-11280000D02*
X9779000Y-11580000D01*
X9629000Y-11430000D02*
X9929000Y-11430000D01*
X9779000Y-13185000D02*
X9779000Y-13485000D01*
X9629000Y-13335000D02*
X9929000Y-13335000D01*
X10414000Y-7216000D02*
X10414000Y-7516000D01*
X10264000Y-7366000D02*
X10564000Y-7366000D01*
X10414000Y-9121000D02*
X10414000Y-9421000D01*
X10264000Y-9271000D02*
X10564000Y-9271000D01*
X10414000Y-11026000D02*
X10414000Y-11326000D01*
X10264000Y-11176000D02*
X10564000Y-11176000D01*
X10414000Y-12931000D02*
X10414000Y-13231000D01*
X10264000Y-13081000D02*
X10564000Y-13081000D01*
D15*
X10301423Y-8015423D02*
X10301423Y-7732577D01*
X10018577Y-7732577D01*
X10018577Y-8015423D01*
X10301423Y-8015423D01*
X10301423Y-9920423D02*
X10301423Y-9637577D01*
X10018577Y-9637577D01*
X10018577Y-9920423D01*
X10301423Y-9920423D01*
X10301423Y-11825423D02*
X10301423Y-11542577D01*
X10018577Y-11542577D01*
X10018577Y-11825423D01*
X10301423Y-11825423D01*
X10301423Y-13730423D02*
X10301423Y-13447577D01*
X10018577Y-13447577D01*
X10018577Y-13730423D01*
X10301423Y-13730423D01*
D11*
X9472245Y-14856976D02*
X9472245Y-14656976D01*
X9519864Y-14656976D01*
X9548436Y-14666500D01*
X9567483Y-14685548D01*
X9577007Y-14704595D01*
X9586531Y-14742690D01*
X9586531Y-14771262D01*
X9577007Y-14809357D01*
X9567483Y-14828405D01*
X9548436Y-14847452D01*
X9519864Y-14856976D01*
X9472245Y-14856976D01*
X9672245Y-14856976D02*
X9672245Y-14723643D01*
X9672245Y-14761738D02*
X9681769Y-14742690D01*
X9691293Y-14733167D01*
X9710340Y-14723643D01*
X9729388Y-14723643D01*
X9796055Y-14856976D02*
X9796055Y-14723643D01*
X9796055Y-14656976D02*
X9786531Y-14666500D01*
X9796055Y-14676024D01*
X9805578Y-14666500D01*
X9796055Y-14656976D01*
X9796055Y-14676024D01*
X9919864Y-14856976D02*
X9900816Y-14847452D01*
X9891293Y-14828405D01*
X9891293Y-14656976D01*
X10024626Y-14856976D02*
X10005578Y-14847452D01*
X9996055Y-14828405D01*
X9996055Y-14656976D01*
X10253197Y-14856976D02*
X10253197Y-14656976D01*
X10319864Y-14799833D01*
X10386531Y-14656976D01*
X10386531Y-14856976D01*
X10567483Y-14856976D02*
X10567483Y-14752214D01*
X10557959Y-14733167D01*
X10538912Y-14723643D01*
X10500816Y-14723643D01*
X10481769Y-14733167D01*
X10567483Y-14847452D02*
X10548436Y-14856976D01*
X10500816Y-14856976D01*
X10481769Y-14847452D01*
X10472245Y-14828405D01*
X10472245Y-14809357D01*
X10481769Y-14790309D01*
X10500816Y-14780786D01*
X10548436Y-14780786D01*
X10567483Y-14771262D01*
X10662721Y-14723643D02*
X10662721Y-14923643D01*
X10662721Y-14733167D02*
X10681769Y-14723643D01*
X10719864Y-14723643D01*
X10738912Y-14733167D01*
X10748436Y-14742690D01*
X10757959Y-14761738D01*
X10757959Y-14818881D01*
X10748436Y-14837928D01*
X10738912Y-14847452D01*
X10719864Y-14856976D01*
X10681769Y-14856976D01*
X10662721Y-14847452D01*
X10843674Y-14837928D02*
X10853197Y-14847452D01*
X10843674Y-14856976D01*
X10834150Y-14847452D01*
X10843674Y-14837928D01*
X10843674Y-14856976D01*
X10843674Y-14733167D02*
X10853197Y-14742690D01*
X10843674Y-14752214D01*
X10834150Y-14742690D01*
X10843674Y-14733167D01*
X10843674Y-14752214D01*
D12*
X9134626Y-15146500D02*
X9214626Y-15226500D01*
X9214626Y-15146500D02*
X9134626Y-15226500D01*
D11*
X9510340Y-15076976D02*
X9529388Y-15076976D01*
X9548436Y-15086500D01*
X9557959Y-15096024D01*
X9567483Y-15115071D01*
X9577007Y-15153167D01*
X9577007Y-15200786D01*
X9567483Y-15238881D01*
X9557959Y-15257928D01*
X9548436Y-15267452D01*
X9529388Y-15276976D01*
X9510340Y-15276976D01*
X9491293Y-15267452D01*
X9481769Y-15257928D01*
X9472245Y-15238881D01*
X9462721Y-15200786D01*
X9462721Y-15153167D01*
X9472245Y-15115071D01*
X9481769Y-15096024D01*
X9491293Y-15086500D01*
X9510340Y-15076976D01*
X9662721Y-15257928D02*
X9672245Y-15267452D01*
X9662721Y-15276976D01*
X9653197Y-15267452D01*
X9662721Y-15257928D01*
X9662721Y-15276976D01*
X9786531Y-15162690D02*
X9767483Y-15153167D01*
X9757959Y-15143643D01*
X9748436Y-15124595D01*
X9748436Y-15115071D01*
X9757959Y-15096024D01*
X9767483Y-15086500D01*
X9786531Y-15076976D01*
X9824626Y-15076976D01*
X9843674Y-15086500D01*
X9853197Y-15096024D01*
X9862721Y-15115071D01*
X9862721Y-15124595D01*
X9853197Y-15143643D01*
X9843674Y-15153167D01*
X9824626Y-15162690D01*
X9786531Y-15162690D01*
X9767483Y-15172214D01*
X9757959Y-15181738D01*
X9748436Y-15200786D01*
X9748436Y-15238881D01*
X9757959Y-15257928D01*
X9767483Y-15267452D01*
X9786531Y-15276976D01*
X9824626Y-15276976D01*
X9843674Y-15267452D01*
X9853197Y-15257928D01*
X9862721Y-15238881D01*
X9862721Y-15200786D01*
X9853197Y-15181738D01*
X9843674Y-15172214D01*
X9824626Y-15162690D01*
X9986531Y-15076976D02*
X10005578Y-15076976D01*
X10024626Y-15086500D01*
X10034150Y-15096024D01*
X10043674Y-15115071D01*
X10053197Y-15153167D01*
X10053197Y-15200786D01*
X10043674Y-15238881D01*
X10034150Y-15257928D01*
X10024626Y-15267452D01*
X10005578Y-15276976D01*
X9986531Y-15276976D01*
X9967483Y-15267452D01*
X9957959Y-15257928D01*
X9948436Y-15238881D01*
X9938912Y-15200786D01*
X9938912Y-15153167D01*
X9948436Y-15115071D01*
X9957959Y-15096024D01*
X9967483Y-15086500D01*
X9986531Y-15076976D01*
X10177007Y-15076976D02*
X10196055Y-15076976D01*
X10215102Y-15086500D01*
X10224626Y-15096024D01*
X10234150Y-15115071D01*
X10243674Y-15153167D01*
X10243674Y-15200786D01*
X10234150Y-15238881D01*
X10224626Y-15257928D01*
X10215102Y-15267452D01*
X10196055Y-15276976D01*
X10177007Y-15276976D01*
X10157959Y-15267452D01*
X10148436Y-15257928D01*
X10138912Y-15238881D01*
X10129388Y-15200786D01*
X10129388Y-15153167D01*
X10138912Y-15115071D01*
X10148436Y-15096024D01*
X10157959Y-15086500D01*
X10177007Y-15076976D01*
X10329388Y-15276976D02*
X10329388Y-15143643D01*
X10329388Y-15162690D02*
X10338912Y-15153167D01*
X10357959Y-15143643D01*
X10386531Y-15143643D01*
X10405578Y-15153167D01*
X10415102Y-15172214D01*
X10415102Y-15276976D01*
X10415102Y-15172214D02*
X10424626Y-15153167D01*
X10443674Y-15143643D01*
X10472245Y-15143643D01*
X10491293Y-15153167D01*
X10500816Y-15172214D01*
X10500816Y-15276976D01*
X10596055Y-15276976D02*
X10596055Y-15143643D01*
X10596055Y-15162690D02*
X10605578Y-15153167D01*
X10624626Y-15143643D01*
X10653197Y-15143643D01*
X10672245Y-15153167D01*
X10681769Y-15172214D01*
X10681769Y-15276976D01*
X10681769Y-15172214D02*
X10691293Y-15153167D01*
X10710340Y-15143643D01*
X10738912Y-15143643D01*
X10757959Y-15153167D01*
X10767483Y-15172214D01*
X10767483Y-15276976D01*
X11157959Y-15067452D02*
X10986531Y-15324595D01*
X11415102Y-15076976D02*
X11434150Y-15076976D01*
X11453197Y-15086500D01*
X11462721Y-15096024D01*
X11472245Y-15115071D01*
X11481769Y-15153167D01*
X11481769Y-15200786D01*
X11472245Y-15238881D01*
X11462721Y-15257928D01*
X11453197Y-15267452D01*
X11434150Y-15276976D01*
X11415102Y-15276976D01*
X11396054Y-15267452D01*
X11386531Y-15257928D01*
X11377007Y-15238881D01*
X11367483Y-15200786D01*
X11367483Y-15153167D01*
X11377007Y-15115071D01*
X11386531Y-15096024D01*
X11396054Y-15086500D01*
X11415102Y-15076976D01*
X11567483Y-15257928D02*
X11577007Y-15267452D01*
X11567483Y-15276976D01*
X11557959Y-15267452D01*
X11567483Y-15257928D01*
X11567483Y-15276976D01*
X11700816Y-15076976D02*
X11719864Y-15076976D01*
X11738912Y-15086500D01*
X11748435Y-15096024D01*
X11757959Y-15115071D01*
X11767483Y-15153167D01*
X11767483Y-15200786D01*
X11757959Y-15238881D01*
X11748435Y-15257928D01*
X11738912Y-15267452D01*
X11719864Y-15276976D01*
X11700816Y-15276976D01*
X11681769Y-15267452D01*
X11672245Y-15257928D01*
X11662721Y-15238881D01*
X11653197Y-15200786D01*
X11653197Y-15153167D01*
X11662721Y-15115071D01*
X11672245Y-15096024D01*
X11681769Y-15086500D01*
X11700816Y-15076976D01*
X11834150Y-15076976D02*
X11957959Y-15076976D01*
X11891293Y-15153167D01*
X11919864Y-15153167D01*
X11938912Y-15162690D01*
X11948435Y-15172214D01*
X11957959Y-15191262D01*
X11957959Y-15238881D01*
X11948435Y-15257928D01*
X11938912Y-15267452D01*
X11919864Y-15276976D01*
X11862721Y-15276976D01*
X11843674Y-15267452D01*
X11834150Y-15257928D01*
X12148435Y-15276976D02*
X12034150Y-15276976D01*
X12091293Y-15276976D02*
X12091293Y-15076976D01*
X12072245Y-15105548D01*
X12053197Y-15124595D01*
X12034150Y-15134119D01*
X12329388Y-15076976D02*
X12234150Y-15076976D01*
X12224626Y-15172214D01*
X12234150Y-15162690D01*
X12253197Y-15153167D01*
X12300816Y-15153167D01*
X12319864Y-15162690D01*
X12329388Y-15172214D01*
X12338912Y-15191262D01*
X12338912Y-15238881D01*
X12329388Y-15257928D01*
X12319864Y-15267452D01*
X12300816Y-15276976D01*
X12253197Y-15276976D01*
X12234150Y-15267452D01*
X12224626Y-15257928D01*
X12415102Y-15076976D02*
X12415102Y-15115071D01*
X12491293Y-15076976D02*
X12491293Y-15115071D01*
X12786531Y-15353167D02*
X12777007Y-15343643D01*
X12757959Y-15315071D01*
X12748435Y-15296024D01*
X12738912Y-15267452D01*
X12729388Y-15219833D01*
X12729388Y-15181738D01*
X12738912Y-15134119D01*
X12748435Y-15105548D01*
X12757959Y-15086500D01*
X12777007Y-15057928D01*
X12786531Y-15048405D01*
X12957959Y-15076976D02*
X12862721Y-15076976D01*
X12853197Y-15172214D01*
X12862721Y-15162690D01*
X12881769Y-15153167D01*
X12929388Y-15153167D01*
X12948435Y-15162690D01*
X12957959Y-15172214D01*
X12967483Y-15191262D01*
X12967483Y-15238881D01*
X12957959Y-15257928D01*
X12948435Y-15267452D01*
X12929388Y-15276976D01*
X12881769Y-15276976D01*
X12862721Y-15267452D01*
X12853197Y-15257928D01*
X13205578Y-15276976D02*
X13205578Y-15076976D01*
X13291293Y-15276976D02*
X13291293Y-15172214D01*
X13281769Y-15153167D01*
X13262721Y-15143643D01*
X13234150Y-15143643D01*
X13215102Y-15153167D01*
X13205578Y-15162690D01*
X13415102Y-15276976D02*
X13396054Y-15267452D01*
X13386531Y-15257928D01*
X13377007Y-15238881D01*
X13377007Y-15181738D01*
X13386531Y-15162690D01*
X13396054Y-15153167D01*
X13415102Y-15143643D01*
X13443674Y-15143643D01*
X13462721Y-15153167D01*
X13472245Y-15162690D01*
X13481769Y-15181738D01*
X13481769Y-15238881D01*
X13472245Y-15257928D01*
X13462721Y-15267452D01*
X13443674Y-15276976D01*
X13415102Y-15276976D01*
X13596054Y-15276976D02*
X13577007Y-15267452D01*
X13567483Y-15248405D01*
X13567483Y-15076976D01*
X13748435Y-15267452D02*
X13729388Y-15276976D01*
X13691293Y-15276976D01*
X13672245Y-15267452D01*
X13662721Y-15248405D01*
X13662721Y-15172214D01*
X13672245Y-15153167D01*
X13691293Y-15143643D01*
X13729388Y-15143643D01*
X13748435Y-15153167D01*
X13757959Y-15172214D01*
X13757959Y-15191262D01*
X13662721Y-15210309D01*
X13834150Y-15267452D02*
X13853197Y-15276976D01*
X13891293Y-15276976D01*
X13910340Y-15267452D01*
X13919864Y-15248405D01*
X13919864Y-15238881D01*
X13910340Y-15219833D01*
X13891293Y-15210309D01*
X13862721Y-15210309D01*
X13843674Y-15200786D01*
X13834150Y-15181738D01*
X13834150Y-15172214D01*
X13843674Y-15153167D01*
X13862721Y-15143643D01*
X13891293Y-15143643D01*
X13910340Y-15153167D01*
X13986531Y-15353167D02*
X13996054Y-15343643D01*
X14015102Y-15315071D01*
X14024626Y-15296024D01*
X14034150Y-15267452D01*
X14043674Y-15219833D01*
X14043674Y-15181738D01*
X14034150Y-15134119D01*
X14024626Y-15105548D01*
X14015102Y-15086500D01*
X13996054Y-15057928D01*
X13986531Y-15048405D01*
X14348435Y-15353167D02*
X14338912Y-15343643D01*
X14319864Y-15315071D01*
X14310340Y-15296024D01*
X14300816Y-15267452D01*
X14291293Y-15219833D01*
X14291293Y-15181738D01*
X14300816Y-15134119D01*
X14310340Y-15105548D01*
X14319864Y-15086500D01*
X14338912Y-15057928D01*
X14348435Y-15048405D01*
X14424626Y-15143643D02*
X14424626Y-15276976D01*
X14424626Y-15162690D02*
X14434150Y-15153167D01*
X14453197Y-15143643D01*
X14481769Y-15143643D01*
X14500816Y-15153167D01*
X14510340Y-15172214D01*
X14510340Y-15276976D01*
X14634150Y-15276976D02*
X14615102Y-15267452D01*
X14605578Y-15257928D01*
X14596054Y-15238881D01*
X14596054Y-15181738D01*
X14605578Y-15162690D01*
X14615102Y-15153167D01*
X14634150Y-15143643D01*
X14662721Y-15143643D01*
X14681769Y-15153167D01*
X14691293Y-15162690D01*
X14700816Y-15181738D01*
X14700816Y-15238881D01*
X14691293Y-15257928D01*
X14681769Y-15267452D01*
X14662721Y-15276976D01*
X14634150Y-15276976D01*
X14757959Y-15143643D02*
X14834150Y-15143643D01*
X14786531Y-15076976D02*
X14786531Y-15248405D01*
X14796054Y-15267452D01*
X14815102Y-15276976D01*
X14834150Y-15276976D01*
X15053197Y-15143643D02*
X15053197Y-15343643D01*
X15053197Y-15153167D02*
X15072245Y-15143643D01*
X15110340Y-15143643D01*
X15129388Y-15153167D01*
X15138912Y-15162690D01*
X15148435Y-15181738D01*
X15148435Y-15238881D01*
X15138912Y-15257928D01*
X15129388Y-15267452D01*
X15110340Y-15276976D01*
X15072245Y-15276976D01*
X15053197Y-15267452D01*
X15262721Y-15276976D02*
X15243674Y-15267452D01*
X15234150Y-15248405D01*
X15234150Y-15076976D01*
X15424626Y-15276976D02*
X15424626Y-15172214D01*
X15415102Y-15153167D01*
X15396054Y-15143643D01*
X15357959Y-15143643D01*
X15338912Y-15153167D01*
X15424626Y-15267452D02*
X15405578Y-15276976D01*
X15357959Y-15276976D01*
X15338912Y-15267452D01*
X15329388Y-15248405D01*
X15329388Y-15229357D01*
X15338912Y-15210309D01*
X15357959Y-15200786D01*
X15405578Y-15200786D01*
X15424626Y-15191262D01*
X15491293Y-15143643D02*
X15567483Y-15143643D01*
X15519864Y-15076976D02*
X15519864Y-15248405D01*
X15529388Y-15267452D01*
X15548435Y-15276976D01*
X15567483Y-15276976D01*
X15710340Y-15267452D02*
X15691293Y-15276976D01*
X15653197Y-15276976D01*
X15634150Y-15267452D01*
X15624626Y-15248405D01*
X15624626Y-15172214D01*
X15634150Y-15153167D01*
X15653197Y-15143643D01*
X15691293Y-15143643D01*
X15710340Y-15153167D01*
X15719864Y-15172214D01*
X15719864Y-15191262D01*
X15624626Y-15210309D01*
X15891293Y-15276976D02*
X15891293Y-15076976D01*
X15891293Y-15267452D02*
X15872245Y-15276976D01*
X15834150Y-15276976D01*
X15815102Y-15267452D01*
X15805578Y-15257928D01*
X15796054Y-15238881D01*
X15796054Y-15181738D01*
X15805578Y-15162690D01*
X15815102Y-15153167D01*
X15834150Y-15143643D01*
X15872245Y-15143643D01*
X15891293Y-15153167D01*
X15967483Y-15353167D02*
X15977007Y-15343643D01*
X15996054Y-15315071D01*
X16005578Y-15296024D01*
X16015102Y-15267452D01*
X16024626Y-15219833D01*
X16024626Y-15181738D01*
X16015102Y-15134119D01*
X16005578Y-15105548D01*
X15996054Y-15086500D01*
X15977007Y-15057928D01*
X15967483Y-15048405D01*
D13*
X9214626Y-15450500D02*
G75*
G03*
X9214626Y-15450500I-95000J0D01*
G01*
D11*
X9577007Y-15540976D02*
X9462721Y-15540976D01*
X9519864Y-15540976D02*
X9519864Y-15340976D01*
X9500816Y-15369548D01*
X9481769Y-15388595D01*
X9462721Y-15398119D01*
X9662721Y-15521928D02*
X9672245Y-15531452D01*
X9662721Y-15540976D01*
X9653197Y-15531452D01*
X9662721Y-15521928D01*
X9662721Y-15540976D01*
X9767483Y-15540976D02*
X9805578Y-15540976D01*
X9824626Y-15531452D01*
X9834150Y-15521928D01*
X9853197Y-15493357D01*
X9862721Y-15455262D01*
X9862721Y-15379071D01*
X9853197Y-15360024D01*
X9843674Y-15350500D01*
X9824626Y-15340976D01*
X9786531Y-15340976D01*
X9767483Y-15350500D01*
X9757959Y-15360024D01*
X9748436Y-15379071D01*
X9748436Y-15426690D01*
X9757959Y-15445738D01*
X9767483Y-15455262D01*
X9786531Y-15464786D01*
X9824626Y-15464786D01*
X9843674Y-15455262D01*
X9853197Y-15445738D01*
X9862721Y-15426690D01*
X9986531Y-15340976D02*
X10005578Y-15340976D01*
X10024626Y-15350500D01*
X10034150Y-15360024D01*
X10043674Y-15379071D01*
X10053197Y-15417167D01*
X10053197Y-15464786D01*
X10043674Y-15502881D01*
X10034150Y-15521928D01*
X10024626Y-15531452D01*
X10005578Y-15540976D01*
X9986531Y-15540976D01*
X9967483Y-15531452D01*
X9957959Y-15521928D01*
X9948436Y-15502881D01*
X9938912Y-15464786D01*
X9938912Y-15417167D01*
X9948436Y-15379071D01*
X9957959Y-15360024D01*
X9967483Y-15350500D01*
X9986531Y-15340976D01*
X10177007Y-15340976D02*
X10196055Y-15340976D01*
X10215102Y-15350500D01*
X10224626Y-15360024D01*
X10234150Y-15379071D01*
X10243674Y-15417167D01*
X10243674Y-15464786D01*
X10234150Y-15502881D01*
X10224626Y-15521928D01*
X10215102Y-15531452D01*
X10196055Y-15540976D01*
X10177007Y-15540976D01*
X10157959Y-15531452D01*
X10148436Y-15521928D01*
X10138912Y-15502881D01*
X10129388Y-15464786D01*
X10129388Y-15417167D01*
X10138912Y-15379071D01*
X10148436Y-15360024D01*
X10157959Y-15350500D01*
X10177007Y-15340976D01*
X10329388Y-15540976D02*
X10329388Y-15407643D01*
X10329388Y-15426690D02*
X10338912Y-15417167D01*
X10357959Y-15407643D01*
X10386531Y-15407643D01*
X10405578Y-15417167D01*
X10415102Y-15436214D01*
X10415102Y-15540976D01*
X10415102Y-15436214D02*
X10424626Y-15417167D01*
X10443674Y-15407643D01*
X10472245Y-15407643D01*
X10491293Y-15417167D01*
X10500816Y-15436214D01*
X10500816Y-15540976D01*
X10596055Y-15540976D02*
X10596055Y-15407643D01*
X10596055Y-15426690D02*
X10605578Y-15417167D01*
X10624626Y-15407643D01*
X10653197Y-15407643D01*
X10672245Y-15417167D01*
X10681769Y-15436214D01*
X10681769Y-15540976D01*
X10681769Y-15436214D02*
X10691293Y-15417167D01*
X10710340Y-15407643D01*
X10738912Y-15407643D01*
X10757959Y-15417167D01*
X10767483Y-15436214D01*
X10767483Y-15540976D01*
X11157959Y-15331452D02*
X10986531Y-15588595D01*
X11415102Y-15340976D02*
X11434150Y-15340976D01*
X11453197Y-15350500D01*
X11462721Y-15360024D01*
X11472245Y-15379071D01*
X11481769Y-15417167D01*
X11481769Y-15464786D01*
X11472245Y-15502881D01*
X11462721Y-15521928D01*
X11453197Y-15531452D01*
X11434150Y-15540976D01*
X11415102Y-15540976D01*
X11396054Y-15531452D01*
X11386531Y-15521928D01*
X11377007Y-15502881D01*
X11367483Y-15464786D01*
X11367483Y-15417167D01*
X11377007Y-15379071D01*
X11386531Y-15360024D01*
X11396054Y-15350500D01*
X11415102Y-15340976D01*
X11567483Y-15521928D02*
X11577007Y-15531452D01*
X11567483Y-15540976D01*
X11557959Y-15531452D01*
X11567483Y-15521928D01*
X11567483Y-15540976D01*
X11700816Y-15340976D02*
X11719864Y-15340976D01*
X11738912Y-15350500D01*
X11748435Y-15360024D01*
X11757959Y-15379071D01*
X11767483Y-15417167D01*
X11767483Y-15464786D01*
X11757959Y-15502881D01*
X11748435Y-15521928D01*
X11738912Y-15531452D01*
X11719864Y-15540976D01*
X11700816Y-15540976D01*
X11681769Y-15531452D01*
X11672245Y-15521928D01*
X11662721Y-15502881D01*
X11653197Y-15464786D01*
X11653197Y-15417167D01*
X11662721Y-15379071D01*
X11672245Y-15360024D01*
X11681769Y-15350500D01*
X11700816Y-15340976D01*
X11834150Y-15340976D02*
X11967483Y-15340976D01*
X11881769Y-15540976D01*
X12129388Y-15407643D02*
X12129388Y-15540976D01*
X12081769Y-15331452D02*
X12034150Y-15474309D01*
X12157959Y-15474309D01*
X12262721Y-15426690D02*
X12243674Y-15417167D01*
X12234150Y-15407643D01*
X12224626Y-15388595D01*
X12224626Y-15379071D01*
X12234150Y-15360024D01*
X12243674Y-15350500D01*
X12262721Y-15340976D01*
X12300816Y-15340976D01*
X12319864Y-15350500D01*
X12329388Y-15360024D01*
X12338912Y-15379071D01*
X12338912Y-15388595D01*
X12329388Y-15407643D01*
X12319864Y-15417167D01*
X12300816Y-15426690D01*
X12262721Y-15426690D01*
X12243674Y-15436214D01*
X12234150Y-15445738D01*
X12224626Y-15464786D01*
X12224626Y-15502881D01*
X12234150Y-15521928D01*
X12243674Y-15531452D01*
X12262721Y-15540976D01*
X12300816Y-15540976D01*
X12319864Y-15531452D01*
X12329388Y-15521928D01*
X12338912Y-15502881D01*
X12338912Y-15464786D01*
X12329388Y-15445738D01*
X12319864Y-15436214D01*
X12300816Y-15426690D01*
X12415102Y-15340976D02*
X12415102Y-15379071D01*
X12491293Y-15340976D02*
X12491293Y-15379071D01*
X12786531Y-15617167D02*
X12777007Y-15607643D01*
X12757959Y-15579071D01*
X12748435Y-15560024D01*
X12738912Y-15531452D01*
X12729388Y-15483833D01*
X12729388Y-15445738D01*
X12738912Y-15398119D01*
X12748435Y-15369548D01*
X12757959Y-15350500D01*
X12777007Y-15321928D01*
X12786531Y-15312405D01*
X12891293Y-15426690D02*
X12872245Y-15417167D01*
X12862721Y-15407643D01*
X12853197Y-15388595D01*
X12853197Y-15379071D01*
X12862721Y-15360024D01*
X12872245Y-15350500D01*
X12891293Y-15340976D01*
X12929388Y-15340976D01*
X12948435Y-15350500D01*
X12957959Y-15360024D01*
X12967483Y-15379071D01*
X12967483Y-15388595D01*
X12957959Y-15407643D01*
X12948435Y-15417167D01*
X12929388Y-15426690D01*
X12891293Y-15426690D01*
X12872245Y-15436214D01*
X12862721Y-15445738D01*
X12853197Y-15464786D01*
X12853197Y-15502881D01*
X12862721Y-15521928D01*
X12872245Y-15531452D01*
X12891293Y-15540976D01*
X12929388Y-15540976D01*
X12948435Y-15531452D01*
X12957959Y-15521928D01*
X12967483Y-15502881D01*
X12967483Y-15464786D01*
X12957959Y-15445738D01*
X12948435Y-15436214D01*
X12929388Y-15426690D01*
X13205578Y-15540976D02*
X13205578Y-15340976D01*
X13291293Y-15540976D02*
X13291293Y-15436214D01*
X13281769Y-15417167D01*
X13262721Y-15407643D01*
X13234150Y-15407643D01*
X13215102Y-15417167D01*
X13205578Y-15426690D01*
X13415102Y-15540976D02*
X13396054Y-15531452D01*
X13386531Y-15521928D01*
X13377007Y-15502881D01*
X13377007Y-15445738D01*
X13386531Y-15426690D01*
X13396054Y-15417167D01*
X13415102Y-15407643D01*
X13443674Y-15407643D01*
X13462721Y-15417167D01*
X13472245Y-15426690D01*
X13481769Y-15445738D01*
X13481769Y-15502881D01*
X13472245Y-15521928D01*
X13462721Y-15531452D01*
X13443674Y-15540976D01*
X13415102Y-15540976D01*
X13596054Y-15540976D02*
X13577007Y-15531452D01*
X13567483Y-15512405D01*
X13567483Y-15340976D01*
X13748435Y-15531452D02*
X13729388Y-15540976D01*
X13691293Y-15540976D01*
X13672245Y-15531452D01*
X13662721Y-15512405D01*
X13662721Y-15436214D01*
X13672245Y-15417167D01*
X13691293Y-15407643D01*
X13729388Y-15407643D01*
X13748435Y-15417167D01*
X13757959Y-15436214D01*
X13757959Y-15455262D01*
X13662721Y-15474309D01*
X13834150Y-15531452D02*
X13853197Y-15540976D01*
X13891293Y-15540976D01*
X13910340Y-15531452D01*
X13919864Y-15512405D01*
X13919864Y-15502881D01*
X13910340Y-15483833D01*
X13891293Y-15474309D01*
X13862721Y-15474309D01*
X13843674Y-15464786D01*
X13834150Y-15445738D01*
X13834150Y-15436214D01*
X13843674Y-15417167D01*
X13862721Y-15407643D01*
X13891293Y-15407643D01*
X13910340Y-15417167D01*
X13986531Y-15617167D02*
X13996054Y-15607643D01*
X14015102Y-15579071D01*
X14024626Y-15560024D01*
X14034150Y-15531452D01*
X14043674Y-15483833D01*
X14043674Y-15445738D01*
X14034150Y-15398119D01*
X14024626Y-15369548D01*
X14015102Y-15350500D01*
X13996054Y-15321928D01*
X13986531Y-15312405D01*
X14348435Y-15617167D02*
X14338912Y-15607643D01*
X14319864Y-15579071D01*
X14310340Y-15560024D01*
X14300816Y-15531452D01*
X14291293Y-15483833D01*
X14291293Y-15445738D01*
X14300816Y-15398119D01*
X14310340Y-15369548D01*
X14319864Y-15350500D01*
X14338912Y-15321928D01*
X14348435Y-15312405D01*
X14424626Y-15407643D02*
X14424626Y-15540976D01*
X14424626Y-15426690D02*
X14434150Y-15417167D01*
X14453197Y-15407643D01*
X14481769Y-15407643D01*
X14500816Y-15417167D01*
X14510340Y-15436214D01*
X14510340Y-15540976D01*
X14634150Y-15540976D02*
X14615102Y-15531452D01*
X14605578Y-15521928D01*
X14596054Y-15502881D01*
X14596054Y-15445738D01*
X14605578Y-15426690D01*
X14615102Y-15417167D01*
X14634150Y-15407643D01*
X14662721Y-15407643D01*
X14681769Y-15417167D01*
X14691293Y-15426690D01*
X14700816Y-15445738D01*
X14700816Y-15502881D01*
X14691293Y-15521928D01*
X14681769Y-15531452D01*
X14662721Y-15540976D01*
X14634150Y-15540976D01*
X14757959Y-15407643D02*
X14834150Y-15407643D01*
X14786531Y-15340976D02*
X14786531Y-15512405D01*
X14796054Y-15531452D01*
X14815102Y-15540976D01*
X14834150Y-15540976D01*
X15053197Y-15407643D02*
X15053197Y-15607643D01*
X15053197Y-15417167D02*
X15072245Y-15407643D01*
X15110340Y-15407643D01*
X15129388Y-15417167D01*
X15138912Y-15426690D01*
X15148435Y-15445738D01*
X15148435Y-15502881D01*
X15138912Y-15521928D01*
X15129388Y-15531452D01*
X15110340Y-15540976D01*
X15072245Y-15540976D01*
X15053197Y-15531452D01*
X15262721Y-15540976D02*
X15243674Y-15531452D01*
X15234150Y-15512405D01*
X15234150Y-15340976D01*
X15424626Y-15540976D02*
X15424626Y-15436214D01*
X15415102Y-15417167D01*
X15396054Y-15407643D01*
X15357959Y-15407643D01*
X15338912Y-15417167D01*
X15424626Y-15531452D02*
X15405578Y-15540976D01*
X15357959Y-15540976D01*
X15338912Y-15531452D01*
X15329388Y-15512405D01*
X15329388Y-15493357D01*
X15338912Y-15474309D01*
X15357959Y-15464786D01*
X15405578Y-15464786D01*
X15424626Y-15455262D01*
X15491293Y-15407643D02*
X15567483Y-15407643D01*
X15519864Y-15340976D02*
X15519864Y-15512405D01*
X15529388Y-15531452D01*
X15548435Y-15540976D01*
X15567483Y-15540976D01*
X15710340Y-15531452D02*
X15691293Y-15540976D01*
X15653197Y-15540976D01*
X15634150Y-15531452D01*
X15624626Y-15512405D01*
X15624626Y-15436214D01*
X15634150Y-15417167D01*
X15653197Y-15407643D01*
X15691293Y-15407643D01*
X15710340Y-15417167D01*
X15719864Y-15436214D01*
X15719864Y-15455262D01*
X15624626Y-15474309D01*
X15891293Y-15540976D02*
X15891293Y-15340976D01*
X15891293Y-15531452D02*
X15872245Y-15540976D01*
X15834150Y-15540976D01*
X15815102Y-15531452D01*
X15805578Y-15521928D01*
X15796054Y-15502881D01*
X15796054Y-15445738D01*
X15805578Y-15426690D01*
X15815102Y-15417167D01*
X15834150Y-15407643D01*
X15872245Y-15407643D01*
X15891293Y-15417167D01*
X15967483Y-15617167D02*
X15977007Y-15607643D01*
X15996054Y-15579071D01*
X16005578Y-15560024D01*
X16015102Y-15531452D01*
X16024626Y-15483833D01*
X16024626Y-15445738D01*
X16015102Y-15398119D01*
X16005578Y-15369548D01*
X15996054Y-15350500D01*
X15977007Y-15321928D01*
X15967483Y-15312405D01*
X9114626Y-15660500D02*
X9114626Y-15860500D01*
X9014626Y-15760500D02*
X9214626Y-15760500D01*
X9453197Y-15650976D02*
X9577007Y-15650976D01*
X9510340Y-15727167D01*
X9538912Y-15727167D01*
X9557959Y-15736690D01*
X9567483Y-15746214D01*
X9577007Y-15765262D01*
X9577007Y-15812881D01*
X9567483Y-15831928D01*
X9557959Y-15841452D01*
X9538912Y-15850976D01*
X9481769Y-15850976D01*
X9462721Y-15841452D01*
X9453197Y-15831928D01*
X9662721Y-15831928D02*
X9672245Y-15841452D01*
X9662721Y-15850976D01*
X9653197Y-15841452D01*
X9662721Y-15831928D01*
X9662721Y-15850976D01*
X9796055Y-15650976D02*
X9815102Y-15650976D01*
X9834150Y-15660500D01*
X9843674Y-15670024D01*
X9853197Y-15689071D01*
X9862721Y-15727167D01*
X9862721Y-15774786D01*
X9853197Y-15812881D01*
X9843674Y-15831928D01*
X9834150Y-15841452D01*
X9815102Y-15850976D01*
X9796055Y-15850976D01*
X9777007Y-15841452D01*
X9767483Y-15831928D01*
X9757959Y-15812881D01*
X9748436Y-15774786D01*
X9748436Y-15727167D01*
X9757959Y-15689071D01*
X9767483Y-15670024D01*
X9777007Y-15660500D01*
X9796055Y-15650976D01*
X9986531Y-15650976D02*
X10005578Y-15650976D01*
X10024626Y-15660500D01*
X10034150Y-15670024D01*
X10043674Y-15689071D01*
X10053197Y-15727167D01*
X10053197Y-15774786D01*
X10043674Y-15812881D01*
X10034150Y-15831928D01*
X10024626Y-15841452D01*
X10005578Y-15850976D01*
X9986531Y-15850976D01*
X9967483Y-15841452D01*
X9957959Y-15831928D01*
X9948436Y-15812881D01*
X9938912Y-15774786D01*
X9938912Y-15727167D01*
X9948436Y-15689071D01*
X9957959Y-15670024D01*
X9967483Y-15660500D01*
X9986531Y-15650976D01*
X10177007Y-15650976D02*
X10196055Y-15650976D01*
X10215102Y-15660500D01*
X10224626Y-15670024D01*
X10234150Y-15689071D01*
X10243674Y-15727167D01*
X10243674Y-15774786D01*
X10234150Y-15812881D01*
X10224626Y-15831928D01*
X10215102Y-15841452D01*
X10196055Y-15850976D01*
X10177007Y-15850976D01*
X10157959Y-15841452D01*
X10148436Y-15831928D01*
X10138912Y-15812881D01*
X10129388Y-15774786D01*
X10129388Y-15727167D01*
X10138912Y-15689071D01*
X10148436Y-15670024D01*
X10157959Y-15660500D01*
X10177007Y-15650976D01*
X10329388Y-15850976D02*
X10329388Y-15717643D01*
X10329388Y-15736690D02*
X10338912Y-15727167D01*
X10357959Y-15717643D01*
X10386531Y-15717643D01*
X10405578Y-15727167D01*
X10415102Y-15746214D01*
X10415102Y-15850976D01*
X10415102Y-15746214D02*
X10424626Y-15727167D01*
X10443674Y-15717643D01*
X10472245Y-15717643D01*
X10491293Y-15727167D01*
X10500816Y-15746214D01*
X10500816Y-15850976D01*
X10596055Y-15850976D02*
X10596055Y-15717643D01*
X10596055Y-15736690D02*
X10605578Y-15727167D01*
X10624626Y-15717643D01*
X10653197Y-15717643D01*
X10672245Y-15727167D01*
X10681769Y-15746214D01*
X10681769Y-15850976D01*
X10681769Y-15746214D02*
X10691293Y-15727167D01*
X10710340Y-15717643D01*
X10738912Y-15717643D01*
X10757959Y-15727167D01*
X10767483Y-15746214D01*
X10767483Y-15850976D01*
X11157959Y-15641452D02*
X10986531Y-15898595D01*
X11415102Y-15650976D02*
X11434150Y-15650976D01*
X11453197Y-15660500D01*
X11462721Y-15670024D01*
X11472245Y-15689071D01*
X11481769Y-15727167D01*
X11481769Y-15774786D01*
X11472245Y-15812881D01*
X11462721Y-15831928D01*
X11453197Y-15841452D01*
X11434150Y-15850976D01*
X11415102Y-15850976D01*
X11396054Y-15841452D01*
X11386531Y-15831928D01*
X11377007Y-15812881D01*
X11367483Y-15774786D01*
X11367483Y-15727167D01*
X11377007Y-15689071D01*
X11386531Y-15670024D01*
X11396054Y-15660500D01*
X11415102Y-15650976D01*
X11567483Y-15831928D02*
X11577007Y-15841452D01*
X11567483Y-15850976D01*
X11557959Y-15841452D01*
X11567483Y-15831928D01*
X11567483Y-15850976D01*
X11767483Y-15850976D02*
X11653197Y-15850976D01*
X11710340Y-15850976D02*
X11710340Y-15650976D01*
X11691293Y-15679548D01*
X11672245Y-15698595D01*
X11653197Y-15708119D01*
X11957959Y-15850976D02*
X11843674Y-15850976D01*
X11900816Y-15850976D02*
X11900816Y-15650976D01*
X11881769Y-15679548D01*
X11862721Y-15698595D01*
X11843674Y-15708119D01*
X12072245Y-15736690D02*
X12053197Y-15727167D01*
X12043674Y-15717643D01*
X12034150Y-15698595D01*
X12034150Y-15689071D01*
X12043674Y-15670024D01*
X12053197Y-15660500D01*
X12072245Y-15650976D01*
X12110340Y-15650976D01*
X12129388Y-15660500D01*
X12138912Y-15670024D01*
X12148435Y-15689071D01*
X12148435Y-15698595D01*
X12138912Y-15717643D01*
X12129388Y-15727167D01*
X12110340Y-15736690D01*
X12072245Y-15736690D01*
X12053197Y-15746214D01*
X12043674Y-15755738D01*
X12034150Y-15774786D01*
X12034150Y-15812881D01*
X12043674Y-15831928D01*
X12053197Y-15841452D01*
X12072245Y-15850976D01*
X12110340Y-15850976D01*
X12129388Y-15841452D01*
X12138912Y-15831928D01*
X12148435Y-15812881D01*
X12148435Y-15774786D01*
X12138912Y-15755738D01*
X12129388Y-15746214D01*
X12110340Y-15736690D01*
X12338912Y-15850976D02*
X12224626Y-15850976D01*
X12281769Y-15850976D02*
X12281769Y-15650976D01*
X12262721Y-15679548D01*
X12243674Y-15698595D01*
X12224626Y-15708119D01*
X12415102Y-15650976D02*
X12415102Y-15689071D01*
X12491293Y-15650976D02*
X12491293Y-15689071D01*
X12786531Y-15927167D02*
X12777007Y-15917643D01*
X12757959Y-15889071D01*
X12748435Y-15870024D01*
X12738912Y-15841452D01*
X12729388Y-15793833D01*
X12729388Y-15755738D01*
X12738912Y-15708119D01*
X12748435Y-15679548D01*
X12757959Y-15660500D01*
X12777007Y-15631928D01*
X12786531Y-15622405D01*
X12891293Y-15736690D02*
X12872245Y-15727167D01*
X12862721Y-15717643D01*
X12853197Y-15698595D01*
X12853197Y-15689071D01*
X12862721Y-15670024D01*
X12872245Y-15660500D01*
X12891293Y-15650976D01*
X12929388Y-15650976D01*
X12948435Y-15660500D01*
X12957959Y-15670024D01*
X12967483Y-15689071D01*
X12967483Y-15698595D01*
X12957959Y-15717643D01*
X12948435Y-15727167D01*
X12929388Y-15736690D01*
X12891293Y-15736690D01*
X12872245Y-15746214D01*
X12862721Y-15755738D01*
X12853197Y-15774786D01*
X12853197Y-15812881D01*
X12862721Y-15831928D01*
X12872245Y-15841452D01*
X12891293Y-15850976D01*
X12929388Y-15850976D01*
X12948435Y-15841452D01*
X12957959Y-15831928D01*
X12967483Y-15812881D01*
X12967483Y-15774786D01*
X12957959Y-15755738D01*
X12948435Y-15746214D01*
X12929388Y-15736690D01*
X13205578Y-15850976D02*
X13205578Y-15650976D01*
X13291293Y-15850976D02*
X13291293Y-15746214D01*
X13281769Y-15727167D01*
X13262721Y-15717643D01*
X13234150Y-15717643D01*
X13215102Y-15727167D01*
X13205578Y-15736690D01*
X13415102Y-15850976D02*
X13396054Y-15841452D01*
X13386531Y-15831928D01*
X13377007Y-15812881D01*
X13377007Y-15755738D01*
X13386531Y-15736690D01*
X13396054Y-15727167D01*
X13415102Y-15717643D01*
X13443674Y-15717643D01*
X13462721Y-15727167D01*
X13472245Y-15736690D01*
X13481769Y-15755738D01*
X13481769Y-15812881D01*
X13472245Y-15831928D01*
X13462721Y-15841452D01*
X13443674Y-15850976D01*
X13415102Y-15850976D01*
X13596054Y-15850976D02*
X13577007Y-15841452D01*
X13567483Y-15822405D01*
X13567483Y-15650976D01*
X13748435Y-15841452D02*
X13729388Y-15850976D01*
X13691293Y-15850976D01*
X13672245Y-15841452D01*
X13662721Y-15822405D01*
X13662721Y-15746214D01*
X13672245Y-15727167D01*
X13691293Y-15717643D01*
X13729388Y-15717643D01*
X13748435Y-15727167D01*
X13757959Y-15746214D01*
X13757959Y-15765262D01*
X13662721Y-15784309D01*
X13834150Y-15841452D02*
X13853197Y-15850976D01*
X13891293Y-15850976D01*
X13910340Y-15841452D01*
X13919864Y-15822405D01*
X13919864Y-15812881D01*
X13910340Y-15793833D01*
X13891293Y-15784309D01*
X13862721Y-15784309D01*
X13843674Y-15774786D01*
X13834150Y-15755738D01*
X13834150Y-15746214D01*
X13843674Y-15727167D01*
X13862721Y-15717643D01*
X13891293Y-15717643D01*
X13910340Y-15727167D01*
X13986531Y-15927167D02*
X13996054Y-15917643D01*
X14015102Y-15889071D01*
X14024626Y-15870024D01*
X14034150Y-15841452D01*
X14043674Y-15793833D01*
X14043674Y-15755738D01*
X14034150Y-15708119D01*
X14024626Y-15679548D01*
X14015102Y-15660500D01*
X13996054Y-15631928D01*
X13986531Y-15622405D01*
X14348435Y-15927167D02*
X14338912Y-15917643D01*
X14319864Y-15889071D01*
X14310340Y-15870024D01*
X14300816Y-15841452D01*
X14291293Y-15793833D01*
X14291293Y-15755738D01*
X14300816Y-15708119D01*
X14310340Y-15679548D01*
X14319864Y-15660500D01*
X14338912Y-15631928D01*
X14348435Y-15622405D01*
X14424626Y-15717643D02*
X14424626Y-15850976D01*
X14424626Y-15736690D02*
X14434150Y-15727167D01*
X14453197Y-15717643D01*
X14481769Y-15717643D01*
X14500816Y-15727167D01*
X14510340Y-15746214D01*
X14510340Y-15850976D01*
X14634150Y-15850976D02*
X14615102Y-15841452D01*
X14605578Y-15831928D01*
X14596054Y-15812881D01*
X14596054Y-15755738D01*
X14605578Y-15736690D01*
X14615102Y-15727167D01*
X14634150Y-15717643D01*
X14662721Y-15717643D01*
X14681769Y-15727167D01*
X14691293Y-15736690D01*
X14700816Y-15755738D01*
X14700816Y-15812881D01*
X14691293Y-15831928D01*
X14681769Y-15841452D01*
X14662721Y-15850976D01*
X14634150Y-15850976D01*
X14757959Y-15717643D02*
X14834150Y-15717643D01*
X14786531Y-15650976D02*
X14786531Y-15822405D01*
X14796054Y-15841452D01*
X14815102Y-15850976D01*
X14834150Y-15850976D01*
X15053197Y-15717643D02*
X15053197Y-15917643D01*
X15053197Y-15727167D02*
X15072245Y-15717643D01*
X15110340Y-15717643D01*
X15129388Y-15727167D01*
X15138912Y-15736690D01*
X15148435Y-15755738D01*
X15148435Y-15812881D01*
X15138912Y-15831928D01*
X15129388Y-15841452D01*
X15110340Y-15850976D01*
X15072245Y-15850976D01*
X15053197Y-15841452D01*
X15262721Y-15850976D02*
X15243674Y-15841452D01*
X15234150Y-15822405D01*
X15234150Y-15650976D01*
X15424626Y-15850976D02*
X15424626Y-15746214D01*
X15415102Y-15727167D01*
X15396054Y-15717643D01*
X15357959Y-15717643D01*
X15338912Y-15727167D01*
X15424626Y-15841452D02*
X15405578Y-15850976D01*
X15357959Y-15850976D01*
X15338912Y-15841452D01*
X15329388Y-15822405D01*
X15329388Y-15803357D01*
X15338912Y-15784309D01*
X15357959Y-15774786D01*
X15405578Y-15774786D01*
X15424626Y-15765262D01*
X15491293Y-15717643D02*
X15567483Y-15717643D01*
X15519864Y-15650976D02*
X15519864Y-15822405D01*
X15529388Y-15841452D01*
X15548435Y-15850976D01*
X15567483Y-15850976D01*
X15710340Y-15841452D02*
X15691293Y-15850976D01*
X15653197Y-15850976D01*
X15634150Y-15841452D01*
X15624626Y-15822405D01*
X15624626Y-15746214D01*
X15634150Y-15727167D01*
X15653197Y-15717643D01*
X15691293Y-15717643D01*
X15710340Y-15727167D01*
X15719864Y-15746214D01*
X15719864Y-15765262D01*
X15624626Y-15784309D01*
X15891293Y-15850976D02*
X15891293Y-15650976D01*
X15891293Y-15841452D02*
X15872245Y-15850976D01*
X15834150Y-15850976D01*
X15815102Y-15841452D01*
X15805578Y-15831928D01*
X15796054Y-15812881D01*
X15796054Y-15755738D01*
X15805578Y-15736690D01*
X15815102Y-15727167D01*
X15834150Y-15717643D01*
X15872245Y-15717643D01*
X15891293Y-15727167D01*
X15967483Y-15927167D02*
X15977007Y-15917643D01*
X15996054Y-15889071D01*
X16005578Y-15870024D01*
X16015102Y-15841452D01*
X16024626Y-15793833D01*
X16024626Y-15755738D01*
X16015102Y-15708119D01*
X16005578Y-15679548D01*
X15996054Y-15660500D01*
X15977007Y-15631928D01*
X15967483Y-15622405D01*
X9185337Y-16151211D02*
X9185337Y-16009789D01*
X9043915Y-16009789D01*
X9043915Y-16151211D01*
X9185337Y-16151211D01*
X9557959Y-16037643D02*
X9557959Y-16170976D01*
X9510340Y-15961452D02*
X9462721Y-16104309D01*
X9586531Y-16104309D01*
X9662721Y-16151928D02*
X9672245Y-16161452D01*
X9662721Y-16170976D01*
X9653197Y-16161452D01*
X9662721Y-16151928D01*
X9662721Y-16170976D01*
X9796055Y-15970976D02*
X9815102Y-15970976D01*
X9834150Y-15980500D01*
X9843674Y-15990024D01*
X9853197Y-16009071D01*
X9862721Y-16047167D01*
X9862721Y-16094786D01*
X9853197Y-16132881D01*
X9843674Y-16151928D01*
X9834150Y-16161452D01*
X9815102Y-16170976D01*
X9796055Y-16170976D01*
X9777007Y-16161452D01*
X9767483Y-16151928D01*
X9757959Y-16132881D01*
X9748436Y-16094786D01*
X9748436Y-16047167D01*
X9757959Y-16009071D01*
X9767483Y-15990024D01*
X9777007Y-15980500D01*
X9796055Y-15970976D01*
X9986531Y-15970976D02*
X10005578Y-15970976D01*
X10024626Y-15980500D01*
X10034150Y-15990024D01*
X10043674Y-16009071D01*
X10053197Y-16047167D01*
X10053197Y-16094786D01*
X10043674Y-16132881D01*
X10034150Y-16151928D01*
X10024626Y-16161452D01*
X10005578Y-16170976D01*
X9986531Y-16170976D01*
X9967483Y-16161452D01*
X9957959Y-16151928D01*
X9948436Y-16132881D01*
X9938912Y-16094786D01*
X9938912Y-16047167D01*
X9948436Y-16009071D01*
X9957959Y-15990024D01*
X9967483Y-15980500D01*
X9986531Y-15970976D01*
X10177007Y-15970976D02*
X10196055Y-15970976D01*
X10215102Y-15980500D01*
X10224626Y-15990024D01*
X10234150Y-16009071D01*
X10243674Y-16047167D01*
X10243674Y-16094786D01*
X10234150Y-16132881D01*
X10224626Y-16151928D01*
X10215102Y-16161452D01*
X10196055Y-16170976D01*
X10177007Y-16170976D01*
X10157959Y-16161452D01*
X10148436Y-16151928D01*
X10138912Y-16132881D01*
X10129388Y-16094786D01*
X10129388Y-16047167D01*
X10138912Y-16009071D01*
X10148436Y-15990024D01*
X10157959Y-15980500D01*
X10177007Y-15970976D01*
X10329388Y-16170976D02*
X10329388Y-16037643D01*
X10329388Y-16056690D02*
X10338912Y-16047167D01*
X10357959Y-16037643D01*
X10386531Y-16037643D01*
X10405578Y-16047167D01*
X10415102Y-16066214D01*
X10415102Y-16170976D01*
X10415102Y-16066214D02*
X10424626Y-16047167D01*
X10443674Y-16037643D01*
X10472245Y-16037643D01*
X10491293Y-16047167D01*
X10500816Y-16066214D01*
X10500816Y-16170976D01*
X10596055Y-16170976D02*
X10596055Y-16037643D01*
X10596055Y-16056690D02*
X10605578Y-16047167D01*
X10624626Y-16037643D01*
X10653197Y-16037643D01*
X10672245Y-16047167D01*
X10681769Y-16066214D01*
X10681769Y-16170976D01*
X10681769Y-16066214D02*
X10691293Y-16047167D01*
X10710340Y-16037643D01*
X10738912Y-16037643D01*
X10757959Y-16047167D01*
X10767483Y-16066214D01*
X10767483Y-16170976D01*
X11157959Y-15961452D02*
X10986531Y-16218595D01*
X11415102Y-15970976D02*
X11434150Y-15970976D01*
X11453197Y-15980500D01*
X11462721Y-15990024D01*
X11472245Y-16009071D01*
X11481769Y-16047167D01*
X11481769Y-16094786D01*
X11472245Y-16132881D01*
X11462721Y-16151928D01*
X11453197Y-16161452D01*
X11434150Y-16170976D01*
X11415102Y-16170976D01*
X11396054Y-16161452D01*
X11386531Y-16151928D01*
X11377007Y-16132881D01*
X11367483Y-16094786D01*
X11367483Y-16047167D01*
X11377007Y-16009071D01*
X11386531Y-15990024D01*
X11396054Y-15980500D01*
X11415102Y-15970976D01*
X11567483Y-16151928D02*
X11577007Y-16161452D01*
X11567483Y-16170976D01*
X11557959Y-16161452D01*
X11567483Y-16151928D01*
X11567483Y-16170976D01*
X11767483Y-16170976D02*
X11653197Y-16170976D01*
X11710340Y-16170976D02*
X11710340Y-15970976D01*
X11691293Y-15999548D01*
X11672245Y-16018595D01*
X11653197Y-16028119D01*
X11948435Y-15970976D02*
X11853197Y-15970976D01*
X11843674Y-16066214D01*
X11853197Y-16056690D01*
X11872245Y-16047167D01*
X11919864Y-16047167D01*
X11938912Y-16056690D01*
X11948435Y-16066214D01*
X11957959Y-16085262D01*
X11957959Y-16132881D01*
X11948435Y-16151928D01*
X11938912Y-16161452D01*
X11919864Y-16170976D01*
X11872245Y-16170976D01*
X11853197Y-16161452D01*
X11843674Y-16151928D01*
X12024626Y-15970976D02*
X12157959Y-15970976D01*
X12072245Y-16170976D01*
X12329388Y-15970976D02*
X12234150Y-15970976D01*
X12224626Y-16066214D01*
X12234150Y-16056690D01*
X12253197Y-16047167D01*
X12300816Y-16047167D01*
X12319864Y-16056690D01*
X12329388Y-16066214D01*
X12338912Y-16085262D01*
X12338912Y-16132881D01*
X12329388Y-16151928D01*
X12319864Y-16161452D01*
X12300816Y-16170976D01*
X12253197Y-16170976D01*
X12234150Y-16161452D01*
X12224626Y-16151928D01*
X12415102Y-15970976D02*
X12415102Y-16009071D01*
X12491293Y-15970976D02*
X12491293Y-16009071D01*
X12786531Y-16247167D02*
X12777007Y-16237643D01*
X12757959Y-16209071D01*
X12748435Y-16190024D01*
X12738912Y-16161452D01*
X12729388Y-16113833D01*
X12729388Y-16075738D01*
X12738912Y-16028119D01*
X12748435Y-15999548D01*
X12757959Y-15980500D01*
X12777007Y-15951928D01*
X12786531Y-15942405D01*
X12948435Y-16037643D02*
X12948435Y-16170976D01*
X12900816Y-15961452D02*
X12853197Y-16104309D01*
X12977007Y-16104309D01*
X13205578Y-16170976D02*
X13205578Y-15970976D01*
X13291293Y-16170976D02*
X13291293Y-16066214D01*
X13281769Y-16047167D01*
X13262721Y-16037643D01*
X13234150Y-16037643D01*
X13215102Y-16047167D01*
X13205578Y-16056690D01*
X13415102Y-16170976D02*
X13396054Y-16161452D01*
X13386531Y-16151928D01*
X13377007Y-16132881D01*
X13377007Y-16075738D01*
X13386531Y-16056690D01*
X13396054Y-16047167D01*
X13415102Y-16037643D01*
X13443674Y-16037643D01*
X13462721Y-16047167D01*
X13472245Y-16056690D01*
X13481769Y-16075738D01*
X13481769Y-16132881D01*
X13472245Y-16151928D01*
X13462721Y-16161452D01*
X13443674Y-16170976D01*
X13415102Y-16170976D01*
X13596054Y-16170976D02*
X13577007Y-16161452D01*
X13567483Y-16142405D01*
X13567483Y-15970976D01*
X13748435Y-16161452D02*
X13729388Y-16170976D01*
X13691293Y-16170976D01*
X13672245Y-16161452D01*
X13662721Y-16142405D01*
X13662721Y-16066214D01*
X13672245Y-16047167D01*
X13691293Y-16037643D01*
X13729388Y-16037643D01*
X13748435Y-16047167D01*
X13757959Y-16066214D01*
X13757959Y-16085262D01*
X13662721Y-16104309D01*
X13834150Y-16161452D02*
X13853197Y-16170976D01*
X13891293Y-16170976D01*
X13910340Y-16161452D01*
X13919864Y-16142405D01*
X13919864Y-16132881D01*
X13910340Y-16113833D01*
X13891293Y-16104309D01*
X13862721Y-16104309D01*
X13843674Y-16094786D01*
X13834150Y-16075738D01*
X13834150Y-16066214D01*
X13843674Y-16047167D01*
X13862721Y-16037643D01*
X13891293Y-16037643D01*
X13910340Y-16047167D01*
X13986531Y-16247167D02*
X13996054Y-16237643D01*
X14015102Y-16209071D01*
X14024626Y-16190024D01*
X14034150Y-16161452D01*
X14043674Y-16113833D01*
X14043674Y-16075738D01*
X14034150Y-16028119D01*
X14024626Y-15999548D01*
X14015102Y-15980500D01*
X13996054Y-15951928D01*
X13986531Y-15942405D01*
X14348435Y-16247167D02*
X14338912Y-16237643D01*
X14319864Y-16209071D01*
X14310340Y-16190024D01*
X14300816Y-16161452D01*
X14291293Y-16113833D01*
X14291293Y-16075738D01*
X14300816Y-16028119D01*
X14310340Y-15999548D01*
X14319864Y-15980500D01*
X14338912Y-15951928D01*
X14348435Y-15942405D01*
X14424626Y-16037643D02*
X14424626Y-16170976D01*
X14424626Y-16056690D02*
X14434150Y-16047167D01*
X14453197Y-16037643D01*
X14481769Y-16037643D01*
X14500816Y-16047167D01*
X14510340Y-16066214D01*
X14510340Y-16170976D01*
X14634150Y-16170976D02*
X14615102Y-16161452D01*
X14605578Y-16151928D01*
X14596054Y-16132881D01*
X14596054Y-16075738D01*
X14605578Y-16056690D01*
X14615102Y-16047167D01*
X14634150Y-16037643D01*
X14662721Y-16037643D01*
X14681769Y-16047167D01*
X14691293Y-16056690D01*
X14700816Y-16075738D01*
X14700816Y-16132881D01*
X14691293Y-16151928D01*
X14681769Y-16161452D01*
X14662721Y-16170976D01*
X14634150Y-16170976D01*
X14757959Y-16037643D02*
X14834150Y-16037643D01*
X14786531Y-15970976D02*
X14786531Y-16142405D01*
X14796054Y-16161452D01*
X14815102Y-16170976D01*
X14834150Y-16170976D01*
X15053197Y-16037643D02*
X15053197Y-16237643D01*
X15053197Y-16047167D02*
X15072245Y-16037643D01*
X15110340Y-16037643D01*
X15129388Y-16047167D01*
X15138912Y-16056690D01*
X15148435Y-16075738D01*
X15148435Y-16132881D01*
X15138912Y-16151928D01*
X15129388Y-16161452D01*
X15110340Y-16170976D01*
X15072245Y-16170976D01*
X15053197Y-16161452D01*
X15262721Y-16170976D02*
X15243674Y-16161452D01*
X15234150Y-16142405D01*
X15234150Y-15970976D01*
X15424626Y-16170976D02*
X15424626Y-16066214D01*
X15415102Y-16047167D01*
X15396054Y-16037643D01*
X15357959Y-16037643D01*
X15338912Y-16047167D01*
X15424626Y-16161452D02*
X15405578Y-16170976D01*
X15357959Y-16170976D01*
X15338912Y-16161452D01*
X15329388Y-16142405D01*
X15329388Y-16123357D01*
X15338912Y-16104309D01*
X15357959Y-16094786D01*
X15405578Y-16094786D01*
X15424626Y-16085262D01*
X15491293Y-16037643D02*
X15567483Y-16037643D01*
X15519864Y-15970976D02*
X15519864Y-16142405D01*
X15529388Y-16161452D01*
X15548435Y-16170976D01*
X15567483Y-16170976D01*
X15710340Y-16161452D02*
X15691293Y-16170976D01*
X15653197Y-16170976D01*
X15634150Y-16161452D01*
X15624626Y-16142405D01*
X15624626Y-16066214D01*
X15634150Y-16047167D01*
X15653197Y-16037643D01*
X15691293Y-16037643D01*
X15710340Y-16047167D01*
X15719864Y-16066214D01*
X15719864Y-16085262D01*
X15624626Y-16104309D01*
X15891293Y-16170976D02*
X15891293Y-15970976D01*
X15891293Y-16161452D02*
X15872245Y-16170976D01*
X15834150Y-16170976D01*
X15815102Y-16161452D01*
X15805578Y-16151928D01*
X15796054Y-16132881D01*
X15796054Y-16075738D01*
X15805578Y-16056690D01*
X15815102Y-16047167D01*
X15834150Y-16037643D01*
X15872245Y-16037643D01*
X15891293Y-16047167D01*
X15967483Y-16247167D02*
X15977007Y-16237643D01*
X15996054Y-16209071D01*
X16005578Y-16190024D01*
X16015102Y-16161452D01*
X16024626Y-16113833D01*
X16024626Y-16075738D01*
X16015102Y-16028119D01*
X16005578Y-15999548D01*
X15996054Y-15980500D01*
X15977007Y-15951928D01*
X15967483Y-15942405D01*
M02*
