%FSLAX45Y45*%
G04 Gerber Fmt 4.5, Leading zero omitted, Abs format (unit mm)*
G04 Created by KiCad (PCBNEW (6.0.1-0)) date 2022-02-06 13:56:44*
%MOMM*%
%LPD*%
G01*
G04 APERTURE LIST*
%TA.AperFunction,Profile*%
%ADD10C,0.100000*%
%TD*%
%ADD11C,0.200000*%
%ADD12C,0.190000*%
%ADD13C,0.300000*%
%ADD14C,0.400000*%
G04 APERTURE END LIST*
D10*
X11112500Y-10985500D02*
G75*
G03*
X10985500Y-10858500I-127000J0D01*
G01*
X9334500Y-12763500D02*
G75*
G03*
X9334500Y-12509500I0J127000D01*
G01*
X11112500Y-10477500D02*
X11112500Y-9080500D01*
X9207500Y-14414500D02*
G75*
G03*
X9334500Y-14541500I127000J0D01*
G01*
X11112500Y-8572500D02*
X11112500Y-7048500D01*
X10985500Y-10604500D02*
G75*
G03*
X10985500Y-10858500I0J-127000D01*
G01*
X11112500Y-7048500D02*
G75*
G03*
X10985500Y-6921500I-127000J0D01*
G01*
X9334500Y-10858500D02*
G75*
G03*
X9207500Y-10985500I0J-127000D01*
G01*
X9334500Y-8953500D02*
G75*
G03*
X9207500Y-9080500I0J-127000D01*
G01*
X10858500Y-6794500D02*
G75*
G03*
X10985500Y-6921500I127000J0D01*
G01*
X10731500Y-5016500D02*
X9588500Y-5016500D01*
X9207500Y-8572500D02*
G75*
G03*
X9334500Y-8699500I127000J0D01*
G01*
X10985500Y-8699500D02*
G75*
G03*
X11112500Y-8572500I0J127000D01*
G01*
X9207500Y-12382500D02*
G75*
G03*
X9334500Y-12509500I127000J0D01*
G01*
X10985500Y-10604500D02*
G75*
G03*
X11112500Y-10477500I0J127000D01*
G01*
X11112500Y-12382500D02*
X11112500Y-10985500D01*
X10985500Y-12509500D02*
G75*
G03*
X10985500Y-12763500I0J-127000D01*
G01*
X9334500Y-10858500D02*
G75*
G03*
X9334500Y-10604500I0J127000D01*
G01*
X11112500Y-9080500D02*
G75*
G03*
X10985500Y-8953500I-127000J0D01*
G01*
X10858500Y-5143500D02*
G75*
G03*
X10731500Y-5016500I-127000J0D01*
G01*
X9588500Y-5016500D02*
G75*
G03*
X9461500Y-5143500I0J-127000D01*
G01*
X9207500Y-9080500D02*
X9207500Y-10477500D01*
X9334500Y-6921500D02*
G75*
G03*
X9207500Y-7048500I0J-127000D01*
G01*
X9334500Y-12763500D02*
G75*
G03*
X9207500Y-12890500I0J-127000D01*
G01*
X9207500Y-10985500D02*
X9207500Y-12382500D01*
X10985500Y-14541500D02*
G75*
G03*
X11112500Y-14414500I0J127000D01*
G01*
X9334500Y-6921500D02*
G75*
G03*
X9461500Y-6794500I0J127000D01*
G01*
X9207500Y-12890500D02*
X9207500Y-14414500D01*
X11112500Y-12890500D02*
G75*
G03*
X10985500Y-12763500I-127000J0D01*
G01*
X9334500Y-14541500D02*
X10985500Y-14541500D01*
X9207500Y-10477500D02*
G75*
G03*
X9334500Y-10604500I127000J0D01*
G01*
X10985500Y-12509500D02*
G75*
G03*
X11112500Y-12382500I0J127000D01*
G01*
X10985500Y-8699500D02*
G75*
G03*
X10985500Y-8953500I0J-127000D01*
G01*
X9461500Y-5143500D02*
X9461500Y-6794500D01*
X9334500Y-8953500D02*
G75*
G03*
X9334500Y-8699500I0J127000D01*
G01*
X11112500Y-14414500D02*
X11112500Y-12890500D01*
X10858500Y-6794500D02*
X10858500Y-5143500D01*
X9207500Y-7048500D02*
X9207500Y-8572500D01*
D11*
D12*
X9557000Y-7779000D02*
X9747000Y-7969000D01*
X9747000Y-7779000D02*
X9557000Y-7969000D01*
X9557000Y-9684000D02*
X9747000Y-9874000D01*
X9747000Y-9684000D02*
X9557000Y-9874000D01*
X9557000Y-11589000D02*
X9747000Y-11779000D01*
X9747000Y-11589000D02*
X9557000Y-11779000D01*
X9557000Y-13494000D02*
X9747000Y-13684000D01*
X9747000Y-13494000D02*
X9557000Y-13684000D01*
X10573000Y-7779000D02*
X10763000Y-7969000D01*
X10763000Y-7779000D02*
X10573000Y-7969000D01*
X10573000Y-9684000D02*
X10763000Y-9874000D01*
X10763000Y-9684000D02*
X10573000Y-9874000D01*
X10573000Y-11589000D02*
X10763000Y-11779000D01*
X10763000Y-11589000D02*
X10573000Y-11779000D01*
X10573000Y-13494000D02*
X10763000Y-13684000D01*
X10763000Y-13494000D02*
X10573000Y-13684000D01*
D13*
X9929000Y-7620000D02*
G75*
G03*
X9929000Y-7620000I-150000J0D01*
G01*
X9929000Y-9525000D02*
G75*
G03*
X9929000Y-9525000I-150000J0D01*
G01*
X9929000Y-11430000D02*
G75*
G03*
X9929000Y-11430000I-150000J0D01*
G01*
X9929000Y-13335000D02*
G75*
G03*
X9929000Y-13335000I-150000J0D01*
G01*
X10564000Y-7366000D02*
G75*
G03*
X10564000Y-7366000I-150000J0D01*
G01*
X10564000Y-9271000D02*
G75*
G03*
X10564000Y-9271000I-150000J0D01*
G01*
X10564000Y-11176000D02*
G75*
G03*
X10564000Y-11176000I-150000J0D01*
G01*
X10564000Y-13081000D02*
G75*
G03*
X10564000Y-13081000I-150000J0D01*
G01*
D14*
X10160000Y-7674000D02*
X10160000Y-8074000D01*
X9960000Y-7874000D02*
X10360000Y-7874000D01*
X10160000Y-9579000D02*
X10160000Y-9979000D01*
X9960000Y-9779000D02*
X10360000Y-9779000D01*
X10160000Y-11484000D02*
X10160000Y-11884000D01*
X9960000Y-11684000D02*
X10360000Y-11684000D01*
X10160000Y-13389000D02*
X10160000Y-13789000D01*
X9960000Y-13589000D02*
X10360000Y-13589000D01*
D11*
X9460119Y-14856976D02*
X9460119Y-14656976D01*
X9507738Y-14656976D01*
X9536310Y-14666500D01*
X9555357Y-14685548D01*
X9564881Y-14704595D01*
X9574405Y-14742690D01*
X9574405Y-14771262D01*
X9564881Y-14809357D01*
X9555357Y-14828405D01*
X9536310Y-14847452D01*
X9507738Y-14856976D01*
X9460119Y-14856976D01*
X9660119Y-14856976D02*
X9660119Y-14723643D01*
X9660119Y-14761738D02*
X9669643Y-14742690D01*
X9679167Y-14733167D01*
X9698214Y-14723643D01*
X9717262Y-14723643D01*
X9783929Y-14856976D02*
X9783929Y-14723643D01*
X9783929Y-14656976D02*
X9774405Y-14666500D01*
X9783929Y-14676024D01*
X9793452Y-14666500D01*
X9783929Y-14656976D01*
X9783929Y-14676024D01*
X9907738Y-14856976D02*
X9888690Y-14847452D01*
X9879167Y-14828405D01*
X9879167Y-14656976D01*
X10012500Y-14856976D02*
X9993452Y-14847452D01*
X9983929Y-14828405D01*
X9983929Y-14656976D01*
X10241071Y-14856976D02*
X10241071Y-14656976D01*
X10307738Y-14799833D01*
X10374405Y-14656976D01*
X10374405Y-14856976D01*
X10555357Y-14856976D02*
X10555357Y-14752214D01*
X10545833Y-14733167D01*
X10526786Y-14723643D01*
X10488690Y-14723643D01*
X10469643Y-14733167D01*
X10555357Y-14847452D02*
X10536310Y-14856976D01*
X10488690Y-14856976D01*
X10469643Y-14847452D01*
X10460119Y-14828405D01*
X10460119Y-14809357D01*
X10469643Y-14790309D01*
X10488690Y-14780786D01*
X10536310Y-14780786D01*
X10555357Y-14771262D01*
X10650595Y-14723643D02*
X10650595Y-14923643D01*
X10650595Y-14733167D02*
X10669643Y-14723643D01*
X10707738Y-14723643D01*
X10726786Y-14733167D01*
X10736310Y-14742690D01*
X10745833Y-14761738D01*
X10745833Y-14818881D01*
X10736310Y-14837928D01*
X10726786Y-14847452D01*
X10707738Y-14856976D01*
X10669643Y-14856976D01*
X10650595Y-14847452D01*
X10831548Y-14837928D02*
X10841071Y-14847452D01*
X10831548Y-14856976D01*
X10822024Y-14847452D01*
X10831548Y-14837928D01*
X10831548Y-14856976D01*
X10831548Y-14733167D02*
X10841071Y-14742690D01*
X10831548Y-14752214D01*
X10822024Y-14742690D01*
X10831548Y-14733167D01*
X10831548Y-14752214D01*
D12*
X9012500Y-15091500D02*
X9202500Y-15281500D01*
X9202500Y-15091500D02*
X9012500Y-15281500D01*
D11*
X9564881Y-15276976D02*
X9450595Y-15276976D01*
X9507738Y-15276976D02*
X9507738Y-15076976D01*
X9488690Y-15105548D01*
X9469643Y-15124595D01*
X9450595Y-15134119D01*
X9650595Y-15257928D02*
X9660119Y-15267452D01*
X9650595Y-15276976D01*
X9641071Y-15267452D01*
X9650595Y-15257928D01*
X9650595Y-15276976D01*
X9755357Y-15276976D02*
X9793452Y-15276976D01*
X9812500Y-15267452D01*
X9822024Y-15257928D01*
X9841071Y-15229357D01*
X9850595Y-15191262D01*
X9850595Y-15115071D01*
X9841071Y-15096024D01*
X9831548Y-15086500D01*
X9812500Y-15076976D01*
X9774405Y-15076976D01*
X9755357Y-15086500D01*
X9745833Y-15096024D01*
X9736310Y-15115071D01*
X9736310Y-15162690D01*
X9745833Y-15181738D01*
X9755357Y-15191262D01*
X9774405Y-15200786D01*
X9812500Y-15200786D01*
X9831548Y-15191262D01*
X9841071Y-15181738D01*
X9850595Y-15162690D01*
X9974405Y-15076976D02*
X9993452Y-15076976D01*
X10012500Y-15086500D01*
X10022024Y-15096024D01*
X10031548Y-15115071D01*
X10041071Y-15153167D01*
X10041071Y-15200786D01*
X10031548Y-15238881D01*
X10022024Y-15257928D01*
X10012500Y-15267452D01*
X9993452Y-15276976D01*
X9974405Y-15276976D01*
X9955357Y-15267452D01*
X9945833Y-15257928D01*
X9936310Y-15238881D01*
X9926786Y-15200786D01*
X9926786Y-15153167D01*
X9936310Y-15115071D01*
X9945833Y-15096024D01*
X9955357Y-15086500D01*
X9974405Y-15076976D01*
X10164881Y-15076976D02*
X10183929Y-15076976D01*
X10202976Y-15086500D01*
X10212500Y-15096024D01*
X10222024Y-15115071D01*
X10231548Y-15153167D01*
X10231548Y-15200786D01*
X10222024Y-15238881D01*
X10212500Y-15257928D01*
X10202976Y-15267452D01*
X10183929Y-15276976D01*
X10164881Y-15276976D01*
X10145833Y-15267452D01*
X10136310Y-15257928D01*
X10126786Y-15238881D01*
X10117262Y-15200786D01*
X10117262Y-15153167D01*
X10126786Y-15115071D01*
X10136310Y-15096024D01*
X10145833Y-15086500D01*
X10164881Y-15076976D01*
X10317262Y-15276976D02*
X10317262Y-15143643D01*
X10317262Y-15162690D02*
X10326786Y-15153167D01*
X10345833Y-15143643D01*
X10374405Y-15143643D01*
X10393452Y-15153167D01*
X10402976Y-15172214D01*
X10402976Y-15276976D01*
X10402976Y-15172214D02*
X10412500Y-15153167D01*
X10431548Y-15143643D01*
X10460119Y-15143643D01*
X10479167Y-15153167D01*
X10488690Y-15172214D01*
X10488690Y-15276976D01*
X10583929Y-15276976D02*
X10583929Y-15143643D01*
X10583929Y-15162690D02*
X10593452Y-15153167D01*
X10612500Y-15143643D01*
X10641071Y-15143643D01*
X10660119Y-15153167D01*
X10669643Y-15172214D01*
X10669643Y-15276976D01*
X10669643Y-15172214D02*
X10679167Y-15153167D01*
X10698214Y-15143643D01*
X10726786Y-15143643D01*
X10745833Y-15153167D01*
X10755357Y-15172214D01*
X10755357Y-15276976D01*
X11145833Y-15067452D02*
X10974405Y-15324595D01*
X11402976Y-15076976D02*
X11422024Y-15076976D01*
X11441071Y-15086500D01*
X11450595Y-15096024D01*
X11460119Y-15115071D01*
X11469643Y-15153167D01*
X11469643Y-15200786D01*
X11460119Y-15238881D01*
X11450595Y-15257928D01*
X11441071Y-15267452D01*
X11422024Y-15276976D01*
X11402976Y-15276976D01*
X11383928Y-15267452D01*
X11374405Y-15257928D01*
X11364881Y-15238881D01*
X11355357Y-15200786D01*
X11355357Y-15153167D01*
X11364881Y-15115071D01*
X11374405Y-15096024D01*
X11383928Y-15086500D01*
X11402976Y-15076976D01*
X11555357Y-15257928D02*
X11564881Y-15267452D01*
X11555357Y-15276976D01*
X11545833Y-15267452D01*
X11555357Y-15257928D01*
X11555357Y-15276976D01*
X11688690Y-15076976D02*
X11707738Y-15076976D01*
X11726786Y-15086500D01*
X11736309Y-15096024D01*
X11745833Y-15115071D01*
X11755357Y-15153167D01*
X11755357Y-15200786D01*
X11745833Y-15238881D01*
X11736309Y-15257928D01*
X11726786Y-15267452D01*
X11707738Y-15276976D01*
X11688690Y-15276976D01*
X11669643Y-15267452D01*
X11660119Y-15257928D01*
X11650595Y-15238881D01*
X11641071Y-15200786D01*
X11641071Y-15153167D01*
X11650595Y-15115071D01*
X11660119Y-15096024D01*
X11669643Y-15086500D01*
X11688690Y-15076976D01*
X11822024Y-15076976D02*
X11955357Y-15076976D01*
X11869643Y-15276976D01*
X12117262Y-15143643D02*
X12117262Y-15276976D01*
X12069643Y-15067452D02*
X12022024Y-15210309D01*
X12145833Y-15210309D01*
X12250595Y-15162690D02*
X12231548Y-15153167D01*
X12222024Y-15143643D01*
X12212500Y-15124595D01*
X12212500Y-15115071D01*
X12222024Y-15096024D01*
X12231548Y-15086500D01*
X12250595Y-15076976D01*
X12288690Y-15076976D01*
X12307738Y-15086500D01*
X12317262Y-15096024D01*
X12326786Y-15115071D01*
X12326786Y-15124595D01*
X12317262Y-15143643D01*
X12307738Y-15153167D01*
X12288690Y-15162690D01*
X12250595Y-15162690D01*
X12231548Y-15172214D01*
X12222024Y-15181738D01*
X12212500Y-15200786D01*
X12212500Y-15238881D01*
X12222024Y-15257928D01*
X12231548Y-15267452D01*
X12250595Y-15276976D01*
X12288690Y-15276976D01*
X12307738Y-15267452D01*
X12317262Y-15257928D01*
X12326786Y-15238881D01*
X12326786Y-15200786D01*
X12317262Y-15181738D01*
X12307738Y-15172214D01*
X12288690Y-15162690D01*
X12402976Y-15076976D02*
X12402976Y-15115071D01*
X12479167Y-15076976D02*
X12479167Y-15115071D01*
X12774405Y-15353167D02*
X12764881Y-15343643D01*
X12745833Y-15315071D01*
X12736309Y-15296024D01*
X12726786Y-15267452D01*
X12717262Y-15219833D01*
X12717262Y-15181738D01*
X12726786Y-15134119D01*
X12736309Y-15105548D01*
X12745833Y-15086500D01*
X12764881Y-15057928D01*
X12774405Y-15048405D01*
X12879167Y-15162690D02*
X12860119Y-15153167D01*
X12850595Y-15143643D01*
X12841071Y-15124595D01*
X12841071Y-15115071D01*
X12850595Y-15096024D01*
X12860119Y-15086500D01*
X12879167Y-15076976D01*
X12917262Y-15076976D01*
X12936309Y-15086500D01*
X12945833Y-15096024D01*
X12955357Y-15115071D01*
X12955357Y-15124595D01*
X12945833Y-15143643D01*
X12936309Y-15153167D01*
X12917262Y-15162690D01*
X12879167Y-15162690D01*
X12860119Y-15172214D01*
X12850595Y-15181738D01*
X12841071Y-15200786D01*
X12841071Y-15238881D01*
X12850595Y-15257928D01*
X12860119Y-15267452D01*
X12879167Y-15276976D01*
X12917262Y-15276976D01*
X12936309Y-15267452D01*
X12945833Y-15257928D01*
X12955357Y-15238881D01*
X12955357Y-15200786D01*
X12945833Y-15181738D01*
X12936309Y-15172214D01*
X12917262Y-15162690D01*
X13193452Y-15276976D02*
X13193452Y-15076976D01*
X13279167Y-15276976D02*
X13279167Y-15172214D01*
X13269643Y-15153167D01*
X13250595Y-15143643D01*
X13222024Y-15143643D01*
X13202976Y-15153167D01*
X13193452Y-15162690D01*
X13402976Y-15276976D02*
X13383928Y-15267452D01*
X13374405Y-15257928D01*
X13364881Y-15238881D01*
X13364881Y-15181738D01*
X13374405Y-15162690D01*
X13383928Y-15153167D01*
X13402976Y-15143643D01*
X13431548Y-15143643D01*
X13450595Y-15153167D01*
X13460119Y-15162690D01*
X13469643Y-15181738D01*
X13469643Y-15238881D01*
X13460119Y-15257928D01*
X13450595Y-15267452D01*
X13431548Y-15276976D01*
X13402976Y-15276976D01*
X13583928Y-15276976D02*
X13564881Y-15267452D01*
X13555357Y-15248405D01*
X13555357Y-15076976D01*
X13736309Y-15267452D02*
X13717262Y-15276976D01*
X13679167Y-15276976D01*
X13660119Y-15267452D01*
X13650595Y-15248405D01*
X13650595Y-15172214D01*
X13660119Y-15153167D01*
X13679167Y-15143643D01*
X13717262Y-15143643D01*
X13736309Y-15153167D01*
X13745833Y-15172214D01*
X13745833Y-15191262D01*
X13650595Y-15210309D01*
X13822024Y-15267452D02*
X13841071Y-15276976D01*
X13879167Y-15276976D01*
X13898214Y-15267452D01*
X13907738Y-15248405D01*
X13907738Y-15238881D01*
X13898214Y-15219833D01*
X13879167Y-15210309D01*
X13850595Y-15210309D01*
X13831548Y-15200786D01*
X13822024Y-15181738D01*
X13822024Y-15172214D01*
X13831548Y-15153167D01*
X13850595Y-15143643D01*
X13879167Y-15143643D01*
X13898214Y-15153167D01*
X13974405Y-15353167D02*
X13983928Y-15343643D01*
X14002976Y-15315071D01*
X14012500Y-15296024D01*
X14022024Y-15267452D01*
X14031548Y-15219833D01*
X14031548Y-15181738D01*
X14022024Y-15134119D01*
X14012500Y-15105548D01*
X14002976Y-15086500D01*
X13983928Y-15057928D01*
X13974405Y-15048405D01*
X14336309Y-15353167D02*
X14326786Y-15343643D01*
X14307738Y-15315071D01*
X14298214Y-15296024D01*
X14288690Y-15267452D01*
X14279167Y-15219833D01*
X14279167Y-15181738D01*
X14288690Y-15134119D01*
X14298214Y-15105548D01*
X14307738Y-15086500D01*
X14326786Y-15057928D01*
X14336309Y-15048405D01*
X14412500Y-15143643D02*
X14412500Y-15276976D01*
X14412500Y-15162690D02*
X14422024Y-15153167D01*
X14441071Y-15143643D01*
X14469643Y-15143643D01*
X14488690Y-15153167D01*
X14498214Y-15172214D01*
X14498214Y-15276976D01*
X14622024Y-15276976D02*
X14602976Y-15267452D01*
X14593452Y-15257928D01*
X14583928Y-15238881D01*
X14583928Y-15181738D01*
X14593452Y-15162690D01*
X14602976Y-15153167D01*
X14622024Y-15143643D01*
X14650595Y-15143643D01*
X14669643Y-15153167D01*
X14679167Y-15162690D01*
X14688690Y-15181738D01*
X14688690Y-15238881D01*
X14679167Y-15257928D01*
X14669643Y-15267452D01*
X14650595Y-15276976D01*
X14622024Y-15276976D01*
X14745833Y-15143643D02*
X14822024Y-15143643D01*
X14774405Y-15076976D02*
X14774405Y-15248405D01*
X14783928Y-15267452D01*
X14802976Y-15276976D01*
X14822024Y-15276976D01*
X15041071Y-15143643D02*
X15041071Y-15343643D01*
X15041071Y-15153167D02*
X15060119Y-15143643D01*
X15098214Y-15143643D01*
X15117262Y-15153167D01*
X15126786Y-15162690D01*
X15136309Y-15181738D01*
X15136309Y-15238881D01*
X15126786Y-15257928D01*
X15117262Y-15267452D01*
X15098214Y-15276976D01*
X15060119Y-15276976D01*
X15041071Y-15267452D01*
X15250595Y-15276976D02*
X15231548Y-15267452D01*
X15222024Y-15248405D01*
X15222024Y-15076976D01*
X15412500Y-15276976D02*
X15412500Y-15172214D01*
X15402976Y-15153167D01*
X15383928Y-15143643D01*
X15345833Y-15143643D01*
X15326786Y-15153167D01*
X15412500Y-15267452D02*
X15393452Y-15276976D01*
X15345833Y-15276976D01*
X15326786Y-15267452D01*
X15317262Y-15248405D01*
X15317262Y-15229357D01*
X15326786Y-15210309D01*
X15345833Y-15200786D01*
X15393452Y-15200786D01*
X15412500Y-15191262D01*
X15479167Y-15143643D02*
X15555357Y-15143643D01*
X15507738Y-15076976D02*
X15507738Y-15248405D01*
X15517262Y-15267452D01*
X15536309Y-15276976D01*
X15555357Y-15276976D01*
X15698214Y-15267452D02*
X15679167Y-15276976D01*
X15641071Y-15276976D01*
X15622024Y-15267452D01*
X15612500Y-15248405D01*
X15612500Y-15172214D01*
X15622024Y-15153167D01*
X15641071Y-15143643D01*
X15679167Y-15143643D01*
X15698214Y-15153167D01*
X15707738Y-15172214D01*
X15707738Y-15191262D01*
X15612500Y-15210309D01*
X15879167Y-15276976D02*
X15879167Y-15076976D01*
X15879167Y-15267452D02*
X15860119Y-15276976D01*
X15822024Y-15276976D01*
X15802976Y-15267452D01*
X15793452Y-15257928D01*
X15783928Y-15238881D01*
X15783928Y-15181738D01*
X15793452Y-15162690D01*
X15802976Y-15153167D01*
X15822024Y-15143643D01*
X15860119Y-15143643D01*
X15879167Y-15153167D01*
X15955357Y-15353167D02*
X15964881Y-15343643D01*
X15983928Y-15315071D01*
X15993452Y-15296024D01*
X16002976Y-15267452D01*
X16012500Y-15219833D01*
X16012500Y-15181738D01*
X16002976Y-15134119D01*
X15993452Y-15105548D01*
X15983928Y-15086500D01*
X15964881Y-15057928D01*
X15955357Y-15048405D01*
X9202500Y-15496500D02*
G75*
G03*
X9202500Y-15496500I-100000J0D01*
G01*
X9441071Y-15386976D02*
X9564881Y-15386976D01*
X9498214Y-15463167D01*
X9526786Y-15463167D01*
X9545833Y-15472690D01*
X9555357Y-15482214D01*
X9564881Y-15501262D01*
X9564881Y-15548881D01*
X9555357Y-15567928D01*
X9545833Y-15577452D01*
X9526786Y-15586976D01*
X9469643Y-15586976D01*
X9450595Y-15577452D01*
X9441071Y-15567928D01*
X9650595Y-15567928D02*
X9660119Y-15577452D01*
X9650595Y-15586976D01*
X9641071Y-15577452D01*
X9650595Y-15567928D01*
X9650595Y-15586976D01*
X9783929Y-15386976D02*
X9802976Y-15386976D01*
X9822024Y-15396500D01*
X9831548Y-15406024D01*
X9841071Y-15425071D01*
X9850595Y-15463167D01*
X9850595Y-15510786D01*
X9841071Y-15548881D01*
X9831548Y-15567928D01*
X9822024Y-15577452D01*
X9802976Y-15586976D01*
X9783929Y-15586976D01*
X9764881Y-15577452D01*
X9755357Y-15567928D01*
X9745833Y-15548881D01*
X9736310Y-15510786D01*
X9736310Y-15463167D01*
X9745833Y-15425071D01*
X9755357Y-15406024D01*
X9764881Y-15396500D01*
X9783929Y-15386976D01*
X9974405Y-15386976D02*
X9993452Y-15386976D01*
X10012500Y-15396500D01*
X10022024Y-15406024D01*
X10031548Y-15425071D01*
X10041071Y-15463167D01*
X10041071Y-15510786D01*
X10031548Y-15548881D01*
X10022024Y-15567928D01*
X10012500Y-15577452D01*
X9993452Y-15586976D01*
X9974405Y-15586976D01*
X9955357Y-15577452D01*
X9945833Y-15567928D01*
X9936310Y-15548881D01*
X9926786Y-15510786D01*
X9926786Y-15463167D01*
X9936310Y-15425071D01*
X9945833Y-15406024D01*
X9955357Y-15396500D01*
X9974405Y-15386976D01*
X10164881Y-15386976D02*
X10183929Y-15386976D01*
X10202976Y-15396500D01*
X10212500Y-15406024D01*
X10222024Y-15425071D01*
X10231548Y-15463167D01*
X10231548Y-15510786D01*
X10222024Y-15548881D01*
X10212500Y-15567928D01*
X10202976Y-15577452D01*
X10183929Y-15586976D01*
X10164881Y-15586976D01*
X10145833Y-15577452D01*
X10136310Y-15567928D01*
X10126786Y-15548881D01*
X10117262Y-15510786D01*
X10117262Y-15463167D01*
X10126786Y-15425071D01*
X10136310Y-15406024D01*
X10145833Y-15396500D01*
X10164881Y-15386976D01*
X10317262Y-15586976D02*
X10317262Y-15453643D01*
X10317262Y-15472690D02*
X10326786Y-15463167D01*
X10345833Y-15453643D01*
X10374405Y-15453643D01*
X10393452Y-15463167D01*
X10402976Y-15482214D01*
X10402976Y-15586976D01*
X10402976Y-15482214D02*
X10412500Y-15463167D01*
X10431548Y-15453643D01*
X10460119Y-15453643D01*
X10479167Y-15463167D01*
X10488690Y-15482214D01*
X10488690Y-15586976D01*
X10583929Y-15586976D02*
X10583929Y-15453643D01*
X10583929Y-15472690D02*
X10593452Y-15463167D01*
X10612500Y-15453643D01*
X10641071Y-15453643D01*
X10660119Y-15463167D01*
X10669643Y-15482214D01*
X10669643Y-15586976D01*
X10669643Y-15482214D02*
X10679167Y-15463167D01*
X10698214Y-15453643D01*
X10726786Y-15453643D01*
X10745833Y-15463167D01*
X10755357Y-15482214D01*
X10755357Y-15586976D01*
X11145833Y-15377452D02*
X10974405Y-15634595D01*
X11402976Y-15386976D02*
X11422024Y-15386976D01*
X11441071Y-15396500D01*
X11450595Y-15406024D01*
X11460119Y-15425071D01*
X11469643Y-15463167D01*
X11469643Y-15510786D01*
X11460119Y-15548881D01*
X11450595Y-15567928D01*
X11441071Y-15577452D01*
X11422024Y-15586976D01*
X11402976Y-15586976D01*
X11383928Y-15577452D01*
X11374405Y-15567928D01*
X11364881Y-15548881D01*
X11355357Y-15510786D01*
X11355357Y-15463167D01*
X11364881Y-15425071D01*
X11374405Y-15406024D01*
X11383928Y-15396500D01*
X11402976Y-15386976D01*
X11555357Y-15567928D02*
X11564881Y-15577452D01*
X11555357Y-15586976D01*
X11545833Y-15577452D01*
X11555357Y-15567928D01*
X11555357Y-15586976D01*
X11755357Y-15586976D02*
X11641071Y-15586976D01*
X11698214Y-15586976D02*
X11698214Y-15386976D01*
X11679167Y-15415548D01*
X11660119Y-15434595D01*
X11641071Y-15444119D01*
X11945833Y-15586976D02*
X11831548Y-15586976D01*
X11888690Y-15586976D02*
X11888690Y-15386976D01*
X11869643Y-15415548D01*
X11850595Y-15434595D01*
X11831548Y-15444119D01*
X12060119Y-15472690D02*
X12041071Y-15463167D01*
X12031548Y-15453643D01*
X12022024Y-15434595D01*
X12022024Y-15425071D01*
X12031548Y-15406024D01*
X12041071Y-15396500D01*
X12060119Y-15386976D01*
X12098214Y-15386976D01*
X12117262Y-15396500D01*
X12126786Y-15406024D01*
X12136309Y-15425071D01*
X12136309Y-15434595D01*
X12126786Y-15453643D01*
X12117262Y-15463167D01*
X12098214Y-15472690D01*
X12060119Y-15472690D01*
X12041071Y-15482214D01*
X12031548Y-15491738D01*
X12022024Y-15510786D01*
X12022024Y-15548881D01*
X12031548Y-15567928D01*
X12041071Y-15577452D01*
X12060119Y-15586976D01*
X12098214Y-15586976D01*
X12117262Y-15577452D01*
X12126786Y-15567928D01*
X12136309Y-15548881D01*
X12136309Y-15510786D01*
X12126786Y-15491738D01*
X12117262Y-15482214D01*
X12098214Y-15472690D01*
X12326786Y-15586976D02*
X12212500Y-15586976D01*
X12269643Y-15586976D02*
X12269643Y-15386976D01*
X12250595Y-15415548D01*
X12231548Y-15434595D01*
X12212500Y-15444119D01*
X12402976Y-15386976D02*
X12402976Y-15425071D01*
X12479167Y-15386976D02*
X12479167Y-15425071D01*
X12774405Y-15663167D02*
X12764881Y-15653643D01*
X12745833Y-15625071D01*
X12736309Y-15606024D01*
X12726786Y-15577452D01*
X12717262Y-15529833D01*
X12717262Y-15491738D01*
X12726786Y-15444119D01*
X12736309Y-15415548D01*
X12745833Y-15396500D01*
X12764881Y-15367928D01*
X12774405Y-15358405D01*
X12879167Y-15472690D02*
X12860119Y-15463167D01*
X12850595Y-15453643D01*
X12841071Y-15434595D01*
X12841071Y-15425071D01*
X12850595Y-15406024D01*
X12860119Y-15396500D01*
X12879167Y-15386976D01*
X12917262Y-15386976D01*
X12936309Y-15396500D01*
X12945833Y-15406024D01*
X12955357Y-15425071D01*
X12955357Y-15434595D01*
X12945833Y-15453643D01*
X12936309Y-15463167D01*
X12917262Y-15472690D01*
X12879167Y-15472690D01*
X12860119Y-15482214D01*
X12850595Y-15491738D01*
X12841071Y-15510786D01*
X12841071Y-15548881D01*
X12850595Y-15567928D01*
X12860119Y-15577452D01*
X12879167Y-15586976D01*
X12917262Y-15586976D01*
X12936309Y-15577452D01*
X12945833Y-15567928D01*
X12955357Y-15548881D01*
X12955357Y-15510786D01*
X12945833Y-15491738D01*
X12936309Y-15482214D01*
X12917262Y-15472690D01*
X13193452Y-15586976D02*
X13193452Y-15386976D01*
X13279167Y-15586976D02*
X13279167Y-15482214D01*
X13269643Y-15463167D01*
X13250595Y-15453643D01*
X13222024Y-15453643D01*
X13202976Y-15463167D01*
X13193452Y-15472690D01*
X13402976Y-15586976D02*
X13383928Y-15577452D01*
X13374405Y-15567928D01*
X13364881Y-15548881D01*
X13364881Y-15491738D01*
X13374405Y-15472690D01*
X13383928Y-15463167D01*
X13402976Y-15453643D01*
X13431548Y-15453643D01*
X13450595Y-15463167D01*
X13460119Y-15472690D01*
X13469643Y-15491738D01*
X13469643Y-15548881D01*
X13460119Y-15567928D01*
X13450595Y-15577452D01*
X13431548Y-15586976D01*
X13402976Y-15586976D01*
X13583928Y-15586976D02*
X13564881Y-15577452D01*
X13555357Y-15558405D01*
X13555357Y-15386976D01*
X13736309Y-15577452D02*
X13717262Y-15586976D01*
X13679167Y-15586976D01*
X13660119Y-15577452D01*
X13650595Y-15558405D01*
X13650595Y-15482214D01*
X13660119Y-15463167D01*
X13679167Y-15453643D01*
X13717262Y-15453643D01*
X13736309Y-15463167D01*
X13745833Y-15482214D01*
X13745833Y-15501262D01*
X13650595Y-15520309D01*
X13822024Y-15577452D02*
X13841071Y-15586976D01*
X13879167Y-15586976D01*
X13898214Y-15577452D01*
X13907738Y-15558405D01*
X13907738Y-15548881D01*
X13898214Y-15529833D01*
X13879167Y-15520309D01*
X13850595Y-15520309D01*
X13831548Y-15510786D01*
X13822024Y-15491738D01*
X13822024Y-15482214D01*
X13831548Y-15463167D01*
X13850595Y-15453643D01*
X13879167Y-15453643D01*
X13898214Y-15463167D01*
X13974405Y-15663167D02*
X13983928Y-15653643D01*
X14002976Y-15625071D01*
X14012500Y-15606024D01*
X14022024Y-15577452D01*
X14031548Y-15529833D01*
X14031548Y-15491738D01*
X14022024Y-15444119D01*
X14012500Y-15415548D01*
X14002976Y-15396500D01*
X13983928Y-15367928D01*
X13974405Y-15358405D01*
X14336309Y-15663167D02*
X14326786Y-15653643D01*
X14307738Y-15625071D01*
X14298214Y-15606024D01*
X14288690Y-15577452D01*
X14279167Y-15529833D01*
X14279167Y-15491738D01*
X14288690Y-15444119D01*
X14298214Y-15415548D01*
X14307738Y-15396500D01*
X14326786Y-15367928D01*
X14336309Y-15358405D01*
X14412500Y-15453643D02*
X14412500Y-15586976D01*
X14412500Y-15472690D02*
X14422024Y-15463167D01*
X14441071Y-15453643D01*
X14469643Y-15453643D01*
X14488690Y-15463167D01*
X14498214Y-15482214D01*
X14498214Y-15586976D01*
X14622024Y-15586976D02*
X14602976Y-15577452D01*
X14593452Y-15567928D01*
X14583928Y-15548881D01*
X14583928Y-15491738D01*
X14593452Y-15472690D01*
X14602976Y-15463167D01*
X14622024Y-15453643D01*
X14650595Y-15453643D01*
X14669643Y-15463167D01*
X14679167Y-15472690D01*
X14688690Y-15491738D01*
X14688690Y-15548881D01*
X14679167Y-15567928D01*
X14669643Y-15577452D01*
X14650595Y-15586976D01*
X14622024Y-15586976D01*
X14745833Y-15453643D02*
X14822024Y-15453643D01*
X14774405Y-15386976D02*
X14774405Y-15558405D01*
X14783928Y-15577452D01*
X14802976Y-15586976D01*
X14822024Y-15586976D01*
X15041071Y-15453643D02*
X15041071Y-15653643D01*
X15041071Y-15463167D02*
X15060119Y-15453643D01*
X15098214Y-15453643D01*
X15117262Y-15463167D01*
X15126786Y-15472690D01*
X15136309Y-15491738D01*
X15136309Y-15548881D01*
X15126786Y-15567928D01*
X15117262Y-15577452D01*
X15098214Y-15586976D01*
X15060119Y-15586976D01*
X15041071Y-15577452D01*
X15250595Y-15586976D02*
X15231548Y-15577452D01*
X15222024Y-15558405D01*
X15222024Y-15386976D01*
X15412500Y-15586976D02*
X15412500Y-15482214D01*
X15402976Y-15463167D01*
X15383928Y-15453643D01*
X15345833Y-15453643D01*
X15326786Y-15463167D01*
X15412500Y-15577452D02*
X15393452Y-15586976D01*
X15345833Y-15586976D01*
X15326786Y-15577452D01*
X15317262Y-15558405D01*
X15317262Y-15539357D01*
X15326786Y-15520309D01*
X15345833Y-15510786D01*
X15393452Y-15510786D01*
X15412500Y-15501262D01*
X15479167Y-15453643D02*
X15555357Y-15453643D01*
X15507738Y-15386976D02*
X15507738Y-15558405D01*
X15517262Y-15577452D01*
X15536309Y-15586976D01*
X15555357Y-15586976D01*
X15698214Y-15577452D02*
X15679167Y-15586976D01*
X15641071Y-15586976D01*
X15622024Y-15577452D01*
X15612500Y-15558405D01*
X15612500Y-15482214D01*
X15622024Y-15463167D01*
X15641071Y-15453643D01*
X15679167Y-15453643D01*
X15698214Y-15463167D01*
X15707738Y-15482214D01*
X15707738Y-15501262D01*
X15612500Y-15520309D01*
X15879167Y-15586976D02*
X15879167Y-15386976D01*
X15879167Y-15577452D02*
X15860119Y-15586976D01*
X15822024Y-15586976D01*
X15802976Y-15577452D01*
X15793452Y-15567928D01*
X15783928Y-15548881D01*
X15783928Y-15491738D01*
X15793452Y-15472690D01*
X15802976Y-15463167D01*
X15822024Y-15453643D01*
X15860119Y-15453643D01*
X15879167Y-15463167D01*
X15955357Y-15663167D02*
X15964881Y-15653643D01*
X15983928Y-15625071D01*
X15993452Y-15606024D01*
X16002976Y-15577452D01*
X16012500Y-15529833D01*
X16012500Y-15491738D01*
X16002976Y-15444119D01*
X15993452Y-15415548D01*
X15983928Y-15396500D01*
X15964881Y-15367928D01*
X15955357Y-15358405D01*
X9102500Y-15716500D02*
X9102500Y-15916500D01*
X9002500Y-15816500D02*
X9202500Y-15816500D01*
X9545833Y-15773643D02*
X9545833Y-15906976D01*
X9498214Y-15697452D02*
X9450595Y-15840309D01*
X9574405Y-15840309D01*
X9650595Y-15887928D02*
X9660119Y-15897452D01*
X9650595Y-15906976D01*
X9641071Y-15897452D01*
X9650595Y-15887928D01*
X9650595Y-15906976D01*
X9783929Y-15706976D02*
X9802976Y-15706976D01*
X9822024Y-15716500D01*
X9831548Y-15726024D01*
X9841071Y-15745071D01*
X9850595Y-15783167D01*
X9850595Y-15830786D01*
X9841071Y-15868881D01*
X9831548Y-15887928D01*
X9822024Y-15897452D01*
X9802976Y-15906976D01*
X9783929Y-15906976D01*
X9764881Y-15897452D01*
X9755357Y-15887928D01*
X9745833Y-15868881D01*
X9736310Y-15830786D01*
X9736310Y-15783167D01*
X9745833Y-15745071D01*
X9755357Y-15726024D01*
X9764881Y-15716500D01*
X9783929Y-15706976D01*
X9974405Y-15706976D02*
X9993452Y-15706976D01*
X10012500Y-15716500D01*
X10022024Y-15726024D01*
X10031548Y-15745071D01*
X10041071Y-15783167D01*
X10041071Y-15830786D01*
X10031548Y-15868881D01*
X10022024Y-15887928D01*
X10012500Y-15897452D01*
X9993452Y-15906976D01*
X9974405Y-15906976D01*
X9955357Y-15897452D01*
X9945833Y-15887928D01*
X9936310Y-15868881D01*
X9926786Y-15830786D01*
X9926786Y-15783167D01*
X9936310Y-15745071D01*
X9945833Y-15726024D01*
X9955357Y-15716500D01*
X9974405Y-15706976D01*
X10164881Y-15706976D02*
X10183929Y-15706976D01*
X10202976Y-15716500D01*
X10212500Y-15726024D01*
X10222024Y-15745071D01*
X10231548Y-15783167D01*
X10231548Y-15830786D01*
X10222024Y-15868881D01*
X10212500Y-15887928D01*
X10202976Y-15897452D01*
X10183929Y-15906976D01*
X10164881Y-15906976D01*
X10145833Y-15897452D01*
X10136310Y-15887928D01*
X10126786Y-15868881D01*
X10117262Y-15830786D01*
X10117262Y-15783167D01*
X10126786Y-15745071D01*
X10136310Y-15726024D01*
X10145833Y-15716500D01*
X10164881Y-15706976D01*
X10317262Y-15906976D02*
X10317262Y-15773643D01*
X10317262Y-15792690D02*
X10326786Y-15783167D01*
X10345833Y-15773643D01*
X10374405Y-15773643D01*
X10393452Y-15783167D01*
X10402976Y-15802214D01*
X10402976Y-15906976D01*
X10402976Y-15802214D02*
X10412500Y-15783167D01*
X10431548Y-15773643D01*
X10460119Y-15773643D01*
X10479167Y-15783167D01*
X10488690Y-15802214D01*
X10488690Y-15906976D01*
X10583929Y-15906976D02*
X10583929Y-15773643D01*
X10583929Y-15792690D02*
X10593452Y-15783167D01*
X10612500Y-15773643D01*
X10641071Y-15773643D01*
X10660119Y-15783167D01*
X10669643Y-15802214D01*
X10669643Y-15906976D01*
X10669643Y-15802214D02*
X10679167Y-15783167D01*
X10698214Y-15773643D01*
X10726786Y-15773643D01*
X10745833Y-15783167D01*
X10755357Y-15802214D01*
X10755357Y-15906976D01*
X11145833Y-15697452D02*
X10974405Y-15954595D01*
X11402976Y-15706976D02*
X11422024Y-15706976D01*
X11441071Y-15716500D01*
X11450595Y-15726024D01*
X11460119Y-15745071D01*
X11469643Y-15783167D01*
X11469643Y-15830786D01*
X11460119Y-15868881D01*
X11450595Y-15887928D01*
X11441071Y-15897452D01*
X11422024Y-15906976D01*
X11402976Y-15906976D01*
X11383928Y-15897452D01*
X11374405Y-15887928D01*
X11364881Y-15868881D01*
X11355357Y-15830786D01*
X11355357Y-15783167D01*
X11364881Y-15745071D01*
X11374405Y-15726024D01*
X11383928Y-15716500D01*
X11402976Y-15706976D01*
X11555357Y-15887928D02*
X11564881Y-15897452D01*
X11555357Y-15906976D01*
X11545833Y-15897452D01*
X11555357Y-15887928D01*
X11555357Y-15906976D01*
X11755357Y-15906976D02*
X11641071Y-15906976D01*
X11698214Y-15906976D02*
X11698214Y-15706976D01*
X11679167Y-15735548D01*
X11660119Y-15754595D01*
X11641071Y-15764119D01*
X11936309Y-15706976D02*
X11841071Y-15706976D01*
X11831548Y-15802214D01*
X11841071Y-15792690D01*
X11860119Y-15783167D01*
X11907738Y-15783167D01*
X11926786Y-15792690D01*
X11936309Y-15802214D01*
X11945833Y-15821262D01*
X11945833Y-15868881D01*
X11936309Y-15887928D01*
X11926786Y-15897452D01*
X11907738Y-15906976D01*
X11860119Y-15906976D01*
X11841071Y-15897452D01*
X11831548Y-15887928D01*
X12012500Y-15706976D02*
X12145833Y-15706976D01*
X12060119Y-15906976D01*
X12317262Y-15706976D02*
X12222024Y-15706976D01*
X12212500Y-15802214D01*
X12222024Y-15792690D01*
X12241071Y-15783167D01*
X12288690Y-15783167D01*
X12307738Y-15792690D01*
X12317262Y-15802214D01*
X12326786Y-15821262D01*
X12326786Y-15868881D01*
X12317262Y-15887928D01*
X12307738Y-15897452D01*
X12288690Y-15906976D01*
X12241071Y-15906976D01*
X12222024Y-15897452D01*
X12212500Y-15887928D01*
X12402976Y-15706976D02*
X12402976Y-15745071D01*
X12479167Y-15706976D02*
X12479167Y-15745071D01*
X12774405Y-15983167D02*
X12764881Y-15973643D01*
X12745833Y-15945071D01*
X12736309Y-15926024D01*
X12726786Y-15897452D01*
X12717262Y-15849833D01*
X12717262Y-15811738D01*
X12726786Y-15764119D01*
X12736309Y-15735548D01*
X12745833Y-15716500D01*
X12764881Y-15687928D01*
X12774405Y-15678405D01*
X12936309Y-15773643D02*
X12936309Y-15906976D01*
X12888690Y-15697452D02*
X12841071Y-15840309D01*
X12964881Y-15840309D01*
X13193452Y-15906976D02*
X13193452Y-15706976D01*
X13279167Y-15906976D02*
X13279167Y-15802214D01*
X13269643Y-15783167D01*
X13250595Y-15773643D01*
X13222024Y-15773643D01*
X13202976Y-15783167D01*
X13193452Y-15792690D01*
X13402976Y-15906976D02*
X13383928Y-15897452D01*
X13374405Y-15887928D01*
X13364881Y-15868881D01*
X13364881Y-15811738D01*
X13374405Y-15792690D01*
X13383928Y-15783167D01*
X13402976Y-15773643D01*
X13431548Y-15773643D01*
X13450595Y-15783167D01*
X13460119Y-15792690D01*
X13469643Y-15811738D01*
X13469643Y-15868881D01*
X13460119Y-15887928D01*
X13450595Y-15897452D01*
X13431548Y-15906976D01*
X13402976Y-15906976D01*
X13583928Y-15906976D02*
X13564881Y-15897452D01*
X13555357Y-15878405D01*
X13555357Y-15706976D01*
X13736309Y-15897452D02*
X13717262Y-15906976D01*
X13679167Y-15906976D01*
X13660119Y-15897452D01*
X13650595Y-15878405D01*
X13650595Y-15802214D01*
X13660119Y-15783167D01*
X13679167Y-15773643D01*
X13717262Y-15773643D01*
X13736309Y-15783167D01*
X13745833Y-15802214D01*
X13745833Y-15821262D01*
X13650595Y-15840309D01*
X13822024Y-15897452D02*
X13841071Y-15906976D01*
X13879167Y-15906976D01*
X13898214Y-15897452D01*
X13907738Y-15878405D01*
X13907738Y-15868881D01*
X13898214Y-15849833D01*
X13879167Y-15840309D01*
X13850595Y-15840309D01*
X13831548Y-15830786D01*
X13822024Y-15811738D01*
X13822024Y-15802214D01*
X13831548Y-15783167D01*
X13850595Y-15773643D01*
X13879167Y-15773643D01*
X13898214Y-15783167D01*
X13974405Y-15983167D02*
X13983928Y-15973643D01*
X14002976Y-15945071D01*
X14012500Y-15926024D01*
X14022024Y-15897452D01*
X14031548Y-15849833D01*
X14031548Y-15811738D01*
X14022024Y-15764119D01*
X14012500Y-15735548D01*
X14002976Y-15716500D01*
X13983928Y-15687928D01*
X13974405Y-15678405D01*
X14336309Y-15983167D02*
X14326786Y-15973643D01*
X14307738Y-15945071D01*
X14298214Y-15926024D01*
X14288690Y-15897452D01*
X14279167Y-15849833D01*
X14279167Y-15811738D01*
X14288690Y-15764119D01*
X14298214Y-15735548D01*
X14307738Y-15716500D01*
X14326786Y-15687928D01*
X14336309Y-15678405D01*
X14412500Y-15773643D02*
X14412500Y-15906976D01*
X14412500Y-15792690D02*
X14422024Y-15783167D01*
X14441071Y-15773643D01*
X14469643Y-15773643D01*
X14488690Y-15783167D01*
X14498214Y-15802214D01*
X14498214Y-15906976D01*
X14622024Y-15906976D02*
X14602976Y-15897452D01*
X14593452Y-15887928D01*
X14583928Y-15868881D01*
X14583928Y-15811738D01*
X14593452Y-15792690D01*
X14602976Y-15783167D01*
X14622024Y-15773643D01*
X14650595Y-15773643D01*
X14669643Y-15783167D01*
X14679167Y-15792690D01*
X14688690Y-15811738D01*
X14688690Y-15868881D01*
X14679167Y-15887928D01*
X14669643Y-15897452D01*
X14650595Y-15906976D01*
X14622024Y-15906976D01*
X14745833Y-15773643D02*
X14822024Y-15773643D01*
X14774405Y-15706976D02*
X14774405Y-15878405D01*
X14783928Y-15897452D01*
X14802976Y-15906976D01*
X14822024Y-15906976D01*
X15041071Y-15773643D02*
X15041071Y-15973643D01*
X15041071Y-15783167D02*
X15060119Y-15773643D01*
X15098214Y-15773643D01*
X15117262Y-15783167D01*
X15126786Y-15792690D01*
X15136309Y-15811738D01*
X15136309Y-15868881D01*
X15126786Y-15887928D01*
X15117262Y-15897452D01*
X15098214Y-15906976D01*
X15060119Y-15906976D01*
X15041071Y-15897452D01*
X15250595Y-15906976D02*
X15231548Y-15897452D01*
X15222024Y-15878405D01*
X15222024Y-15706976D01*
X15412500Y-15906976D02*
X15412500Y-15802214D01*
X15402976Y-15783167D01*
X15383928Y-15773643D01*
X15345833Y-15773643D01*
X15326786Y-15783167D01*
X15412500Y-15897452D02*
X15393452Y-15906976D01*
X15345833Y-15906976D01*
X15326786Y-15897452D01*
X15317262Y-15878405D01*
X15317262Y-15859357D01*
X15326786Y-15840309D01*
X15345833Y-15830786D01*
X15393452Y-15830786D01*
X15412500Y-15821262D01*
X15479167Y-15773643D02*
X15555357Y-15773643D01*
X15507738Y-15706976D02*
X15507738Y-15878405D01*
X15517262Y-15897452D01*
X15536309Y-15906976D01*
X15555357Y-15906976D01*
X15698214Y-15897452D02*
X15679167Y-15906976D01*
X15641071Y-15906976D01*
X15622024Y-15897452D01*
X15612500Y-15878405D01*
X15612500Y-15802214D01*
X15622024Y-15783167D01*
X15641071Y-15773643D01*
X15679167Y-15773643D01*
X15698214Y-15783167D01*
X15707738Y-15802214D01*
X15707738Y-15821262D01*
X15612500Y-15840309D01*
X15879167Y-15906976D02*
X15879167Y-15706976D01*
X15879167Y-15897452D02*
X15860119Y-15906976D01*
X15822024Y-15906976D01*
X15802976Y-15897452D01*
X15793452Y-15887928D01*
X15783928Y-15868881D01*
X15783928Y-15811738D01*
X15793452Y-15792690D01*
X15802976Y-15783167D01*
X15822024Y-15773643D01*
X15860119Y-15773643D01*
X15879167Y-15783167D01*
X15955357Y-15983167D02*
X15964881Y-15973643D01*
X15983928Y-15945071D01*
X15993452Y-15926024D01*
X16002976Y-15897452D01*
X16012500Y-15849833D01*
X16012500Y-15811738D01*
X16002976Y-15764119D01*
X15993452Y-15735548D01*
X15983928Y-15716500D01*
X15964881Y-15687928D01*
X15955357Y-15678405D01*
M02*
