%TF.GenerationSoftware,KiCad,Pcbnew,(6.0.4-0)*%
%TF.CreationDate,2022-03-28T13:48:44+08:00*%
%TF.ProjectId,Phalanx,5068616c-616e-4782-9e6b-696361645f70,rev?*%
%TF.SameCoordinates,Original*%
%TF.FileFunction,Profile,NP*%
%FSLAX46Y46*%
G04 Gerber Fmt 4.6, Leading zero omitted, Abs format (unit mm)*
G04 Created by KiCad (PCBNEW (6.0.4-0)) date 2022-03-28 13:48:44*
%MOMM*%
%LPD*%
G01*
G04 APERTURE LIST*
%TA.AperFunction,Profile*%
%ADD10C,0.100000*%
%TD*%
G04 APERTURE END LIST*
D10*
X110997945Y-109854994D02*
G75*
G03*
X109855000Y-108585000I-1142945J120694D01*
G01*
X93345000Y-127635000D02*
G75*
G03*
X93345000Y-125095000I0J1270000D01*
G01*
X110998000Y-104902000D02*
X110998000Y-90678000D01*
X92202000Y-144145000D02*
G75*
G03*
X93472000Y-145415000I1270000J0D01*
G01*
X110998000Y-85852000D02*
X110988974Y-70485000D01*
X109855000Y-106045000D02*
G75*
G03*
X109855000Y-108585000I0J-1270000D01*
G01*
X92202000Y-85852000D02*
G75*
G03*
X93345000Y-86995000I1143000J0D01*
G01*
X110989000Y-70485000D02*
G75*
G03*
X109718974Y-69215000I-1270000J0D01*
G01*
X93345000Y-108585000D02*
G75*
G03*
X92202000Y-109728000I0J-1143000D01*
G01*
X93345000Y-89535000D02*
G75*
G03*
X92202000Y-90678000I0J-1143000D01*
G01*
X108585037Y-67945000D02*
G75*
G03*
X109718974Y-69215000I1278163J0D01*
G01*
X107315000Y-50165000D02*
X95885000Y-50165000D01*
X109855000Y-86995000D02*
G75*
G03*
X110998000Y-85852000I0J1143000D01*
G01*
X92202000Y-123952000D02*
G75*
G03*
X93345000Y-125095000I1033900J-109100D01*
G01*
X109855000Y-106045000D02*
G75*
G03*
X110998000Y-104902000I0J1143000D01*
G01*
X110998000Y-123952000D02*
X110998000Y-109855000D01*
X109855000Y-125095000D02*
G75*
G03*
X109855000Y-127635000I0J-1270000D01*
G01*
X93345000Y-108585000D02*
G75*
G03*
X93345000Y-106045000I0J1270000D01*
G01*
X110998000Y-90678000D02*
G75*
G03*
X109855000Y-89535000I-1143000J0D01*
G01*
X108585000Y-51435000D02*
G75*
G03*
X107315000Y-50165000I-1270000J0D01*
G01*
X95885000Y-50165000D02*
G75*
G03*
X94615000Y-51435000I0J-1270000D01*
G01*
X92202000Y-90678000D02*
X92202000Y-104902000D01*
X93481026Y-69224071D02*
G75*
G03*
X92202000Y-70485000I-26J-1279129D01*
G01*
X93345000Y-127635000D02*
G75*
G03*
X92202000Y-128778000I0J-1143000D01*
G01*
X92202000Y-109728000D02*
X92202000Y-123952000D01*
X109718974Y-145414932D02*
G75*
G03*
X110998000Y-144145000I26J1279032D01*
G01*
X93481026Y-69224023D02*
G75*
G03*
X94615000Y-67945000I-154326J1279023D01*
G01*
X92202000Y-128778000D02*
X92202000Y-144145000D01*
X110998000Y-128778000D02*
G75*
G03*
X109855000Y-127635000I-1143000J0D01*
G01*
X93472000Y-145415000D02*
X109718974Y-145415000D01*
X92202000Y-104902000D02*
G75*
G03*
X93345000Y-106045000I1143500J500D01*
G01*
X109855000Y-125095000D02*
G75*
G03*
X110998000Y-123952000I0J1143000D01*
G01*
X109855000Y-86995000D02*
G75*
G03*
X109855000Y-89535000I0J-1270000D01*
G01*
X94615000Y-51435000D02*
X94615000Y-67945000D01*
X93345000Y-89535000D02*
G75*
G03*
X93345000Y-86995000I0J1270000D01*
G01*
X110998000Y-144145000D02*
X110998000Y-128778000D01*
X108585000Y-67945000D02*
X108585000Y-51435000D01*
X92202000Y-70485000D02*
X92202000Y-85852000D01*
M02*
